<?xml version="1.0" encoding="utf-8"?>
<!-- Generator: Adobe Illustrator 16.0.0, SVG Export Plug-In . SVG Version: 6.00 Build 0)  -->
<!DOCTYPE svg PUBLIC "-//W3C//DTD SVG 1.1//EN" "http://www.w3.org/Graphics/SVG/1.1/DTD/svg11.dtd">
<svg version="1.1" id="Calque_1" xmlns="http://www.w3.org/2000/svg" xmlns:xlink="http://www.w3.org/1999/xlink" x="0px" y="0px"
	 width="250px" height="500px" viewBox="295.945 345.275 250 500" enable-background="new 295.945 345.275 250 500"
	 xml:space="preserve">
<g>
	<rect x="339.196" y="523.326" width="20.2" height="48.399"/>
	<rect x="407.595" y="392.427" width="42.1" height="25.2"/>
	<rect x="362.095" y="392.427" width="42.3" height="25.2"/>
	<polygon points="316.796,392.427 336.495,392.427 336.495,420.327 359.295,420.327 359.295,469.027 316.796,468.927 	"/>
	<rect x="407.595" y="472.027" width="42.1" height="48.499"/>
	<rect x="362.095" y="472.027" width="42.3" height="48.499"/>
	<rect x="453.094" y="523.326" width="41.8" height="48.499"/>
	<rect x="362.095" y="574.525" width="42.3" height="48.699"/>
	<rect x="407.595" y="574.426" width="42.1" height="68.899"/>
	<rect x="453.195" y="643.425" width="41.699" height="28.5"/>
	<rect x="339.196" y="574.426" width="20.2" height="97.398"/>
	<rect x="362.095" y="674.524" width="42.3" height="48.699"/>
	<rect x="497.694" y="674.425" width="22.399" height="48.799"/>
	<path d="M407.595,540.225v31.6h28.399C435.994,571.825,416.195,565.025,407.595,540.225z"/>
	<path d="M538.993,554.926v-31.6h-28.399C510.594,523.326,530.393,530.126,538.993,554.926z"/>
	<path d="M316.796,691.624v31.6h28.399C345.196,723.223,325.396,716.523,316.796,691.624z"/>
	<path d="M404.395,757.723v-31.6h-28.399C375.995,726.124,395.795,732.823,404.395,757.723z"/>
	<path d="M453.094,691.624v31.6h28.399C481.493,723.223,461.694,716.523,453.094,691.624z"/>
	<polygon points="407.595,674.425 448.195,674.425 407.595,720.324 	"/>
	<path d="M494.894,420.327v48.7h-41.8C453.094,468.927,453.894,423.627,494.894,420.327z"/>
	<path d="M316.796,472.027v48.499h42.499C359.295,520.526,358.495,475.327,316.796,472.027z"/>
	<path d="M497.594,623.224v-48.699h41.399C538.993,574.426,538.194,619.925,497.594,623.224z"/>
	<path d="M404.395,468.927v-48.699h-42.3C362.095,420.327,362.895,465.726,404.395,468.927z"/>
</g>
<rect x="315.696" y="780.923" width="4.7" height="29.3"/>
<polygon points="334.495,780.923 339.196,780.923 339.196,809.722 352.196,809.722 352.196,810.222 334.495,810.222 "/>
<polygon points="363.495,780.923 368.196,780.923 368.196,809.722 381.196,809.722 381.196,810.222 363.495,810.222 "/>
<path d="M390.195,800.222v-19.3h4.7v20.3c0,7.2,1.3,9,6.2,9c6.7,0,9.8-3.5,9.8-10.7v-18.6h0.5v18.2c0,6.699-2.4,11.5-10.3,11.5
	C393.695,810.623,390.195,807.222,390.195,800.222"/>
<path d="M444.094,803.722c0-3.1-3-3.5-8.899-5.8l-2.5-1c-4.3-1.6-8.101-3.899-8.101-8.8c0-4.2,3.7-7.8,10.4-7.8
	c5.9,0,10.6,3.1,10.6,9.399h-4.8v-7.6c-0.7-0.4-2.8-1.3-5.6-1.3c-6.101,0-8.9,2.6-8.9,5.5c0,2.899,2.8,3.8,7.4,5.7l3,1.199
	c4.1,1.601,9.5,3.3,9.5,8.9c0,4.399-4.101,8.399-10.9,8.399c-6.6,0-11.699-2.5-11.699-9.6h4.8v7.8c0,0,2.1,1.4,7,1.4
	C441.695,810.222,444.094,807.022,444.094,803.722"/>
<polygon points="468.294,781.423 468.294,810.222 463.194,810.222 463.194,781.423 453.894,781.423 453.894,780.923 
	477.494,780.923 477.494,781.423 "/>
<path d="M493.493,810.222h-4.7v-29.3c0,0,4.801-0.5,8.301-0.5c6.1,0,11.399,1.4,11.399,7.8c0,5-4.899,7-7.7,7v0.101
	c6.8,1.1,8.5,7.6,8.5,14.899h-5.1c0-12-2.9-14.7-7.2-14.7h-3.5V810.222L493.493,810.222z M497.094,780.923
	c-2.2,0-3.601,0.101-3.601,0.101v13.999h3.5c4.5,0,6.601-2.899,6.601-6.8C503.594,783.623,501.594,780.923,497.094,780.923"/>
<polygon points="521.694,780.923 539.393,780.923 539.393,781.423 526.393,781.423 526.393,794.123 538.493,794.123 
	538.493,794.623 526.393,794.623 526.393,809.722 539.393,809.722 539.393,810.222 521.694,810.222 "/>
<path d="M388.895,829.923h-3.5l-0.7,2h-0.5l2.7-7.5h0.601l2.699,7.5h-0.5L388.895,829.923z M388.695,829.522l-1.6-4.5l-1.6,4.5
	H388.695z"/>
<path d="M392.195,826.622h0.4l0.1,1c0.301-0.6,0.9-1.199,1.7-1.199c0.7,0,1.4,0.399,1.601,1.3c0.3-0.7,0.999-1.3,1.8-1.3
	c1,0,1.8,0.8,1.8,2.1v3.4h-0.4v-3.4c0-1.1-0.6-1.7-1.3-1.7c-0.9,0-1.7,0.8-1.7,2.2v2.9h-0.399v-3.4c0-1.1-0.7-1.7-1.4-1.7
	c-0.899,0-1.7,0.7-1.7,2.3v2.7h-0.399v-5.2H392.195z"/>
<path d="M402.195,829.822v-3.2h0.4v3.2c0,1.2,0.7,1.8,1.6,1.8c1,0,1.8-0.699,1.8-2.3v-2.7h0.4v5.301h-0.4l-0.1-1
	c-0.2,0.6-0.8,1.199-1.8,1.199C402.795,832.022,402.195,831.022,402.195,829.822"/>
<path d="M408.695,830.622l0.4-0.1c0.2,0.7,0.6,1.2,1.399,1.2c0.801,0,1.301-0.5,1.301-1.101c0-0.399-0.2-0.899-1.101-1.199l-0.6-0.2
	c-0.8-0.3-1.101-0.8-1.101-1.3c0-0.8,0.601-1.3,1.4-1.3c0.7,0,1.1,0.399,1.4,1l-0.4,0.199c-0.2-0.6-0.6-0.8-1.1-0.8
	s-0.9,0.4-0.9,0.9c0,0.399,0.3,0.7,1,1l0.6,0.2c0.801,0.3,1.101,0.8,1.101,1.5c0,0.8-0.601,1.5-1.7,1.5
	C409.494,832.022,408.994,831.522,408.695,830.622"/>
<path d="M416.695,832.022c-1.7,0-2.6-1.2-2.6-2.7c0-1.7,1-2.8,2.5-2.8c1.6,0,2.399,1.2,2.399,2.7c0,0.1,0,0.1,0,0.2h-4.5
	c0,1.6,1,2.3,2.2,2.3c1,0,1.6-0.5,1.8-1.2l0.4,0.1C418.695,831.322,417.994,832.022,416.695,832.022 M414.595,829.022h4
	c-0.101-1.4-0.9-2.1-2-2.1C415.595,826.923,414.695,827.622,414.595,829.022"/>
<rect x="421.294" y="829.022" width="3.101" height="0.4"/>
<path d="M426.794,828.222c0-2.3,1.5-3.9,3.601-3.9c1.5,0,2.5,0.8,3,1.7l-0.4,0.3c-0.5-0.8-1.3-1.5-2.6-1.5c-1.801,0-3.2,1.4-3.2,3.4
	s1.399,3.399,3.2,3.399c1.699,0,2.8-1.3,2.699-2.899h-2.399v-0.4h2.899v3.7h-0.399l-0.101-1.6c-0.5,1.1-1.5,1.699-2.699,1.699
	C428.294,832.022,426.794,830.322,426.794,828.222"/>
<path d="M436.294,829.822v-3.2h0.4v3.2c0,1.2,0.7,1.8,1.6,1.8c1,0,1.8-0.699,1.8-2.3v-2.7h0.4v5.301h-0.4l-0.1-1
	c-0.2,0.6-0.8,1.199-1.8,1.199C436.895,832.022,436.294,831.022,436.294,829.822"/>
<path d="M445.594,832.022c-1.699,0-2.6-1.2-2.6-2.7c0-1.7,1-2.8,2.5-2.8c1.6,0,2.399,1.2,2.399,2.7c0,0.1,0,0.1,0,0.2h-4.499
	c0,1.6,1,2.3,2.199,2.3c1,0,1.601-0.5,1.8-1.2l0.4,0.1C447.594,831.322,446.894,832.022,445.594,832.022 M443.494,829.022h4
	c-0.101-1.4-0.9-2.1-2-2.1S443.594,827.622,443.494,829.022"/>
<path d="M450.294,829.822v-3.2h0.4v3.2c0,1.2,0.699,1.8,1.6,1.8c1,0,1.8-0.699,1.8-2.3v-2.7h0.4v5.301h-0.4l-0.1-1
	c-0.2,0.6-0.8,1.199-1.8,1.199C450.894,832.022,450.294,831.022,450.294,829.822"/>
<rect x="457.494" y="824.322" width="0.399" height="7.601"/>
<path d="M462.994,832.022c-1.7,0-2.601-1.2-2.601-2.7c0-1.7,1-2.8,2.5-2.8c1.601,0,2.4,1.2,2.4,2.7c0,0.1,0,0.1,0,0.2h-4.5
	c0,1.6,1,2.3,2.2,2.3c1,0,1.6-0.5,1.8-1.2l0.399,0.1C464.994,831.322,464.294,832.022,462.994,832.022 M460.894,829.022h4
	c-0.1-1.4-0.899-2.1-2-2.1C461.794,826.923,460.994,827.622,460.894,829.022"/>
<path d="M467.094,830.622l0.4-0.1c0.199,0.7,0.6,1.2,1.399,1.2s1.3-0.5,1.3-1.101c0-0.399-0.199-0.899-1.1-1.199l-0.6-0.2
	c-0.801-0.3-1.101-0.8-1.101-1.3c0-0.8,0.601-1.3,1.4-1.3c0.7,0,1.1,0.399,1.399,1l-0.399,0.199c-0.2-0.6-0.601-0.8-1.101-0.8
	s-0.899,0.4-0.899,0.9c0,0.399,0.3,0.7,1,1l0.6,0.2c0.8,0.3,1.101,0.8,1.101,1.5c0,0.8-0.601,1.5-1.7,1.5
	C467.894,832.022,467.394,831.522,467.094,830.622"/>
</svg>
