<?xml version="1.0" encoding="UTF-8" standalone="no"?>
<!-- Generator: Adobe Illustrator 16.0.0, SVG Export Plug-In . SVG Version: 6.00 Build 0)  -->

<svg
   xmlns:dc="http://purl.org/dc/elements/1.1/"
   xmlns:cc="http://creativecommons.org/ns#"
   xmlns:rdf="http://www.w3.org/1999/02/22-rdf-syntax-ns#"
   xmlns:svg="http://www.w3.org/2000/svg"
   xmlns="http://www.w3.org/2000/svg"
   xmlns:sodipodi="http://sodipodi.sourceforge.net/DTD/sodipodi-0.dtd"
   xmlns:inkscape="http://www.inkscape.org/namespaces/inkscape"
   version="1.1"
   x="0px"
   y="0px"
   width="600"
   height="600"
   viewBox="0 0 600 600"
   enable-background="new 0 0 542 386"
   xml:space="preserve"
   id="svg89"
   sodipodi:docname="epi-logo.svg"
   inkscape:version="0.92.1 r15371"><metadata
     id="metadata95"><rdf:RDF><cc:Work
         rdf:about=""><dc:format>image/svg+xml</dc:format><dc:type
           rdf:resource="http://purl.org/dc/dcmitype/StillImage" /><dc:title /></cc:Work></rdf:RDF></metadata><defs
     id="defs93" /><sodipodi:namedview
     pagecolor="#ffffff"
     bordercolor="#666666"
     borderopacity="1"
     objecttolerance="10"
     gridtolerance="10"
     guidetolerance="10"
     inkscape:pageopacity="0"
     inkscape:pageshadow="2"
     inkscape:window-width="938"
     inkscape:window-height="1054"
     id="namedview91"
     showgrid="false"
     inkscape:zoom="1.2227979"
     inkscape:cx="332.58933"
     inkscape:cy="260.63442"
     inkscape:window-x="4806"
     inkscape:window-y="10"
     inkscape:window-maximized="0"
     inkscape:current-layer="Layer_1" /><g
     id="Layer_1"
     transform="translate(0,214)"><path
       style="fill:#000000;stroke-width:1.04112124;fill-opacity:1"
       inkscape:connector-curvature="0"
       id="path18"
       d="m 190.58752,105.64388 c -4.78603,0 -7.48462,-1.85007 -9.26077,-3.70431 h -0.0771 v 19.75528 h -2.41227 l -6.07599,-6.07599 V 70.146848 h 3.34096 c 1.8355,1.303484 3.15876,2.245699 4.99322,3.548141 h 0.15408 c 1.54399,-2.390414 4.55179,-4.473698 9.18165,-4.473698 8.48931,0 15.82088,6.249851 15.82088,18.134251 10e-4,11.961443 -7.17645,18.288338 -15.66471,18.288338 m 5.55543,-24.849484 c 0,-6.789152 -1.61999,-10.338335 -7.09941,-10.338335 -5.01508,0 -7.79279,4.550741 -7.79279,6.326894 v 22.146732 c 0,2.006243 3.00988,5.480463 7.79279,5.480463 5.48046,0 7.09941,-3.55126 7.09941,-10.418501 z" /><path
       style="fill:#000000;stroke-width:1.04112124;fill-opacity:1"
       inkscape:connector-curvature="0"
       id="path20"
       d="m 232.02103,58.80279 c 0,1.775112 -3.24101,5.70951 -5.09317,5.710551 -1.93024,0 -5.09316,-3.935439 -5.09316,-5.710551 0,-1.928156 3.16292,-6.094724 5.09316,-6.094724 1.85111,0 5.09317,4.166568 5.09317,6.094724" /><polygon
       style="fill:#000000;fill-opacity:1"
       id="polygon22"
       points="196.96,183.609 202.797,177.773 205.113,177.773 205.113,205.144 199.278,210.979 196.96,210.979 "
       transform="matrix(1.0411213,0,0,1.0411213,17.855087,-114.93745)" /><path
       style="fill:#000000;stroke-width:1.04112124;fill-opacity:1"
       inkscape:connector-curvature="0"
       id="path24"
       d="m 316.12489,104.71728 -1.23581,-3.70431 h -0.15201 c -1.54398,2.46746 -4.24569,4.70691 -9.26181,4.70691 -5.47942,0 -12.96509,-3.16397 -12.96509,-12.88804 V 76.22075 l 6.07599,-6.075984 h 2.41332 v 27.548069 c 0,6.172805 4.01248,6.869315 6.32689,6.869315 4.93804,0 7.40966,-4.31857 7.40966,-6.482018 V 76.22075 l 6.07494,-6.075984 h 2.4102 v 28.49549 c -2.37167,2.373754 -3.70223,3.705354 -6.07494,6.075984 h -1.02134 z" /><path
       style="fill:#000000;stroke-width:1.04112124;fill-opacity:1"
       inkscape:connector-curvature="0"
       id="path26"
       d="m 360.57036,78.017725 c 0,-5.24621 -1.70016,-7.792793 -4.78604,-7.792793 -3.70223,0 -5.55542,3.549183 -5.55542,6.24881 v 28.244578 h -2.41228 l -6.07598,-6.075982 v -28.49549 h 2.6611 c 1.88964,1.362828 3.24309,2.337317 5.13169,3.699104 l 10e-4,0.0042 h 0.15513 c 0.76939,-2.081201 2.5445,-4.628825 6.01768,-4.628825 3.54918,0 5.94272,2.470581 5.94272,8.797475 h -1.07964 z" /><path
       style="fill:#000000;stroke-width:1.04112124;fill-opacity:1"
       inkscape:connector-curvature="0"
       id="path28"
       d="m 385.49272,58.80279 c 0,1.775112 -3.2431,5.70951 -5.09629,5.70951 -1.9292,0 -5.09317,-3.934398 -5.09317,-5.70951 0,-1.928156 3.16397,-6.094724 5.09317,-6.094724 1.85215,0 5.09629,4.166568 5.09629,6.094724" /><polygon
       style="fill:#000000;fill-opacity:1"
       id="polygon30"
       points="344.369,183.609 350.205,177.773 352.522,177.773 352.522,205.144 346.685,210.979 344.369,210.979 "
       transform="matrix(1.0411213,0,0,1.0411213,17.855087,-114.93745)" /><path
       style="fill:#000000;stroke-width:1.04112124;fill-opacity:1"
       inkscape:connector-curvature="0"
       id="path32"
       d="m 430.13079,104.71728 c -1.88963,-1.36179 -3.24413,-2.33628 -5.13168,-3.69806 l -10e-4,-0.006 h -0.15512 c -1.54399,2.46746 -4.24465,4.70691 -9.25974,4.70691 -5.47838,0 -12.96404,-3.16397 -12.96404,-12.88804 V 70.144766 h 2.41124 l 6.07598,6.075984 v 21.472085 c 0,6.172805 4.01248,6.869315 6.32898,6.869315 4.937,0 7.40654,-4.31857 7.40654,-6.482018 V 70.144766 h 2.41332 l 6.07494,6.075984 v 28.49549 h -3.19937 z" /><path
       style="fill:#000000;stroke-width:1.04112124;fill-opacity:1"
       inkscape:connector-curvature="0"
       id="path34"
       d="m 264.73618,104.48615 c -4.62882,0 -6.94428,-3.31909 -6.94428,-10.649628 V 81.027607 c 0,-7.331577 2.23737,-10.648589 6.94428,-10.648589 4.89952,0 9.28993,2.829768 10.5247,7.954167 l 1.33055,1.331594 c -0.76418,-6.613203 -6.07078,-10.442447 -12.70376,-10.442447 -11.57415,0 -16.2821,9.644948 -16.2821,18.286255 0,10.108246 5.63247,18.135293 16.66835,18.135293 6.65797,0 10.53511,-3.86881 12.05723,-9.026523 l -0.86413,-0.867254 c -1.46694,5.849017 -5.79384,8.736047 -10.73084,8.736047" /><path
       style="fill:#000000;stroke-width:1.04112124;fill-opacity:1"
       inkscape:connector-curvature="0"
       id="path36"
       d="m 461.41649,69.22025 c -7.87088,0 -11.65223,5.170208 -11.65223,10.033286 0,4.860995 3.08588,7.561664 6.86932,9.336776 l 7.71575,3.626225 c 3.47214,1.619985 4.5549,3.242052 4.5549,6.174891 0,2.932842 -2.70171,6.172812 -7.33262,6.172812 -6.33834,0 -10.45494,-3.16293 -10.97445,-9.353438 l -0.90994,0.906817 c 0.82873,6.290451 5.18582,9.527301 12.03744,9.527301 8.64547,0 13.27534,-5.24725 13.27534,-10.8818 0,-5.632466 -2.77771,-7.792793 -6.8714,-9.721991 l -7.71471,-3.628307 c -3.47214,-1.618944 -4.55178,-3.317013 -4.55178,-5.70951 0,-2.392496 1.69806,-5.400296 6.6361,-5.400296 3.34513,0 8.06036,1.781359 8.77249,7.024446 l 0.90474,-0.904735 C 471.26654,72.6091 467.98492,69.22025 461.41649,69.22025" /><path
       style="fill:#000000;stroke-width:1.04112124;fill-opacity:1"
       inkscape:connector-curvature="0"
       id="path38"
       d="m 153.74953,96.750621 c -1.48048,5.289939 -5.40134,7.659529 -10.46119,7.659529 -5.24829,0 -8.41122,-3.55126 -8.41122,-11.112929 v -7.872959 h 21.68343 v -0.924516 c 0,-10.033286 -6.79123,-15.279496 -15.27845,-15.279496 -10.9578,0 -16.2821,8.872436 -16.2821,19.214935 0,9.411736 6.3269,17.206615 17.97809,17.206615 7.08066,0 11.14103,-3.79593 12.2061,-10.33105 z M 135.49451,76.088527 c 0.61738,-3.549182 2.46954,-5.94272 5.78863,-5.94272 3.31805,0 5.16813,2.393538 5.78551,5.94272 0.0864,0.495574 0.15721,1.086931 0.21968,1.725138 -2.38833,2.634037 -3.60853,3.97396 -5.99686,6.609038 h -6.33626 c -0.001,0 0.075,-5.633507 0.5393,-8.334176" /></g><g
     id="Layer_3"
     display="none"
     style="display:none"
     transform="translate(0,214)" /><g
     id="Layer_2"
     transform="translate(0,214)" /></svg>