<?xml version="1.0" encoding="UTF-8" standalone="no"?>
<!-- Generator: Adobe Illustrator 16.0.0, SVG Export Plug-In . SVG Version: 6.00 Build 0)  -->

<svg
   xmlns:dc="http://purl.org/dc/elements/1.1/"
   xmlns:cc="http://creativecommons.org/ns#"
   xmlns:rdf="http://www.w3.org/1999/02/22-rdf-syntax-ns#"
   xmlns:svg="http://www.w3.org/2000/svg"
   xmlns="http://www.w3.org/2000/svg"
   xmlns:sodipodi="http://sodipodi.sourceforge.net/DTD/sodipodi-0.dtd"
   xmlns:inkscape="http://www.inkscape.org/namespaces/inkscape"
   version="1.1"
   x="0px"
   y="0px"
   width="600"
   height="600"
   viewBox="0 0 600 600"
   enable-background="new 0 0 542 386"
   xml:space="preserve"
   id="svg89"
   sodipodi:docname="epi-logo.svg"
   inkscape:version="0.92.1 r15371"><metadata
     id="metadata95"><rdf:RDF><cc:Work
         rdf:about=""><dc:format>image/svg+xml</dc:format><dc:type
           rdf:resource="http://purl.org/dc/dcmitype/StillImage" /><dc:title /></cc:Work></rdf:RDF></metadata><defs
     id="defs93" /><sodipodi:namedview
     pagecolor="#ffffff"
     bordercolor="#666666"
     borderopacity="1"
     objecttolerance="10"
     gridtolerance="10"
     guidetolerance="10"
     inkscape:pageopacity="0"
     inkscape:pageshadow="2"
     inkscape:window-width="1264"
     inkscape:window-height="1024"
     id="namedview91"
     showgrid="false"
     inkscape:zoom="1.2227979"
     inkscape:cx="214.84028"
     inkscape:cy="251.23245"
     inkscape:window-x="2560"
     inkscape:window-y="40"
     inkscape:window-maximized="0"
     inkscape:current-layer="Layer_1" /><g
     id="Layer_1"
     transform="translate(0,214)"><rect
       x="0"
       width="600"
       height="600"
       id="rect2"
       y="-214"
       style="fill:#1d698b;stroke-width:1.3117708;fill-opacity:1" /><path
       style="fill:#000000;stroke-width:1.04112124;fill-opacity:1"
       inkscape:connector-curvature="0"
       id="path18"
       d="m 190.58752,105.64388 c -4.78603,0 -7.48462,-1.85007 -9.26077,-3.70431 h -0.0771 v 19.75528 h -2.41227 l -6.07599,-6.07599 V 70.146848 h 3.34096 c 1.8355,1.303484 3.15876,2.245699 4.99322,3.548141 h 0.15408 c 1.54399,-2.390414 4.55179,-4.473698 9.18165,-4.473698 8.48931,0 15.82088,6.249851 15.82088,18.134251 10e-4,11.961443 -7.17645,18.288338 -15.66471,18.288338 m 5.55543,-24.849484 c 0,-6.789152 -1.61999,-10.338335 -7.09941,-10.338335 -5.01508,0 -7.79279,4.550741 -7.79279,6.326894 v 22.146732 c 0,2.006243 3.00988,5.480463 7.79279,5.480463 5.48046,0 7.09941,-3.55126 7.09941,-10.418501 z" /><path
       style="fill:#000000;stroke-width:1.04112124;fill-opacity:1"
       inkscape:connector-curvature="0"
       id="path20"
       d="m 232.02103,58.80279 c 0,1.775112 -3.24101,5.70951 -5.09317,5.710551 -1.93024,0 -5.09316,-3.935439 -5.09316,-5.710551 0,-1.928156 3.16292,-6.094724 5.09316,-6.094724 1.85111,0 5.09317,4.166568 5.09317,6.094724" /><polygon
       style="fill:#000000;fill-opacity:1"
       id="polygon22"
       points="196.96,183.609 202.797,177.773 205.113,177.773 205.113,205.144 199.278,210.979 196.96,210.979 "
       transform="matrix(1.0411213,0,0,1.0411213,17.855087,-114.93745)" /><path
       style="fill:#000000;stroke-width:1.04112124;fill-opacity:1"
       inkscape:connector-curvature="0"
       id="path24"
       d="m 316.12489,104.71728 -1.23581,-3.70431 h -0.15201 c -1.54398,2.46746 -4.24569,4.70691 -9.26181,4.70691 -5.47942,0 -12.96509,-3.16397 -12.96509,-12.88804 V 76.22075 l 6.07599,-6.075984 h 2.41332 v 27.548069 c 0,6.172805 4.01248,6.869315 6.32689,6.869315 4.93804,0 7.40966,-4.31857 7.40966,-6.482018 V 76.22075 l 6.07494,-6.075984 h 2.4102 v 28.49549 c -2.37167,2.373754 -3.70223,3.705354 -6.07494,6.075984 h -1.02134 z" /><path
       style="fill:#000000;stroke-width:1.04112124;fill-opacity:1"
       inkscape:connector-curvature="0"
       id="path26"
       d="m 360.57036,78.017725 c 0,-5.24621 -1.70016,-7.792793 -4.78604,-7.792793 -3.70223,0 -5.55542,3.549183 -5.55542,6.24881 v 28.244578 h -2.41228 l -6.07598,-6.075982 v -28.49549 h 2.6611 c 1.88964,1.362828 3.24309,2.337317 5.13169,3.699104 l 10e-4,0.0042 h 0.15513 c 0.76939,-2.081201 2.5445,-4.628825 6.01768,-4.628825 3.54918,0 5.94272,2.470581 5.94272,8.797475 h -1.07964 z" /><path
       style="fill:#000000;stroke-width:1.04112124;fill-opacity:1"
       inkscape:connector-curvature="0"
       id="path28"
       d="m 385.49272,58.80279 c 0,1.775112 -3.2431,5.70951 -5.09629,5.70951 -1.9292,0 -5.09317,-3.934398 -5.09317,-5.70951 0,-1.928156 3.16397,-6.094724 5.09317,-6.094724 1.85215,0 5.09629,4.166568 5.09629,6.094724" /><polygon
       style="fill:#000000;fill-opacity:1"
       id="polygon30"
       points="344.369,183.609 350.205,177.773 352.522,177.773 352.522,205.144 346.685,210.979 344.369,210.979 "
       transform="matrix(1.0411213,0,0,1.0411213,17.855087,-114.93745)" /><path
       style="fill:#000000;stroke-width:1.04112124;fill-opacity:1"
       inkscape:connector-curvature="0"
       id="path32"
       d="m 430.13079,104.71728 c -1.88963,-1.36179 -3.24413,-2.33628 -5.13168,-3.69806 l -10e-4,-0.006 h -0.15512 c -1.54399,2.46746 -4.24465,4.70691 -9.25974,4.70691 -5.47838,0 -12.96404,-3.16397 -12.96404,-12.88804 V 70.144766 h 2.41124 l 6.07598,6.075984 v 21.472085 c 0,6.172805 4.01248,6.869315 6.32898,6.869315 4.937,0 7.40654,-4.31857 7.40654,-6.482018 V 70.144766 h 2.41332 l 6.07494,6.075984 v 28.49549 h -3.19937 z" /><path
       style="fill:#000000;stroke-width:1.04112124;fill-opacity:1"
       inkscape:connector-curvature="0"
       id="path34"
       d="m 264.73618,104.48615 c -4.62882,0 -6.94428,-3.31909 -6.94428,-10.649628 V 81.027607 c 0,-7.331577 2.23737,-10.648589 6.94428,-10.648589 4.89952,0 9.28993,2.829768 10.5247,7.954167 l 1.33055,1.331594 c -0.76418,-6.613203 -6.07078,-10.442447 -12.70376,-10.442447 -11.57415,0 -16.2821,9.644948 -16.2821,18.286255 0,10.108246 5.63247,18.135293 16.66835,18.135293 6.65797,0 10.53511,-3.86881 12.05723,-9.026523 l -0.86413,-0.867254 c -1.46694,5.849017 -5.79384,8.736047 -10.73084,8.736047" /><path
       style="fill:#000000;stroke-width:1.04112124;fill-opacity:1"
       inkscape:connector-curvature="0"
       id="path36"
       d="m 461.41649,69.22025 c -7.87088,0 -11.65223,5.170208 -11.65223,10.033286 0,4.860995 3.08588,7.561664 6.86932,9.336776 l 7.71575,3.626225 c 3.47214,1.619985 4.5549,3.242052 4.5549,6.174891 0,2.932842 -2.70171,6.172812 -7.33262,6.172812 -6.33834,0 -10.45494,-3.16293 -10.97445,-9.353438 l -0.90994,0.906817 c 0.82873,6.290451 5.18582,9.527301 12.03744,9.527301 8.64547,0 13.27534,-5.24725 13.27534,-10.8818 0,-5.632466 -2.77771,-7.792793 -6.8714,-9.721991 l -7.71471,-3.628307 c -3.47214,-1.618944 -4.55178,-3.317013 -4.55178,-5.70951 0,-2.392496 1.69806,-5.400296 6.6361,-5.400296 3.34513,0 8.06036,1.781359 8.77249,7.024446 l 0.90474,-0.904735 C 471.26654,72.6091 467.98492,69.22025 461.41649,69.22025" /><path
       style="fill:#000000;stroke-width:1.04112124;fill-opacity:1"
       inkscape:connector-curvature="0"
       id="path38"
       d="m 153.74953,96.750621 c -1.48048,5.289939 -5.40134,7.659529 -10.46119,7.659529 -5.24829,0 -8.41122,-3.55126 -8.41122,-11.112929 v -7.872959 h 21.68343 v -0.924516 c 0,-10.033286 -6.79123,-15.279496 -15.27845,-15.279496 -10.9578,0 -16.2821,8.872436 -16.2821,19.214935 0,9.411736 6.3269,17.206615 17.97809,17.206615 7.08066,0 11.14103,-3.79593 12.2061,-10.33105 z M 135.49451,76.088527 c 0.61738,-3.549182 2.46954,-5.94272 5.78863,-5.94272 3.31805,0 5.16813,2.393538 5.78551,5.94272 0.0864,0.495574 0.15721,1.086931 0.21968,1.725138 -2.38833,2.634037 -3.60853,3.97396 -5.99686,6.609038 h -6.33626 c -0.001,0 0.075,-5.633507 0.5393,-8.334176" /><g
       id="g278"
       transform="matrix(1.3888883,0,0,1.3888883,-151.51559,10.475356)"
       style="fill:#000000;fill-opacity:1"><path
         d="M 289.57105,7.5738954 V -13.402606 l 6.08962,-6.08813 h 64.05682 l 6.08515,6.08813 V 7.5724089 h -4.46769 v -14.615078 c -0.0267,-0.197541 -0.82136,-5.9841619 -6.77284,-5.9841619 -5.96931,0 -6.74462,5.7866209 -6.77582,6.0331759 l 0.0772,14.5675505 h -4.39492 V -7.041184 c -0.0267,-0.197541 -0.82136,-5.984162 -6.77135,-5.984162 -5.96783,0 -6.74759,5.786621 -6.77582,6.033176 l 0.004,14.5675505 h -4.4692 V -7.0396989 c -0.0282,-0.197541 -0.82283,-5.9841621 -6.77432,-5.9841621 -5.96484,0 -6.74461,5.7866211 -6.77432,6.0331761 l 0.0802,14.5675505 h -4.39492 V -7.0382138 c -0.0312,-0.197541 -0.82583,-5.9841612 -6.77434,-5.9841612 -5.95148,0 -6.7461,5.7866202 -6.7758,6.0331752 l 0.003,14.5660654 z m 0.80057,-20.6452844 V 6.7748179 l 2.87845,-0.00143 V -7.0426106 c 0.0128,-0.1158549 0.90899,-6.7832384 7.57341,-6.7832384 6.66441,0 7.56152,6.6673864 7.57042,6.7342244 l 0.003,13.8650159 h 2.79379 l -0.0743,-13.8130317 c 0.0114,-0.1188222 0.90601,-6.7862086 7.57042,-6.7862086 6.66591,0 7.56449,6.6673864 7.57193,6.7342244 l 0.003,13.8650159 h 2.86807 V -7.0426106 c 0.01,-0.1158549 0.90601,-6.7832384 7.5719,-6.7832384 6.66592,0 7.55856,6.6673864 7.56748,6.7342244 l 0.004,13.8650159 h 2.79083 l -0.0728,-13.8130317 c 0.0114,-0.1188222 0.91048,-6.7862086 7.57489,-6.7862086 6.66442,0 7.56152,6.6673864 7.56894,6.7342244 l 0.003,13.8650159 h 2.86805 V -13.071389 l -5.61582,-5.618785 h -63.39439 z"
         id="path4"
         inkscape:connector-curvature="0"
         style="fill:#000000;fill-opacity:1;stroke-width:1.48527217" /><path
         d="m 294.05063,128.48545 h -0.75601 l -3.72357,-3.72209 v -20.15515 h 4.6697 l -0.0728,0.46192 c -0.0906,0.57183 -0.12026,0.93276 -0.12026,0.9387 z m -3.67901,-4.0533 2.87845,2.87845 v -21.33594 c 0.003,-0.0252 0.0193,-0.22873 0.0623,-0.56588 h -2.93935 v 19.02337 z"
         id="path8"
         inkscape:connector-curvature="0"
         style="fill:#000000;fill-opacity:1;stroke-width:1.48527217" /><path
         d="m 311.99124,128.48545 h -4.39641 v -22.50781 c -10e-4,0 -0.0312,-0.35498 -0.11727,-0.90751 l -0.0757,-0.46192 h 4.70089 l -0.0713,0.46192 c -0.0892,0.57183 -0.11584,0.92978 -0.12027,0.93573 z m -3.59585,-0.80057 h 2.79231 l -0.0728,-21.70872 c 0.001,-0.0252 0.0164,-0.23171 0.0609,-0.56886 h -2.8428 c 0.0445,0.33715 0.0609,0.53172 0.0609,0.53172 z"
         id="path10"
         inkscape:connector-curvature="0"
         style="fill:#000000;fill-opacity:1;stroke-width:1.48527217" /><path
         d="m 329.92738,128.48545 h -4.46917 v -22.50781 c -0.001,0 -0.0312,-0.35498 -0.11727,-0.90751 l -0.0728,-0.46192 h 4.84496 l -0.0713,0.46192 c -0.0876,0.57183 -0.11441,0.92978 -0.11727,0.93573 z m -3.66714,-0.80057 h 2.86807 v -21.7117 c 10e-4,-0.0253 0.0178,-0.22873 0.0579,-0.56588 h -2.98689 c 0.0417,0.33715 0.0595,0.53172 0.0595,0.53172 z"
         id="path12"
         inkscape:connector-curvature="0"
         style="fill:#000000;fill-opacity:1;stroke-width:1.48527217" /><path
         d="m 347.86353,128.48545 h -4.39344 v -22.50781 c -0.003,0 -0.0312,-0.35498 -0.11741,-0.90751 l -0.0713,-0.46192 h 4.69644 l -0.0743,0.46192 c -0.0876,0.57183 -0.11584,0.92978 -0.11727,0.93573 z m -3.59139,-0.80057 h 2.78934 l -0.0728,-21.70872 c 0.003,-0.0252 0.0193,-0.23171 0.0623,-0.56886 h -2.83985 c 0.0415,0.33715 0.0565,0.53172 0.0565,0.53172 z"
         id="path14"
         inkscape:connector-curvature="0"
         style="fill:#000000;fill-opacity:1;stroke-width:1.48527217" /><path
         d="m 362.08204,128.48694 h -0.74709 v -22.51376 c -0.003,0 -0.0312,-0.35201 -0.11727,-0.90453 l -0.0728,-0.46192 h 4.65781 v 20.15811 z m -0.01,-23.07964 c 0.0461,0.33418 0.0593,0.53172 0.0593,0.53172 l 0.003,21.36118 2.86807,-2.86657 v -19.02782 h -2.93044 z"
         id="path16"
         inkscape:connector-curvature="0"
         style="fill:#000000;fill-opacity:1;stroke-width:1.48527217" /><path
         d="m 295.45124,-46.377133 c 0,0.178231 -0.0475,0.36686 -0.14556,0.556976 -0.0936,0.190116 -0.21536,0.3832 -0.35498,0.5748 -0.13966,0.193086 -0.29408,0.37429 -0.46192,0.548066 -0.16486,0.170807 -0.31785,0.323789 -0.46042,0.450037 -0.34459,0.308937 -0.69809,0.598565 -1.06644,0.874826 -0.3624,0.274775 -0.73966,0.522816 -1.13177,0.739665 -0.39063,0.21685 -0.79462,0.389141 -1.21644,0.516876 -0.42478,0.129222 -0.86442,0.193084 -1.32634,0.193084 -1.39319,0 -2.09127,-0.717386 -2.09127,-2.149188 0,-0.141106 0.0565,-0.415877 0.17081,-0.825812 0.11727,-0.409935 0.26289,-0.877795 0.44557,-1.400612 0.17527,-0.525786 0.38915,-1.076822 0.62976,-1.650137 0.24508,-0.576286 0.49608,-1.103557 0.75007,-1.5833 0.25546,-0.479743 0.50944,-0.874826 0.75749,-1.180792 0.25249,-0.305966 0.48419,-0.461919 0.70105,-0.461919 0.14109,0 0.24654,0.04455 0.31785,0.135157 0.0713,0.08912 0.10542,0.185659 0.10542,0.286657 -0.0128,0.07872 -0.10243,0.240614 -0.26734,0.491625 -0.16785,0.248041 -0.34014,0.502022 -0.52134,0.756004 -0.0267,0.03862 -0.0683,0.102487 -0.1351,0.193085 -0.0639,0.08912 -0.12926,0.179719 -0.19161,0.268835 -0.0758,0.103971 -0.15298,0.212393 -0.22725,0.325274 -0.0519,0.09209 -0.16486,0.317848 -0.33715,0.68471 -0.17377,0.363892 -0.35646,0.785709 -0.54955,1.266938 -0.1916,0.478258 -0.36241,0.97731 -0.51836,1.497154 -0.15446,0.51836 -0.23021,0.966912 -0.23021,1.351597 0,0.216851 0.0491,0.392112 0.14407,0.518361 0.098,0.130706 0.21239,0.222791 0.34606,0.286657 0.13368,0.06684 0.27478,0.106939 0.42331,0.127739 0.14555,0.0193 0.27774,0.02822 0.3936,0.02822 0.47379,0 0.97433,-0.105455 1.50606,-0.317848 0.53024,-0.210909 1.03821,-0.488655 1.52537,-0.834723 0.48717,-0.343098 0.93424,-0.744122 1.34269,-1.2001 0.40846,-0.453008 0.72927,-0.92384 0.96245,-1.409523 0.0475,-0.08912 0.10243,-0.147042 0.15892,-0.173778 0.0579,-0.02525 0.11442,-0.03862 0.16488,-0.03862 0.0994,0 0.18862,0.07277 0.27031,0.21388 0.0802,0.135156 0.11727,0.25101 0.11727,0.340127"
         id="path40"
         inkscape:connector-curvature="0"
         style="fill:#000000;fill-opacity:1;stroke-width:1.48527217" /><path
         d="m 309.15437,-45.168123 c 0,0.115855 -0.0772,0.236159 -0.23023,0.366862 -0.15149,0.126255 -0.3327,0.24507 -0.53617,0.35201 -0.20349,0.109906 -0.40994,0.201997 -0.6253,0.279232 -0.20943,0.07724 -0.36687,0.114371 -0.46935,0.114371 -0.11285,0 -0.23765,-0.03119 -0.37132,-0.09506 -0.1351,-0.06387 -0.26438,-0.141106 -0.38617,-0.228731 -0.12183,-0.08764 -0.22724,-0.173778 -0.31636,-0.251012 -0.0906,-0.07724 -0.15001,-0.127738 -0.17081,-0.154467 -0.0401,0.04159 -0.098,0.115855 -0.17526,0.231701 -0.0772,0.112888 -0.16933,0.240615 -0.27923,0.375774 -0.10842,0.13219 -0.22279,0.251012 -0.3431,0.35201 -0.12183,0.102488 -0.24656,0.154469 -0.37725,0.154469 -0.33123,0 -0.61788,-0.179718 -0.86147,-0.534698 -0.24358,-0.360922 -0.44558,-0.770857 -0.6045,-1.231292 -0.15893,-0.460433 -0.28071,-0.904531 -0.36242,-1.333774 -0.0862,-0.427759 -0.12468,-0.717386 -0.12468,-0.87334 0,-0.08912 0.0445,-0.161894 0.14252,-0.21982 0.0936,-0.05792 0.16932,-0.08615 0.21981,-0.08615 0.17824,0 0.30151,0.0609 0.36686,0.182689 0.0639,0.120305 0.092,0.25101 0.092,0.392111 0,0.115855 0.0357,0.320819 0.10842,0.614903 0.0698,0.295569 0.15448,0.595594 0.25993,0.901561 0.0994,0.305966 0.21091,0.58074 0.32378,0.813928 0.11442,0.240615 0.21835,0.356465 0.30597,0.356465 0.16636,0 0.31191,-0.103971 0.43519,-0.314876 0.11883,-0.21388 0.21685,-0.45598 0.29408,-0.730755 0.0788,-0.274775 0.1351,-0.534698 0.17527,-0.785709 0.0357,-0.251011 0.0549,-0.414391 0.0549,-0.488654 0,-0.01485 0.003,-0.05495 0.0114,-0.124757 0.007,-0.07129 0.0148,-0.144072 0.0267,-0.222791 0.0148,-0.07427 0.0223,-0.147042 0.0297,-0.209424 0.007,-0.06387 0.0114,-0.108423 0.0114,-0.136641 0,-0.08764 -0.0208,-0.148527 -0.0565,-0.181202 -0.0401,-0.03267 -0.0593,-0.09952 -0.0593,-0.201998 0,-0.07724 0.0371,-0.152982 0.11584,-0.21982 0.0772,-0.07279 0.2421,-0.105455 0.49756,-0.105455 0.104,0 0.18121,0.02822 0.24062,0.08615 0.0579,0.0609 0.098,0.124771 0.12626,0.201998 0.0238,0.07872 0.0387,0.150012 0.0445,0.221305 0.007,0.07129 0.01,0.117339 0.01,0.14259 0,0.01485 -0.006,0.102487 -0.0178,0.271804 -0.0148,0.164865 -0.0238,0.347553 -0.0282,0.546581 -0.009,0.199026 -0.0193,0.38617 -0.0312,0.565888 -0.0148,0.178232 -0.0208,0.285172 -0.0208,0.325274 0,0.04159 0.0208,0.118822 0.0565,0.231703 0.0387,0.112887 0.0892,0.231702 0.14556,0.35498 0.0579,0.121789 0.12482,0.228732 0.20199,0.32973 0.0772,0.0906 0.15892,0.141106 0.25101,0.141106 0.15299,0 0.29706,-0.02377 0.42925,-0.06684 0.1351,-0.04604 0.26438,-0.09654 0.38469,-0.154467 0.12183,-0.05495 0.23318,-0.106939 0.33715,-0.154469 0.104,-0.04307 0.19902,-0.06684 0.28666,-0.06684 0.11442,0 0.22279,0.02822 0.31637,0.07872 0.098,0.04604 0.14407,0.109906 0.14407,0.187144"
         id="path42"
         inkscape:connector-curvature="0"
         style="fill:#000000;fill-opacity:1;stroke-width:1.48527217" /><path
         d="m 316.81243,-50.809186 c 0,0.02525 -0.0431,0.07724 -0.13367,0.152983 -0.0906,0.07724 -0.19606,0.155953 -0.31785,0.239129 -0.11884,0.08615 -0.24508,0.157438 -0.3728,0.221305 -0.12925,0.06535 -0.23023,0.09505 -0.30746,0.09505 -0.0505,0 -0.11884,-0.003 -0.202,-0.01041 -0.0832,-0.006 -0.16634,-0.0297 -0.25101,-0.06684 -0.0817,-0.03862 -0.15447,-0.09209 -0.21833,-0.161895 -0.0639,-0.0698 -0.095,-0.166351 -0.095,-0.279231 0,-0.175262 0.0623,-0.349039 0.19161,-0.507963 0.12768,-0.158924 0.2926,-0.242099 0.49905,-0.242099 0.0387,0 0.12483,0.0193 0.25992,0.04902 0.13367,0.03267 0.27181,0.07575 0.41142,0.124757 0.13966,0.05199 0.26736,0.109906 0.3743,0.173776 0.10842,0.06239 0.16189,0.135157 0.16189,0.212395 m 0.6357,7.176836 c 0,0.09209 -0.0683,0.166349 -0.202,0.231702 -0.1351,0.06387 -0.23468,0.09357 -0.29706,0.09357 -0.12925,0 -0.24506,-0.08317 -0.34607,-0.24804 -0.10243,-0.167836 -0.19159,-0.359435 -0.26883,-0.57777 -0.0772,-0.215365 -0.14252,-0.424789 -0.19161,-0.623815 -0.0519,-0.199026 -0.092,-0.337157 -0.11584,-0.412906 -0.0371,-0.127738 -0.0906,-0.280716 -0.15297,-0.46192 -0.0653,-0.176747 -0.12469,-0.349038 -0.18418,-0.516874 -0.0565,-0.167837 -0.104,-0.314879 -0.14109,-0.441126 -0.0401,-0.129222 -0.0609,-0.199026 -0.0609,-0.210909 0,-0.181203 0.0357,-0.346068 0.10542,-0.502022 0.0728,-0.151497 0.15596,-0.228732 0.25992,-0.228732 0.11584,0 0.23616,0.08912 0.3639,0.268834 0.12925,0.181204 0.25397,0.403994 0.37428,0.681741 0.12183,0.27626 0.23468,0.576285 0.33716,0.904531 0.10244,0.322303 0.19308,0.628269 0.27032,0.917898 0.0758,0.289627 0.13667,0.534697 0.18121,0.751547 0.0445,0.210909 0.0683,0.335673 0.0683,0.37429"
         id="path44"
         inkscape:connector-curvature="0"
         style="fill:#000000;fill-opacity:1;stroke-width:1.48527217" /><path
         d="m 328.73471,-44.514602 c 0,0.216849 -0.0743,0.403994 -0.22279,0.565888 -0.14408,0.158924 -0.33122,0.294084 -0.55253,0.402509 -0.22576,0.11139 -0.47082,0.199026 -0.73967,0.259923 -0.27031,0.06684 -0.52577,0.112887 -0.76937,0.144071 -0.24357,0.03267 -0.45894,0.05199 -0.64459,0.05792 -0.18418,0.006 -0.30449,0.0088 -0.35499,0.0088 -0.28071,0 -0.49609,-0.04455 -0.65203,-0.13219 -0.15299,-0.09209 -0.23022,-0.252495 -0.23022,-0.479743 0,-0.07872 0.007,-0.144071 0.0223,-0.201996 0.01,-0.05792 0.0623,-0.08615 0.15299,-0.08615 0.0371,0 0.10243,0.0074 0.19159,0.02822 0.0906,0.01932 0.16189,0.02822 0.2124,0.02822 0.0505,0 0.21536,-0.0088 0.49014,-0.02822 0.27329,-0.0208 0.56886,-0.05495 0.88225,-0.105454 0.31339,-0.05199 0.59262,-0.123274 0.84661,-0.219821 0.24803,-0.09505 0.3728,-0.21982 0.3728,-0.375773 0,-0.02525 -0.13225,-0.103971 -0.39657,-0.239129 -0.25993,-0.13219 -0.65203,-0.360921 -1.17782,-0.681739 -0.41142,-0.253982 -0.69808,-0.513904 -0.86442,-0.775313 -0.16784,-0.261408 -0.25102,-0.617873 -0.25102,-1.06494 0,-0.280717 0.0609,-0.513905 0.18418,-0.692137 0.12326,-0.176748 0.28665,-0.32082 0.49756,-0.421818 0.21239,-0.102487 0.453,-0.176746 0.72927,-0.221305 0.27626,-0.04307 0.56737,-0.06535 0.87482,-0.06535 0.0267,0 0.104,0.01041 0.23913,0.03713 0.13224,0.02822 0.27774,0.06684 0.43222,0.124756 0.15447,0.05792 0.2926,0.126241 0.4129,0.209424 0.12183,0.08465 0.18121,0.176748 0.18121,0.279231 0,0.02822 -0.0223,0.06239 -0.0669,0.115855 -0.0445,0.05199 -0.11884,0.145557 -0.22279,0.285173 -0.0371,-0.01041 -0.10243,-0.0297 -0.202,-0.05495 -0.0922,-0.02822 -0.20497,-0.05495 -0.32528,-0.08764 -0.12326,-0.03119 -0.24506,-0.05792 -0.3728,-0.07872 -0.12925,-0.0193 -0.23171,-0.02822 -0.30893,-0.02822 -0.3327,0 -0.60006,0.0609 -0.80502,0.182689 -0.20498,0.120306 -0.30745,0.35498 -0.30745,0.701049 0,0.164865 0.0668,0.320819 0.20051,0.461919 0.1351,0.141106 0.30597,0.270319 0.51241,0.392112 0.20201,0.123273 0.42182,0.24507 0.66243,0.366862 0.23319,0.12179 0.45599,0.251012 0.65946,0.392112 0.20646,0.141106 0.3743,0.289629 0.50946,0.453008 0.13225,0.152984 0.20051,0.335672 0.20051,0.543611"
         id="path46"
         inkscape:connector-curvature="0"
         style="fill:#000000;fill-opacity:1;stroke-width:1.48527217" /><path
         d="m 337.27503,-50.809186 c 0,0.02525 -0.0445,0.07724 -0.13367,0.152983 -0.0906,0.07724 -0.19606,0.155953 -0.31785,0.239129 -0.12183,0.08615 -0.24508,0.157438 -0.3743,0.221305 -0.12768,0.06535 -0.22873,0.09505 -0.30745,0.09505 -0.0505,0 -0.11884,-0.003 -0.20199,-0.01041 -0.0832,-0.006 -0.16636,-0.0297 -0.24953,-0.06684 -0.0832,-0.03862 -0.15447,-0.09209 -0.21834,-0.161895 -0.0653,-0.0698 -0.098,-0.166351 -0.098,-0.279231 0,-0.175262 0.0639,-0.349039 0.19309,-0.507963 0.12768,-0.158924 0.29556,-0.242099 0.50053,-0.242099 0.0371,0 0.12482,0.0193 0.25844,0.04902 0.1351,0.03267 0.2718,0.07575 0.41142,0.124757 0.14109,0.05199 0.26735,0.109906 0.37727,0.173776 0.10542,0.06239 0.1604,0.135157 0.1604,0.212395 m 0.6342,7.176836 c 0,0.09209 -0.0698,0.166349 -0.20199,0.231702 -0.13667,0.06387 -0.23466,0.09357 -0.30002,0.09357 -0.12768,0 -0.24359,-0.08317 -0.3431,-0.24804 -0.104,-0.167836 -0.19309,-0.359435 -0.26884,-0.57777 -0.0788,-0.215365 -0.14252,-0.424789 -0.19308,-0.623815 -0.0505,-0.199026 -0.0892,-0.337157 -0.11584,-0.412906 -0.0371,-0.127738 -0.0906,-0.280716 -0.15447,-0.46192 -0.0623,-0.176747 -0.12326,-0.349038 -0.18119,-0.516874 -0.0579,-0.167837 -0.104,-0.314879 -0.14252,-0.441126 -0.0417,-0.129222 -0.0595,-0.199026 -0.0595,-0.210909 0,-0.181203 0.0357,-0.346068 0.10542,-0.502022 0.0713,-0.151497 0.15448,-0.228732 0.25993,-0.228732 0.11442,0 0.23616,0.08912 0.3624,0.268834 0.12925,0.181204 0.254,0.403994 0.37579,0.681741 0.12326,0.27626 0.23318,0.576285 0.33715,0.904531 0.0996,0.322303 0.1916,0.628269 0.26884,0.917898 0.0772,0.289627 0.13967,0.534697 0.18119,0.751547 0.0461,0.210909 0.0698,0.335673 0.0698,0.37429"
         id="path48"
         inkscape:connector-curvature="0"
         style="fill:#000000;fill-opacity:1;stroke-width:1.48527217" /><path
         d="m 350.63504,-44.340826 c 0,0.07724 -0.0282,0.151498 -0.0787,0.227246 -0.0505,0.07575 -0.10985,0.147042 -0.1812,0.21091 -0.0698,0.06387 -0.15002,0.12179 -0.23171,0.164865 -0.0817,0.04455 -0.15447,0.06684 -0.21833,0.06684 -0.21685,0 -0.49608,-0.04604 -0.83472,-0.147042 -0.34013,-0.09357 -0.61343,-0.242099 -0.81839,-0.447067 -0.21536,-0.216851 -0.40696,-0.476773 -0.57331,-0.778284 -0.16487,-0.300024 -0.35498,-0.74412 -0.55847,-1.333773 -0.13967,0.562917 -0.3015,1.119895 -0.48716,1.669446 -0.18716,0.548065 -0.48124,1.056028 -0.89414,1.516463 -0.0253,0.02525 -0.0639,0.03565 -0.11441,0.03565 -0.0906,0 -0.18566,-0.04159 -0.28814,-0.133673 -0.101,-0.08912 -0.15299,-0.178234 -0.15299,-0.27032 0,-0.08615 -0.01,-0.29557 -0.0312,-0.620844 -0.0193,-0.329731 -0.0401,-0.690651 -0.0669,-1.094645 -0.0282,-0.401024 -0.0475,-0.815415 -0.0653,-1.228321 -0.0223,-0.415877 -0.0297,-0.758974 -0.0297,-1.026324 0,-0.12624 0.004,-0.297054 0.0178,-0.510932 0.0148,-0.209423 0.0491,-0.392112 0.11442,-0.545096 0.0148,-0.02673 0.0609,-0.07575 0.14555,-0.152982 0.0846,-0.0802 0.17526,-0.115855 0.27923,-0.115855 0.0876,0 0.13967,0.05792 0.15446,0.170806 0.0114,0.115855 0.0148,0.2421 0.0148,0.3832 v 3.035897 c 0,0.06387 0.0128,0.154469 0.0327,0.268834 0.0178,0.115855 0.0445,0.199028 0.0862,0.251012 0.14109,-0.308937 0.27181,-0.669858 0.3936,-1.08722 0.12326,-0.412906 0.23913,-0.810958 0.35201,-1.189703 0.11727,-0.374289 0.2317,-0.695107 0.34607,-0.959485 0.11584,-0.259924 0.23021,-0.392113 0.34607,-0.392113 0.12625,0 0.23021,0.02525 0.30596,0.07427 0.0772,0.05347 0.13967,0.157438 0.19309,0.308936 0.0653,0.369833 0.11442,0.699563 0.15298,0.992162 0.0387,0.285172 0.0892,0.545094 0.14555,0.773827 0.0565,0.228732 0.14252,0.447067 0.24805,0.643123 0.10985,0.199026 0.26141,0.381715 0.453,0.546579 0.18121,0.167837 0.38321,0.289629 0.60452,0.366863 0.22427,0.07427 0.41883,0.109906 0.58667,0.109906 0.0772,0 0.15596,-0.01341 0.24805,-0.04307 0.0906,-0.03268 0.15446,-0.0505 0.19308,-0.0505 0.0491,0 0.098,0.04754 0.14407,0.136641 0.0461,0.08912 0.0669,0.147042 0.0669,0.173777"
         id="path50"
         inkscape:connector-curvature="0"
         style="fill:#000000;fill-opacity:1;stroke-width:1.48527217" /><path
         d="m 362.72516,-43.996243 c 0.0128,0.02525 0.0193,0.06387 0.0193,0.112888 0,0.07872 -0.0565,0.194571 -0.17526,0.347554 -0.0357,0.04902 -0.12183,0.13219 -0.24654,0.248041 -0.12768,0.115854 -0.30152,0.231702 -0.51837,0.344583 -0.21982,0.115854 -0.48568,0.21685 -0.79759,0.308936 -0.31488,0.08912 -0.68322,0.132189 -1.10504,0.132189 -0.29111,0 -0.58223,-0.06535 -0.86294,-0.200511 -0.27923,-0.133673 -0.53024,-0.332702 -0.74858,-0.595595 -0.21536,-0.262893 -0.39806,-0.588167 -0.5347,-0.977309 -0.14266,-0.392112 -0.21239,-0.846605 -0.21239,-1.370906 0,-0.500537 0.0623,-0.968398 0.19308,-1.402097 0.12483,-0.435185 0.28963,-0.81987 0.48865,-1.152571 0.19903,-0.331215 0.41589,-0.592624 0.66095,-0.78571 0.24358,-0.190114 0.47677,-0.286657 0.71145,-0.286657 0.20496,0 0.41142,0.0401 0.62233,0.124757 0.21091,0.08317 0.4025,0.190116 0.57776,0.316363 0.16933,0.127739 0.30746,0.274775 0.40994,0.430729 0.101,0.161894 0.15447,0.32379 0.15447,0.491625 0,0.193086 -0.0862,0.392112 -0.26141,0.592624 -0.16931,0.207939 -0.38022,0.395082 -0.62085,0.565889 -0.24654,0.173776 -0.48864,0.314878 -0.72926,0.424788 -0.24655,0.106939 -0.43816,0.161894 -0.57925,0.161894 -0.0757,0 -0.14407,-0.03565 -0.20201,-0.106938 -0.0565,-0.0698 -0.0846,-0.157439 -0.0846,-0.256952 0,-0.179719 0.0772,-0.320819 0.23913,-0.424789 0.15893,-0.09952 0.33865,-0.193084 0.52728,-0.276259 0.18862,-0.08317 0.36835,-0.185659 0.52579,-0.29854 0.16337,-0.115854 0.24358,-0.276261 0.24358,-0.479744 0,-0.02525 -0.0342,-0.09209 -0.098,-0.193084 -0.0639,-0.101004 -0.23468,-0.154469 -0.51539,-0.154469 -0.12768,0 -0.27775,0.07427 -0.44559,0.222791 -0.16189,0.145557 -0.32528,0.343098 -0.47677,0.592624 -0.15299,0.24804 -0.28072,0.545094 -0.38617,0.882252 -0.0996,0.340126 -0.15151,0.70996 -0.15151,1.103557 0,0.335671 0.0595,0.635697 0.1827,0.901559 0.11726,0.271806 0.27774,0.497567 0.46787,0.681741 0.19307,0.188629 0.41735,0.332701 0.67281,0.433699 0.25548,0.101004 0.51836,0.152983 0.78572,0.152983 0.19011,0 0.40102,-0.04159 0.62678,-0.124756 0.21983,-0.08317 0.43072,-0.173777 0.62827,-0.26735 0.19902,-0.09654 0.37281,-0.188629 0.51985,-0.271804 0.14704,-0.08317 0.2421,-0.123273 0.27923,-0.123273 0.0401,0 0.0817,0.0193 0.12469,0.05644 0.0505,0.04159 0.0772,0.0802 0.0906,0.118822"
         id="path52"
         inkscape:connector-curvature="0"
         style="fill:#000000;fill-opacity:1;stroke-width:1.48527217" /><path
         d="m 243.91526,159.02711 c 0.0267,0.0772 0.0519,0.14852 0.0788,0.21239 0.0252,0.0639 0.0461,0.13368 0.0669,0.21388 0.0208,0.0742 0.0282,0.14407 0.0282,0.20943 0,0.0892 -0.0312,0.16337 -0.0936,0.21833 -0.0639,0.0579 -0.13967,0.10699 -0.22131,0.14555 -0.0847,0.0387 -0.16041,0.0639 -0.23765,0.0787 -0.0772,0.0128 -0.12183,0.0193 -0.1351,0.0193 -0.0787,0 -0.21834,-0.23468 -0.4233,-0.70105 -0.20497,-0.46935 -0.42479,-1.12435 -0.66243,-1.96799 -0.23468,-0.84364 -0.47529,-1.84767 -0.71888,-3.01213 -0.2421,-1.16743 -0.44112,-2.44476 -0.5941,-3.83794 -0.0267,0.29111 -0.0743,0.63421 -0.14407,1.02483 -0.0713,0.38915 -0.17378,0.75898 -0.31488,1.10356 -0.14266,0.34459 -0.32528,0.63867 -0.54806,0.87185 -0.22428,0.23764 -0.50946,0.35646 -0.85404,0.35646 -0.24507,0 -0.51984,-0.12768 -0.82878,-0.38468 -0.30448,-0.25398 -0.60302,-0.56291 -0.89117,-0.91196 -0.28665,-0.35052 -0.54806,-0.70995 -0.7857,-1.07385 -0.23765,-0.36685 -0.41439,-0.66243 -0.52876,-0.89264 0.0519,0.56291 0.13966,1.23871 0.25844,2.03333 0.12183,0.79462 0.31338,1.63232 0.56885,2.51605 0.0252,0.0862 0.0519,0.15299 0.0876,0.20201 0.0312,0.0417 0.0639,0.0892 0.0936,0.14407 0.0341,0.0491 0.0565,0.104 0.0787,0.15892 0.0192,0.0579 0.0297,0.14406 0.0297,0.25992 0,0.16784 -0.0653,0.28666 -0.19308,0.36686 -0.12925,0.0787 -0.24953,0.11285 -0.3639,0.11285 -0.0639,0 -0.14852,-0.095 -0.24803,-0.29705 -0.10542,-0.19903 -0.21239,-0.45895 -0.32973,-0.77829 -0.11584,-0.31636 -0.22874,-0.67283 -0.3431,-1.06493 -0.11741,-0.38915 -0.22131,-0.77532 -0.31933,-1.15852 -0.092,-0.38617 -0.17378,-0.7456 -0.23913,-1.08425 -0.0639,-0.34012 -0.0966,-0.61193 -0.0966,-0.81689 0,-0.33122 0.0178,-0.56293 0.0519,-0.68917 0.0297,-0.13067 0.0802,-0.22427 0.14407,-0.28666 v -1.17336 c 0,-0.17972 0.0475,-0.31784 0.14109,-0.40993 0.0966,-0.0966 0.2213,-0.14408 0.37577,-0.14408 0.12768,0 0.27775,0.107 0.44262,0.32527 0.16634,0.21834 0.34607,0.49162 0.54361,0.82284 0.19903,0.3342 0.40695,0.69363 0.62678,1.07683 0.21685,0.38617 0.43072,0.74264 0.64312,1.07385 0.21239,0.33419 0.41736,0.61045 0.61639,0.82878 0.19754,0.21686 0.38469,0.32528 0.56291,0.32528 0.16784,0 0.32677,-0.15596 0.47976,-0.46786 0.15445,-0.31488 0.29853,-0.72481 0.43368,-1.23872 0.13525,-0.51094 0.2525,-1.09315 0.35202,-1.7452 0.104,-0.65203 0.18566,-1.32188 0.2525,-1.99769 0,-0.0772 -0.007,-0.16486 -0.0193,-0.25992 -0.0164,-0.095 -0.0223,-0.20199 -0.0223,-0.31785 0,-0.1515 0.0357,-0.31933 0.107,-0.49608 0.0683,-0.18268 0.20646,-0.27032 0.40993,-0.27032 0.11727,0 0.20943,0.0297 0.27923,0.092 0.0713,0.0639 0.11727,0.14407 0.14408,0.24358 0.0282,0.092 0.0415,0.19012 0.0491,0.28518 0.006,0.0966 0.009,0.17377 0.009,0.24061 0,0.101 -0.009,0.27329 -0.0267,0.50796 -0.0193,0.23764 -0.0312,0.59857 -0.0312,1.08425 0,0.42182 0.0327,0.91047 0.098,1.46745 0.0653,0.55697 0.14854,1.14663 0.25993,1.7645 0.10542,0.62084 0.23319,1.26249 0.3832,1.92194 0.14852,0.65798 0.30448,1.30111 0.47974,1.92789 0.17081,0.62678 0.34458,1.21644 0.51836,1.7749 0.16635,0.55698 0.3431,1.04563 0.51984,1.46745"
         id="path54"
         inkscape:connector-curvature="0"
         style="fill:#000000;fill-opacity:1;stroke-width:1.48527217" /><path
         d="m 255.66376,155.97487 c 0.0114,0.0252 0.0164,0.0623 0.0164,0.11584 0,0.0772 -0.0565,0.19309 -0.17229,0.3431 -0.0357,0.0519 -0.11884,0.13667 -0.24656,0.25101 -0.12768,0.11284 -0.30152,0.22873 -0.51984,0.34458 -0.21835,0.11584 -0.48273,0.21833 -0.79611,0.30893 -0.3134,0.0892 -0.67878,0.13368 -1.10357,0.13368 -0.29556,0 -0.58371,-0.0668 -0.8659,-0.202 -0.27923,-0.13367 -0.52876,-0.3327 -0.74561,-0.59262 -0.21834,-0.26587 -0.39805,-0.58965 -0.53767,-0.98028 -0.14266,-0.39211 -0.21388,-0.84958 -0.21388,-1.37387 0,-0.49906 0.0653,-0.96543 0.19309,-1.4021 0.12769,-0.43222 0.29112,-0.8169 0.49014,-1.1496 0.19903,-0.3327 0.41736,-0.5956 0.66243,-0.78571 0.24358,-0.19309 0.47826,-0.28666 0.71144,-0.28666 0.20201,0 0.40845,0.0415 0.62233,0.12469 0.20943,0.0832 0.40252,0.18714 0.57629,0.31784 0.17081,0.12626 0.30893,0.27033 0.41142,0.42926 0.10101,0.1604 0.15298,0.32378 0.15298,0.48865 0,0.19308 -0.0876,0.39211 -0.25843,0.5956 -0.17229,0.20496 -0.38024,0.39507 -0.6253,0.56588 -0.24211,0.17377 -0.4842,0.31191 -0.72778,0.42182 -0.24211,0.10984 -0.43371,0.16487 -0.5763,0.16487 -0.0772,0 -0.14407,-0.0357 -0.20199,-0.107 -0.0565,-0.0698 -0.0862,-0.15447 -0.0862,-0.25993 0,-0.17972 0.0787,-0.32081 0.24063,-0.42181 0.15742,-0.10101 0.33567,-0.19308 0.52726,-0.27627 0.19012,-0.0862 0.36687,-0.18566 0.52579,-0.30151 0.15744,-0.11285 0.23913,-0.27328 0.23913,-0.47677 0,-0.0252 -0.0312,-0.0906 -0.092,-0.19308 -0.0683,-0.101 -0.24061,-0.15151 -0.52132,-0.15151 -0.12769,0 -0.27627,0.0713 -0.44262,0.21686 -0.16486,0.15001 -0.32824,0.34755 -0.47826,0.5956 -0.15446,0.25101 -0.28071,0.54361 -0.38468,0.88374 -0.104,0.34012 -0.15446,0.70698 -0.15446,1.10355 0,0.33418 0.0609,0.63123 0.18267,0.90156 0.12184,0.26735 0.27775,0.49607 0.46936,0.68173 0.19308,0.18418 0.41587,0.32825 0.67135,0.42926 0.25843,0.10243 0.52132,0.15445 0.78718,0.15445 0.1916,0 0.40102,-0.0415 0.62233,-0.12768 0.22428,-0.0832 0.43667,-0.1708 0.6357,-0.26734 0.19754,-0.0966 0.36983,-0.18566 0.51687,-0.26885 0.14853,-0.0832 0.24062,-0.12625 0.27923,-0.12625 0.0371,0 0.0802,0.0193 0.12326,0.0579 0.0505,0.0431 0.0802,0.0846 0.0936,0.12026 m -1.09464,-8.1185 c 0,0.10101 -0.0788,0.24805 -0.23022,0.44114 -0.15446,0.19307 -0.33715,0.3921 -0.5451,0.59261 -0.21387,0.20794 -0.43072,0.39509 -0.65351,0.56886 -0.22428,0.17081 -0.40102,0.28963 -0.52728,0.35498 -0.101,0.0505 -0.19159,0.0832 -0.27031,0.0936 -0.0743,0.0148 -0.13966,0.0193 -0.19161,0.0193 -0.101,0 -0.23021,-0.0549 -0.3832,-0.17378 -0.15446,-0.11284 -0.23021,-0.22279 -0.23021,-0.32528 0,-0.0252 0.0593,-0.0609 0.17229,-0.104 0.11584,-0.0445 0.2421,-0.10542 0.38469,-0.18269 0.12768,-0.0772 0.29704,-0.20199 0.50944,-0.37577 0.21091,-0.17081 0.42033,-0.34161 0.63273,-0.51539 0.21091,-0.17377 0.40251,-0.32676 0.57629,-0.453 0.17081,-0.12769 0.28963,-0.19161 0.35497,-0.19161 0.0906,0 0.17972,0.0252 0.26884,0.0787 0.0862,0.0505 0.13225,0.10999 0.13225,0.17229"
         id="path56"
         inkscape:connector-curvature="0"
         style="fill:#000000;fill-opacity:1;stroke-width:1.48527217" /><path
         d="m 268.21729,154.9025 c 0,0.0653 -0.0297,0.12326 -0.0876,0.17824 -0.0565,0.0579 -0.092,0.11884 -0.10543,0.18566 0,0.14109 0.0297,0.27328 0.0862,0.4025 0.0579,0.12768 0.0892,0.2822 0.0892,0.46192 0,0.16785 -0.0505,0.25102 -0.15596,0.25102 -0.12625,0 -0.21833,0.0148 -0.27774,0.0475 -0.0593,0.0312 -0.15448,0.0593 -0.29557,0.0892 -0.0772,0 -0.16189,-0.0728 -0.24804,-0.21388 -0.0549,-0.0639 -0.0966,-0.14109 -0.13667,-0.2317 0,-0.0128 -0.0357,0.0114 -0.107,0.0772 -0.0698,0.0639 -0.18269,0.13667 -0.34458,0.22428 -0.15744,0.0802 -0.3743,0.15596 -0.65205,0.22576 -0.27624,0.0713 -0.62233,0.107 -1.04413,0.107 -0.35945,0 -0.67135,-0.0802 -0.94018,-0.2436 -0.27033,-0.15595 -0.49164,-0.36388 -0.66243,-0.62084 -0.17229,-0.25695 -0.30003,-0.5451 -0.38468,-0.87186 -0.0832,-0.32823 -0.12326,-0.65648 -0.12326,-0.99067 0,-0.30894 0.0357,-0.59559 0.104,-0.87185 0.0713,-0.2733 0.16784,-0.51985 0.29854,-0.72779 0.12768,-0.21387 0.28517,-0.38468 0.47678,-0.51094 0.19307,-0.13067 0.41587,-0.19307 0.67133,-0.19307 0.24359,0 0.48865,0.0772 0.72927,0.23021 0.24507,0.15299 0.46192,0.32081 0.65353,0.49757 0.19159,0.18119 0.40845,0.41587 0.65203,0.71144 -0.18121,-0.99662 -0.34014,-1.90115 -0.47974,-2.70765 -0.0639,-0.3431 -0.12626,-0.6862 -0.18269,-1.02187 -0.0579,-0.34013 -0.11285,-0.64758 -0.1619,-0.91641 -0.0505,-0.26884 -0.092,-0.49162 -0.12325,-0.67878 -0.0327,-0.18714 -0.0491,-0.30001 -0.0491,-0.33715 -0.0128,-0.0757 -0.0283,-0.21387 -0.0401,-0.41142 -0.01,-0.19902 -0.0238,-0.404 -0.0357,-0.62678 -0.0128,-0.21686 -0.0282,-0.41588 -0.0401,-0.59411 -0.009,-0.17675 -0.0238,-0.29259 -0.0342,-0.34458 -0.0401,-0.12768 -0.0906,-0.28666 -0.14556,-0.47677 -0.0565,-0.19458 -0.0876,-0.30152 -0.0876,-0.32973 0,-0.0639 0.0327,-0.14408 0.095,-0.23617 0.0639,-0.0966 0.14853,-0.14704 0.24805,-0.14704 0.0802,0 0.14704,0.009 0.21387,0.0223 0.0623,0.0114 0.11884,0.0461 0.1723,0.10985 0.0505,0.0668 0.0994,0.16784 0.14266,0.30003 0.0461,0.13667 0.0906,0.32378 0.12768,0.56588 0.01,0.12768 0.0505,0.36983 0.11441,0.72926 0.0623,0.36094 0.12768,0.75007 0.19159,1.17189 0.0639,0.41884 0.12769,0.82284 0.19161,1.20901 0.0653,0.38617 0.107,0.66391 0.1351,0.84661 0.0639,0.4827 0.15149,1.00998 0.25843,1.57735 0.10842,0.57183 0.22131,1.11692 0.33717,1.64123 0.11441,0.52431 0.23021,0.99068 0.34606,1.3917 0.11442,0.40399 0.21685,0.6758 0.303,0.8169 0.0283,0.0519 0.0802,0.0862 0.15744,0.107 0.0743,0.0163 0.12626,0.0623 0.15001,0.12625 m -1.4214,0.38024 c -0.0128,-0.0327 -0.0936,-0.20199 -0.23765,-0.48866 -0.15,-0.28368 -0.33418,-0.59708 -0.55697,-0.94017 -0.22576,-0.33716 -0.47381,-0.64462 -0.74859,-0.91048 -0.27774,-0.26883 -0.54361,-0.4025 -0.79758,-0.4025 -0.21833,0 -0.39361,0.16784 -0.5258,0.50202 -0.1351,0.3327 -0.20347,0.71442 -0.20347,1.14812 0,0.48567 0.14555,0.87779 0.4337,1.17187 0.28517,0.2926 0.60748,0.43964 0.96691,0.43964 0.30597,0 0.62827,-0.0489 0.95948,-0.15001 0.33568,-0.10542 0.57035,-0.22724 0.70997,-0.36983"
         id="path58"
         inkscape:connector-curvature="0"
         style="fill:#000000;fill-opacity:1;stroke-width:1.48527217" /><path
         d="m 276.58532,149.16341 c 0,0.0238 -0.0445,0.0788 -0.1351,0.15299 -0.0906,0.0742 -0.19458,0.15446 -0.31785,0.23763 -0.11884,0.0862 -0.24359,0.15596 -0.37132,0.2228 -0.13068,0.0623 -0.23171,0.092 -0.30895,0.092 -0.0519,0 -0.11726,-0.003 -0.2005,-0.007 -0.0832,-0.009 -0.16635,-0.0282 -0.2525,-0.0698 -0.0832,-0.0387 -0.15447,-0.0892 -0.21833,-0.15893 -0.0639,-0.0698 -0.0936,-0.16486 -0.0936,-0.28071 0,-0.17674 0.0623,-0.34755 0.19159,-0.50796 0.12768,-0.16041 0.2926,-0.24061 0.49906,-0.24061 0.0371,0 0.12325,0.0178 0.25843,0.0489 0.1351,0.0312 0.27329,0.0728 0.41142,0.12483 0.14109,0.0519 0.26734,0.107 0.37429,0.17081 0.10843,0.0653 0.16338,0.13667 0.16338,0.21536 m 0.63421,7.17535 c 0,0.092 -0.0683,0.16783 -0.20199,0.23318 -0.13367,0.0639 -0.23319,0.092 -0.29706,0.092 -0.12768,0 -0.24358,-0.0832 -0.34459,-0.24803 -0.10243,-0.16487 -0.19159,-0.35795 -0.27031,-0.57778 -0.0772,-0.21536 -0.14109,-0.42478 -0.19161,-0.62381 -0.0505,-0.19903 -0.0906,-0.33716 -0.11584,-0.40994 -0.0357,-0.12925 -0.0892,-0.28071 -0.15297,-0.46192 -0.0639,-0.17674 -0.12626,-0.35201 -0.1827,-0.51687 -0.0565,-0.16784 -0.10542,-0.3134 -0.14407,-0.44411 -0.0371,-0.12625 -0.0579,-0.19902 -0.0579,-0.20941 0,-0.17972 0.0341,-0.34458 0.10543,-0.50054 0.0713,-0.15447 0.15446,-0.23171 0.25843,-0.23171 0.11441,0 0.23764,0.092 0.36538,0.27182 0.12768,0.1797 0.2525,0.40547 0.37429,0.68173 0.12183,0.27329 0.23319,0.57629 0.33568,0.90156 0.10243,0.32231 0.19456,0.63273 0.27031,0.91791 0.0757,0.28963 0.1381,0.53766 0.18121,0.75153 0.0445,0.2124 0.0683,0.33865 0.0683,0.3743"
         id="path60"
         inkscape:connector-curvature="0"
         style="fill:#000000;fill-opacity:1;stroke-width:1.48527217" /><path
         d="m 289.27548,149.3164 c -0.16635,0.19011 -0.4025,0.38171 -0.71145,0.56588 -0.30893,0.18418 -0.61341,0.35498 -0.92234,0.50797 -0.30598,0.15446 -0.57481,0.28665 -0.80502,0.39507 -0.23171,0.107 -0.34607,0.18269 -0.34607,0.21983 0,0.0387 0.0253,0.15299 0.0788,0.34458 0.0505,0.19309 0.11142,0.41885 0.18119,0.68175 0.0713,0.26288 0.14556,0.53469 0.22131,0.81689 0.0758,0.27923 0.1381,0.52876 0.19309,0.7456 0.0223,0.12925 0.0549,0.29707 0.0936,0.50203 0.0387,0.20497 0.0743,0.40845 0.10543,0.61194 0.0312,0.20496 0.0593,0.39062 0.0846,0.54658 0.0267,0.15892 0.0387,0.24804 0.0387,0.25991 0,0.19309 -0.0312,0.39212 -0.095,0.59559 -0.0623,0.20498 -0.16635,0.30598 -0.30745,0.30598 -0.0757,0 -0.14705,-0.0312 -0.20942,-0.0966 -0.0653,-0.0623 -0.12326,-0.13809 -0.17378,-0.21981 -0.0519,-0.0832 -0.0906,-0.15892 -0.11584,-0.23913 -0.0238,-0.0757 -0.0371,-0.13367 -0.0371,-0.17081 0,-0.0282 0.004,-0.0639 0.01,-0.11584 0.007,-0.0519 0.01,-0.10699 0.01,-0.1708 0,-0.24358 -0.0387,-0.5956 -0.11584,-1.05752 -0.0252,-0.14109 -0.0772,-0.35795 -0.15447,-0.65352 -0.0772,-0.29111 -0.15298,-0.59262 -0.22873,-0.89859 -0.092,-0.35795 -0.19309,-0.75006 -0.30745,-1.17187 -0.0535,-0.17972 -0.0846,-0.26884 -0.095,-0.26884 -0.092,0 -0.24063,0.0549 -0.45302,0.1619 -0.21091,0.10842 -0.45004,0.24358 -0.71738,0.4025 -0.27032,0.15893 -0.55103,0.33419 -0.84661,0.51985 -0.29408,0.18417 -0.56886,0.35795 -0.82432,0.51835 -0.25546,0.16041 -0.47529,0.2926 -0.66243,0.40104 -0.18418,0.11284 -0.29557,0.16486 -0.33567,0.16486 -0.16636,0 -0.30003,-0.0579 -0.404,-0.17081 -0.0994,-0.11441 -0.15298,-0.24506 -0.15298,-0.38617 0,-0.0772 0.10543,-0.18714 0.31637,-0.33418 0.21239,-0.15002 0.47379,-0.31192 0.78719,-0.49163 0.31339,-0.17824 0.65203,-0.36389 1.01741,-0.55697 0.36389,-0.19013 0.7055,-0.3639 1.0189,-0.51986 0.3119,-0.15149 0.68025,-0.33121 1.10058,-0.53469 -0.11141,-0.58816 -0.20942,-1.11099 -0.28518,-1.57588 -0.0639,-0.39508 -0.12468,-0.76195 -0.18269,-1.09166 -0.0579,-0.33569 -0.0862,-0.51094 -0.0862,-0.53768 0,-0.16636 0.0341,-0.28963 0.10542,-0.3728 0.0698,-0.0862 0.15149,-0.12768 0.23913,-0.12768 0.14109,0 0.23021,0.0966 0.27031,0.28963 0.1381,0.69065 0.27182,1.30556 0.39361,1.84025 0.12026,0.53768 0.23764,0.97435 0.35201,1.30556 0.11727,-0.0252 0.31487,-0.0966 0.59411,-0.21686 0.28368,-0.12468 0.57776,-0.25398 0.88521,-0.39656 0.30747,-0.1411 0.58521,-0.26438 0.83473,-0.37132 0.24952,-0.10985 0.39508,-0.16486 0.43222,-0.16486 0.0772,0 0.12325,0.0252 0.14251,0.0772 0.0208,0.0491 0.0417,0.0936 0.0683,0.13224"
         id="path62"
         inkscape:connector-curvature="0"
         style="fill:#000000;fill-opacity:1;stroke-width:1.48527217" /><path
         d="m 301.40422,155.97487 c 0.0148,0.0282 0.0208,0.0623 0.0208,0.11584 0,0.0772 -0.0579,0.19011 -0.17378,0.3431 -0.0357,0.0519 -0.12183,0.13667 -0.24952,0.24953 -0.12769,0.11741 -0.30002,0.23021 -0.51688,0.34606 -0.21981,0.11285 -0.48419,0.21833 -0.79759,0.30893 -0.31488,0.0892 -0.68025,0.13368 -1.10503,0.13368 -0.29261,0 -0.58223,-0.0668 -0.86444,-0.202 -0.27923,-0.13367 -0.52876,-0.3327 -0.7456,-0.59559 -0.21835,-0.2629 -0.39954,-0.58816 -0.5362,-0.97731 -0.14109,-0.39211 -0.21239,-0.84958 -0.21239,-1.3709 0,-0.50203 0.0639,-0.9684 0.19013,-1.4021 0.12768,-0.43519 0.29259,-0.81987 0.49013,-1.15257 0.19903,-0.33419 0.41736,-0.5956 0.66244,-0.78571 0.24358,-0.19012 0.47677,-0.28666 0.71145,-0.28666 0.20347,0 0.41142,0.0415 0.62381,0.12183 0.20941,0.0862 0.4025,0.19011 0.57479,0.32082 0.17081,0.12625 0.30894,0.27033 0.41291,0.42925 0.0996,0.16041 0.15299,0.32378 0.15299,0.49162 0,0.19011 -0.0846,0.38914 -0.25993,0.59263 -0.17081,0.20793 -0.38024,0.39507 -0.62085,0.56588 -0.24506,0.17378 -0.48865,0.31488 -0.72927,0.42182 -0.24506,0.107 -0.43667,0.16487 -0.57926,0.16487 -0.0772,0 -0.14251,-0.0357 -0.20199,-0.10699 -0.0565,-0.0698 -0.0846,-0.15596 -0.0846,-0.25993 0,-0.17674 0.0772,-0.32082 0.23913,-0.42182 0.16041,-0.101 0.33715,-0.19308 0.52876,-0.27626 0.19011,-0.0832 0.36685,-0.18566 0.52578,-0.30152 0.1619,-0.11284 0.24211,-0.27328 0.24211,-0.47677 0,-0.0252 -0.0342,-0.0906 -0.095,-0.19308 -0.0669,-0.101 -0.23764,-0.15447 -0.51985,-0.15447 -0.12626,0 -0.27477,0.0743 -0.44409,0.21983 -0.16339,0.15 -0.32677,0.34755 -0.47677,0.59559 -0.15448,0.24805 -0.28072,0.54361 -0.38617,0.88374 -0.0996,0.34012 -0.15151,0.70699 -0.15151,1.10059 0,0.33715 0.0609,0.6342 0.18121,0.90452 0.12026,0.27032 0.27923,0.49608 0.47082,0.68174 0.19161,0.18417 0.4144,0.33121 0.66987,0.42925 0.25694,0.10243 0.51984,0.15446 0.78718,0.15446 0.19013,0 0.40104,-0.0445 0.62383,-0.12469 0.2213,-0.0862 0.43369,-0.17377 0.63272,-0.26734 0.19902,-0.0996 0.3728,-0.18863 0.51836,-0.27182 0.14705,-0.0832 0.24211,-0.12325 0.27924,-0.12325 0.0401,0 0.0802,0.0163 0.12469,0.0579 0.0475,0.0401 0.0743,0.0817 0.0876,0.11741"
         id="path64"
         inkscape:connector-curvature="0"
         style="fill:#000000;fill-opacity:1;stroke-width:1.48527217" /><path
         d="m 313.0532,152.13544 c 0,0.092 -0.0327,0.16487 -0.11141,0.21982 -0.0772,0.0579 -0.16784,0.10543 -0.26885,0.14704 -0.104,0.0357 -0.20644,0.0669 -0.30893,0.0862 -0.10243,0.0178 -0.18714,0.0282 -0.24953,0.0282 -0.19159,0 -0.31785,-0.0128 -0.38468,-0.0371 -0.0624,-0.0253 -0.11285,-0.0387 -0.15448,-0.0387 -0.32081,0 -0.57479,0.0282 -0.7649,0.0772 -0.19309,0.0505 -0.3431,0.13368 -0.4545,0.24953 -0.10985,0.11442 -0.17823,0.25843 -0.21091,0.43519 -0.0312,0.16783 -0.0475,0.37873 -0.0475,0.62083 0,0.40845 0.0164,0.73373 0.0475,0.98028 0.0312,0.24211 0.0653,0.43815 0.095,0.59411 0.0327,0.15299 0.0623,0.27478 0.0966,0.3535 0.0297,0.0832 0.0461,0.16189 0.0461,0.24061 0,0.10101 -0.0549,0.20943 -0.16338,0.32825 -0.10699,0.11285 -0.20496,0.17081 -0.29556,0.17081 -0.15447,0 -0.2926,-0.1381 -0.4129,-0.41291 -0.12184,-0.27477 -0.22428,-0.60154 -0.30598,-0.97731 -0.0862,-0.37875 -0.15149,-0.75303 -0.202,-1.12287 -0.0519,-0.3728 -0.0772,-0.65351 -0.0772,-0.84364 0,-0.22129 0.0193,-0.42775 0.0565,-0.62678 0.0371,-0.19902 0.092,-0.36983 0.15446,-0.51687 0.0623,-0.15001 0.13367,-0.26586 0.21091,-0.35498 0.0757,-0.0892 0.15299,-0.13667 0.22874,-0.13667 0.0639,0 0.11584,0.0252 0.15446,0.0698 0.0357,0.0431 0.0713,0.095 0.092,0.15447 0.0267,0.0549 0.0579,0.10842 0.0892,0.15298 0.0312,0.0461 0.0743,0.0669 0.12468,0.0669 0.11442,0 0.30152,-0.0579 0.55846,-0.1708 0.2525,-0.11584 0.56738,-0.17081 0.94168,-0.17081 0.34308,0 0.60301,0.009 0.77382,0.0283 0.17229,0.0163 0.34013,0.0609 0.50796,0.12326 0.0401,0.0114 0.0876,0.0417 0.14407,0.0862 0.0623,0.0401 0.0906,0.10842 0.0906,0.19604"
         id="path66"
         inkscape:connector-curvature="0"
         style="fill:#000000;fill-opacity:1;stroke-width:1.48527217" /><path
         d="m 324.87895,152.13544 c 0,0.092 -0.0342,0.16487 -0.11285,0.21982 -0.0772,0.0579 -0.16783,0.10543 -0.26883,0.14704 -0.104,0.0357 -0.20646,0.0669 -0.30893,0.0862 -0.10243,0.0178 -0.18566,0.0282 -0.24805,0.0282 -0.19457,0 -0.31933,-0.0128 -0.38468,-0.0371 -0.0639,-0.0253 -0.11441,-0.0387 -0.15447,-0.0387 -0.32082,0 -0.57628,0.0282 -0.76641,0.0772 -0.19307,0.0505 -0.3431,0.13368 -0.45449,0.24953 -0.10984,0.11442 -0.17822,0.25843 -0.21091,0.43519 -0.0312,0.16783 -0.0491,0.37873 -0.0491,0.62083 0,0.40845 0.0178,0.73373 0.0491,0.98028 0.0312,0.24211 0.0653,0.43815 0.095,0.59411 0.0327,0.15299 0.0639,0.27478 0.0966,0.3535 0.0312,0.0832 0.0461,0.16189 0.0461,0.24061 0,0.10101 -0.0519,0.20943 -0.16338,0.32825 -0.10699,0.11285 -0.20497,0.17081 -0.29558,0.17081 -0.15446,0 -0.29259,-0.1381 -0.4129,-0.41291 -0.12026,-0.27477 -0.22428,-0.60154 -0.30596,-0.97731 -0.0846,-0.37875 -0.1515,-0.75303 -0.202,-1.12287 -0.0505,-0.3728 -0.0772,-0.65351 -0.0772,-0.84364 0,-0.22129 0.0193,-0.42775 0.0565,-0.62678 0.0387,-0.19902 0.092,-0.36983 0.15595,-0.51687 0.0623,-0.15001 0.13368,-0.26586 0.20943,-0.35498 0.0757,-0.0892 0.15297,-0.13667 0.22873,-0.13667 0.0653,0 0.11584,0.0252 0.15447,0.0698 0.0357,0.0431 0.0713,0.095 0.092,0.15447 0.0267,0.0549 0.0579,0.10842 0.0892,0.15298 0.0327,0.0461 0.0743,0.0669 0.12469,0.0669 0.11441,0 0.30151,-0.0579 0.55697,-0.1708 0.25546,-0.11584 0.56886,-0.17081 0.94315,-0.17081 0.34458,0 0.60302,0.009 0.77383,0.0283 0.17229,0.0163 0.34012,0.0609 0.50796,0.12326 0.0401,0.0114 0.0876,0.0417 0.14407,0.0862 0.0623,0.0401 0.092,0.10842 0.092,0.19604"
         id="path68"
         inkscape:connector-curvature="0"
         style="fill:#000000;fill-opacity:1;stroke-width:1.48527217" /><path
         d="m 341.28972,153.99797 c 0,0.22873 -0.104,0.51688 -0.31488,0.85255 -0.2124,0.34013 -0.49757,0.66838 -0.85404,0.99067 -0.35795,0.32082 -0.77531,0.58966 -1.24911,0.81543 -0.47381,0.22279 -0.96395,0.33715 -1.47784,0.33715 -0.23022,0 -0.4738,-0.0387 -0.72778,-0.11584 -0.25845,-0.0787 -0.50649,-0.18863 -0.74859,-0.33716 -0.24358,-0.14704 -0.4634,-0.32676 -0.65351,-0.53767 -0.19161,-0.21091 -0.3327,-0.45004 -0.42034,-0.72035 -0.0788,0.0802 -0.17081,0.20794 -0.27923,0.38617 -0.10842,0.17972 -0.22724,0.3624 -0.35498,0.54657 -0.12925,0.18566 -0.26883,0.34459 -0.42034,0.47976 -0.15446,0.1351 -0.31486,0.20199 -0.47825,0.20199 -0.16931,0 -0.30745,-0.0862 -0.41439,-0.25696 -0.10543,-0.17674 -0.19457,-0.36685 -0.25993,-0.57925 -0.0623,-0.20794 -0.10842,-0.40845 -0.13367,-0.60451 -0.0283,-0.19011 -0.0387,-0.29853 -0.0387,-0.32676 0,-0.15149 0.0461,-0.44409 0.1351,-0.87184 0.0892,-0.42777 0.22278,-0.87186 0.4025,-1.33527 0.18269,-0.46043 0.40549,-0.86889 0.68173,-1.22684 0.27627,-0.35795 0.5971,-0.53766 0.97138,-0.53766 0.13967,0 0.23021,0.0609 0.27627,0.1812 0.0461,0.12183 0.0669,0.24359 0.0669,0.35646 v 0.57778 c 0.0669,0.0491 0.13225,0.0846 0.20348,0.107 0.0698,0.0163 0.13367,0.0431 0.19309,0.0742 0.0579,0.0312 0.10101,0.0802 0.13225,0.14407 0.0327,0.0639 0.0491,0.16488 0.0491,0.30895 0,0.0892 -0.006,0.16782 -0.0193,0.23764 -0.0128,0.0683 -0.0208,0.1381 -0.0208,0.202 0,0.33418 0.0267,0.65798 0.0772,0.97879 0.0519,0.32379 0.15447,0.6045 0.30893,0.85551 0.15299,0.24805 0.36093,0.45302 0.63273,0.61194 0.26734,0.15893 0.62827,0.24062 1.07683,0.24062 0.56143,0 1.03672,-0.11584 1.42733,-0.35647 0.39212,-0.23468 0.71739,-0.49609 0.98177,-0.78572 0.25993,-0.28665 0.46935,-0.54954 0.62233,-0.78274 0.15299,-0.24061 0.28073,-0.35943 0.38618,-0.35943 0.15594,-0.003 0.24061,0.0832 0.24061,0.24804 m -6.7372,-0.84364 c 0,-0.0519 -0.0114,-0.098 -0.0357,-0.14704 -0.0267,-0.0401 -0.0401,-0.0862 -0.0401,-0.12325 0,-0.0491 0.0148,-0.0936 0.0401,-0.1351 0.0252,-0.0357 0.0357,-0.0892 0.0357,-0.15299 0,-0.0387 -0.0114,-0.0669 -0.0357,-0.0862 -0.0267,-0.0193 -0.0401,-0.0417 -0.0401,-0.0669 -0.11442,0.0252 -0.2317,0.13667 -0.35349,0.32675 -0.12183,0.19013 -0.23764,0.41589 -0.3431,0.67283 -0.10984,0.25398 -0.19457,0.51391 -0.25992,0.77382 -0.0639,0.26142 -0.098,0.47976 -0.098,0.6461 0,0.0892 0.0283,0.23764 0.0802,0.44114 0.0491,0.20792 0.10543,0.34011 0.1723,0.4025 0.21536,-0.45004 0.41883,-0.88671 0.60152,-1.30556 0.18418,-0.42032 0.27627,-0.83769 0.27627,-1.24614"
         id="path70"
         inkscape:connector-curvature="0"
         style="fill:#000000;fill-opacity:1;stroke-width:1.48527217" /><path
         d="m 353.03822,155.63028 c 0,0.0772 -0.0282,0.15448 -0.0788,0.23171 -0.0505,0.0743 -0.10984,0.14556 -0.17972,0.20943 -0.0713,0.0639 -0.15149,0.11884 -0.23169,0.16189 -0.0832,0.0445 -0.15596,0.0668 -0.21983,0.0668 -0.21685,0 -0.49608,-0.0431 -0.83472,-0.14408 -0.34014,-0.092 -0.6149,-0.24209 -0.81839,-0.45003 -0.21536,-0.21685 -0.40845,-0.47678 -0.5748,-0.77532 -0.16487,-0.30299 -0.3535,-0.74412 -0.55697,-1.33377 -0.14109,0.56291 -0.303,1.11989 -0.48718,1.66945 -0.18862,0.54806 -0.4827,1.05602 -0.89562,1.51645 -0.0253,0.0223 -0.0623,0.0357 -0.11441,0.0357 -0.0906,0 -0.18566,-0.0415 -0.28667,-0.1351 -0.101,-0.0862 -0.15447,-0.17676 -0.15447,-0.26884 0,-0.0892 -0.01,-0.29557 -0.0283,-0.62084 -0.0208,-0.32824 -0.0431,-0.69363 -0.0698,-1.09465 -0.0282,-0.4025 -0.0475,-0.81542 -0.0653,-1.23129 -0.0222,-0.4129 -0.0297,-0.756 -0.0297,-1.02335 0,-0.12625 0.006,-0.30003 0.0178,-0.51094 0.0164,-0.20942 0.0491,-0.39508 0.11584,-0.54509 0.0128,-0.0252 0.0593,-0.0757 0.14408,-0.15447 0.0862,-0.0772 0.17674,-0.11285 0.27923,-0.11285 0.0906,0 0.14109,0.0579 0.15447,0.17081 0.0114,0.11584 0.0164,0.24358 0.0164,0.38469 v 3.03144 c 0,0.0668 0.0114,0.15446 0.0312,0.2718 0.0178,0.11584 0.0445,0.19902 0.0876,0.24804 0.13967,-0.30596 0.27032,-0.6669 0.3936,-1.08425 0.12184,-0.4129 0.23763,-0.81096 0.35052,-1.18971 0.11727,-0.37725 0.23319,-0.69808 0.34607,-0.95948 0.11584,-0.26141 0.23022,-0.39508 0.34606,-0.39508 0.12769,0 0.23171,0.0283 0.30745,0.0788 0.0758,0.0519 0.1381,0.15446 0.19161,0.30893 0.0653,0.36983 0.11584,0.69808 0.15298,0.98771 0.0401,0.28665 0.0892,0.54509 0.14555,0.77382 0.0579,0.23171 0.14109,0.44856 0.25101,0.6461 0.10843,0.19903 0.25845,0.38172 0.45004,0.54361 0.18121,0.16784 0.3832,0.28963 0.60451,0.36687 0.22428,0.0787 0.41886,0.11284 0.58816,0.11284 0.0758,0 0.15596,-0.0163 0.24657,-0.0461 0.092,-0.0327 0.15595,-0.0461 0.19309,-0.0461 0.0491,0 0.0994,0.0431 0.14555,0.1351 0.0431,0.0862 0.0669,0.14407 0.0669,0.16932"
         id="path72"
         inkscape:connector-curvature="0"
         style="fill:#000000;fill-opacity:1;stroke-width:1.48527217" /><path
         d="m 365.12983,155.97487 c 0.01,0.0252 0.0163,0.0623 0.0163,0.11584 0,0.0772 -0.0565,0.19309 -0.17229,0.3431 -0.0387,0.0519 -0.12183,0.13667 -0.24656,0.25101 -0.12925,0.11284 -0.30448,0.22873 -0.52133,0.34458 -0.21686,0.11584 -0.48272,0.21833 -0.79759,0.30893 -0.31339,0.0892 -0.67878,0.13368 -1.10208,0.13368 -0.29408,0 -0.58073,-0.0668 -0.86146,-0.202 -0.28219,-0.13367 -0.53172,-0.3327 -0.75153,-0.59262 -0.21686,-0.26587 -0.39806,-0.58965 -0.53619,-0.98028 -0.14267,-0.39211 -0.21091,-0.84958 -0.21091,-1.37387 0,-0.49906 0.0639,-0.96543 0.1916,-1.4021 0.12769,-0.43222 0.29112,-0.8169 0.48866,-1.1496 0.19903,-0.33419 0.41884,-0.5956 0.66093,-0.78571 0.24508,-0.19309 0.47976,-0.28666 0.71294,-0.28666 0.20349,0 0.40993,0.0415 0.62084,0.12469 0.21388,0.0832 0.40252,0.18714 0.57926,0.31784 0.17081,0.12626 0.30893,0.27033 0.40845,0.42926 0.104,0.1604 0.15446,0.32378 0.15446,0.48865 0,0.19308 -0.0862,0.39211 -0.25843,0.5956 -0.17229,0.20347 -0.38171,0.39507 -0.62529,0.56588 -0.24063,0.17377 -0.48569,0.31191 -0.72927,0.42182 -0.24211,0.10984 -0.4337,0.16487 -0.57629,0.16487 -0.0772,0 -0.14266,-0.0357 -0.202,-0.107 -0.0565,-0.0698 -0.0876,-0.15447 -0.0876,-0.25993 0,-0.17972 0.0832,-0.32081 0.24209,-0.42181 0.15596,-0.10101 0.33717,-0.19308 0.52728,-0.27627 0.19012,-0.0862 0.36538,-0.18566 0.52727,-0.30151 0.15744,-0.11285 0.23765,-0.27328 0.23765,-0.47677 0,-0.0252 -0.0312,-0.0906 -0.0936,-0.19308 -0.0653,-0.101 -0.23913,-0.15151 -0.51984,-0.15151 -0.12768,0 -0.27478,0.0713 -0.44262,0.21686 -0.16486,0.15001 -0.32378,0.34755 -0.47974,0.5956 -0.15297,0.25101 -0.28071,0.54361 -0.38172,0.88374 -0.101,0.34012 -0.15446,0.70698 -0.15446,1.10355 0,0.33418 0.0609,0.63123 0.18418,0.90156 0.11884,0.26735 0.27625,0.49607 0.46934,0.68173 0.19309,0.18418 0.41439,0.32825 0.66986,0.42926 0.25695,0.10243 0.52133,0.15445 0.78867,0.15445 0.19011,0 0.40102,-0.0415 0.62233,-0.12768 0.22428,-0.0832 0.43519,-0.1708 0.63422,-0.26734 0.19902,-0.0966 0.36983,-0.18566 0.51984,-0.26885 0.14704,-0.0832 0.23764,-0.12625 0.27775,-0.12625 0.0371,0 0.0802,0.0193 0.12625,0.0579 0.0475,0.0431 0.0772,0.0846 0.0906,0.12026 m -1.09465,-8.1185 c 0,0.10101 -0.0788,0.24805 -0.23171,0.44114 -0.15298,0.19307 -0.33715,0.3921 -0.54509,0.59261 -0.2124,0.20794 -0.43072,0.39509 -0.65203,0.56886 -0.22428,0.17081 -0.40102,0.28963 -0.52876,0.35498 -0.10101,0.0505 -0.1916,0.0832 -0.27032,0.0936 -0.0743,0.0148 -0.13809,0.0193 -0.19012,0.0193 -0.10243,0 -0.23021,-0.0549 -0.38469,-0.17378 -0.15297,-0.11284 -0.22872,-0.22279 -0.22872,-0.32528 0,-0.0252 0.0579,-0.0609 0.1708,-0.104 0.11442,-0.0445 0.24358,-0.10542 0.38469,-0.18269 0.12768,-0.0772 0.29705,-0.20199 0.51094,-0.37577 0.20941,-0.17081 0.41884,-0.34161 0.63123,-0.51539 0.21388,-0.17377 0.40252,-0.32676 0.57629,-0.453 0.17526,-0.12769 0.29408,-0.19161 0.35497,-0.19161 0.0906,0 0.17973,0.0252 0.26736,0.0787 0.0892,0.0505 0.1351,0.10999 0.1351,0.17229"
         id="path74"
         inkscape:connector-curvature="0"
         style="fill:#000000;fill-opacity:1;stroke-width:1.48527217" /><path
         d="m 377.58532,155.97487 c 0.0128,0.0282 0.0192,0.0623 0.0192,0.11584 0,0.0772 -0.0549,0.19011 -0.17229,0.3431 -0.0357,0.0519 -0.12326,0.13667 -0.24803,0.24953 -0.12768,0.11741 -0.30151,0.23021 -0.51837,0.34606 -0.22129,0.11285 -0.48567,0.21833 -0.7961,0.30893 -0.31637,0.0892 -0.68322,0.13368 -1.10801,0.13368 -0.28963,0 -0.58074,-0.0668 -0.86146,-0.202 -0.28072,-0.13367 -0.53173,-0.3327 -0.74858,-0.59559 -0.21684,-0.2629 -0.39954,-0.58816 -0.53618,-0.97731 -0.14109,-0.39211 -0.21239,-0.84958 -0.21239,-1.3709 0,-0.50203 0.0639,-0.9684 0.19308,-1.4021 0.12483,-0.43519 0.28963,-0.81987 0.48865,-1.15257 0.19755,-0.33419 0.41737,-0.5956 0.66392,-0.78571 0.24061,-0.19012 0.47677,-0.28666 0.70996,-0.28666 0.20497,0 0.41291,0.0415 0.62382,0.12183 0.20794,0.0862 0.4025,0.19011 0.57628,0.32082 0.16932,0.12625 0.30746,0.27033 0.41291,0.42925 0.098,0.16041 0.15001,0.32378 0.15001,0.49162 0,0.19011 -0.0846,0.38914 -0.25844,0.59263 -0.16783,0.20793 -0.38171,0.39507 -0.62083,0.56588 -0.24656,0.17378 -0.49014,0.31488 -0.73077,0.42182 -0.24506,0.107 -0.43667,0.16487 -0.57776,0.16487 -0.0788,0 -0.14408,-0.0357 -0.20201,-0.10699 -0.0579,-0.0698 -0.0832,-0.15596 -0.0832,-0.25993 0,-0.17674 0.0772,-0.32082 0.23764,-0.42182 0.16041,-0.101 0.33717,-0.19308 0.52579,-0.27626 0.1916,-0.0832 0.36984,-0.18566 0.52579,-0.30152 0.1619,-0.11284 0.24358,-0.27328 0.24358,-0.47677 0,-0.0252 -0.0341,-0.0906 -0.0966,-0.19308 -0.0669,-0.101 -0.23616,-0.15447 -0.51837,-0.15447 -0.12768,0 -0.27625,0.0743 -0.4426,0.21983 -0.16338,0.15 -0.32677,0.34755 -0.47678,0.59559 -0.15447,0.24805 -0.28071,0.54361 -0.38913,0.88374 -0.098,0.34012 -0.15003,0.70699 -0.15003,1.10059 0,0.33715 0.0595,0.6342 0.18121,0.90452 0.11884,0.27032 0.27923,0.49608 0.47084,0.68174 0.19159,0.18417 0.41439,0.33121 0.67133,0.42925 0.25696,0.10243 0.51688,0.15446 0.78422,0.15446 0.1931,0 0.39955,-0.0445 0.62532,-0.12469 0.21981,-0.0862 0.43368,-0.17377 0.63123,-0.26734 0.19902,-0.0996 0.3743,-0.18863 0.51835,-0.27182 0.14706,-0.0832 0.24211,-0.12325 0.27925,-0.12325 0.0401,0 0.0817,0.0163 0.12483,0.0579 0.0505,0.0401 0.0757,0.0817 0.0906,0.11741"
         id="path76"
         inkscape:connector-curvature="0"
         style="fill:#000000;fill-opacity:1;stroke-width:1.48527217" /><path
         d="m 390.46559,155.63028 c 0,0.0772 -0.0283,0.15448 -0.0788,0.23171 -0.0475,0.0743 -0.10985,0.14556 -0.18119,0.20943 -0.0698,0.0639 -0.14854,0.11884 -0.23023,0.16189 -0.0832,0.0445 -0.15446,0.0668 -0.21981,0.0668 -0.21686,0 -0.49609,-0.0431 -0.83472,-0.14408 -0.34013,-0.092 -0.61343,-0.24209 -0.81691,-0.45003 -0.21684,-0.21685 -0.40697,-0.47678 -0.57479,-0.77532 -0.16487,-0.30299 -0.3535,-0.74412 -0.55699,-1.33377 -0.14109,0.56291 -0.30299,1.11989 -0.48864,1.66945 -0.18716,0.54806 -0.48421,1.05602 -0.89563,1.51645 -0.0238,0.0223 -0.0609,0.0357 -0.11284,0.0357 -0.0906,0 -0.18416,-0.0415 -0.28962,-0.1351 -0.0996,-0.0862 -0.15299,-0.17676 -0.15299,-0.26884 0,-0.0892 -0.009,-0.29557 -0.0283,-0.62084 -0.0208,-0.32824 -0.0401,-0.69363 -0.0683,-1.09465 -0.0283,-0.4025 -0.0461,-0.81542 -0.0653,-1.23129 -0.0208,-0.4129 -0.0297,-0.756 -0.0297,-1.02335 0,-0.12625 0.006,-0.30003 0.0164,-0.51094 0.0163,-0.20942 0.0505,-0.39508 0.11584,-0.54509 0.0128,-0.0252 0.0609,-0.0757 0.14556,-0.15447 0.0846,-0.0772 0.17526,-0.11285 0.27775,-0.11285 0.092,0 0.14252,0.0579 0.15446,0.17081 0.0128,0.11584 0.0178,0.24358 0.0178,0.38469 v 3.03144 c 0,0.0668 0.01,0.15446 0.0297,0.2718 0.0208,0.11584 0.0489,0.19902 0.0892,0.24804 0.13966,-0.30596 0.27181,-0.6669 0.3936,-1.08425 0.12326,-0.4129 0.23913,-0.81096 0.35201,-1.18971 0.11727,-0.37725 0.23021,-0.69808 0.34607,-0.95948 0.11584,-0.26141 0.23169,-0.39508 0.34607,-0.39508 0.12768,0 0.23021,0.0283 0.30596,0.0788 0.0772,0.0519 0.14109,0.15446 0.19161,0.30893 0.0669,0.36983 0.11584,0.69808 0.15446,0.98771 0.0371,0.28665 0.0862,0.54509 0.14407,0.77382 0.0565,0.23171 0.13967,0.44856 0.24953,0.6461 0.10842,0.19903 0.25993,0.38172 0.45152,0.54361 0.17972,0.16784 0.38172,0.28963 0.60451,0.36687 0.22279,0.0787 0.41884,0.11284 0.58668,0.11284 0.0757,0 0.15744,-0.0163 0.24804,-0.0461 0.0906,-0.0327 0.15446,-0.0461 0.1916,-0.0461 0.0505,0 0.0996,0.0431 0.14407,0.1351 0.0445,0.0862 0.0683,0.14407 0.0683,0.16932"
         id="path78"
         inkscape:connector-curvature="0"
         style="fill:#000000;fill-opacity:1;stroke-width:1.48527217" /><path
         d="m 402.97753,155.63028 c 0,0.0772 -0.0283,0.15448 -0.0772,0.23171 -0.0505,0.0743 -0.11142,0.14556 -0.17972,0.20943 -0.0728,0.0639 -0.15001,0.11884 -0.23318,0.16189 -0.0817,0.0445 -0.15448,0.0668 -0.21835,0.0668 -0.21684,0 -0.49755,-0.0431 -0.83472,-0.14408 -0.34012,-0.092 -0.61193,-0.24209 -0.81837,-0.45003 -0.21389,-0.21685 -0.40549,-0.47678 -0.57481,-0.77532 -0.16486,-0.30299 -0.352,-0.74412 -0.55698,-1.33377 -0.13966,0.56291 -0.30151,1.11989 -0.48717,1.66945 -0.18566,0.54806 -0.48419,1.05602 -0.89413,1.51645 -0.0252,0.0223 -0.0653,0.0357 -0.11284,0.0357 -0.092,0 -0.18714,-0.0415 -0.28963,-0.1351 -0.101,-0.0862 -0.15298,-0.17676 -0.15298,-0.26884 0,-0.0892 -0.01,-0.29557 -0.0297,-0.62084 -0.0208,-0.32824 -0.0401,-0.69363 -0.0669,-1.09465 -0.0282,-0.4025 -0.0491,-0.81542 -0.0683,-1.23129 -0.0208,-0.4129 -0.0297,-0.756 -0.0297,-1.02335 0,-0.12625 0.006,-0.30003 0.0193,-0.51094 0.0148,-0.20942 0.0505,-0.39508 0.11584,-0.54509 0.0114,-0.0252 0.0595,-0.0757 0.14408,-0.15447 0.0846,-0.0772 0.17526,-0.11285 0.27923,-0.11285 0.0906,0 0.14109,0.0579 0.15447,0.17081 0.0128,0.11584 0.0178,0.24358 0.0178,0.38469 v 3.03144 c 0,0.0668 0.01,0.15446 0.0312,0.2718 0.0193,0.11584 0.0461,0.19902 0.0862,0.24804 0.14266,-0.30596 0.2733,-0.6669 0.39657,-1.08425 0.11884,-0.4129 0.23765,-0.81096 0.35053,-1.18971 0.11727,-0.37725 0.2317,-0.69808 0.34607,-0.95948 0.11584,-0.26141 0.2317,-0.39508 0.34607,-0.39508 0.12625,0 0.23021,0.0283 0.30745,0.0788 0.0757,0.0519 0.13809,0.15446 0.1916,0.30893 0.0653,0.36983 0.11584,0.69808 0.15446,0.98771 0.0371,0.28665 0.0862,0.54509 0.14407,0.77382 0.0579,0.23171 0.13967,0.44856 0.24953,0.6461 0.10985,0.19903 0.25843,0.38172 0.45152,0.54361 0.17973,0.16784 0.38172,0.28963 0.60452,0.36687 0.22277,0.0787 0.42032,0.11284 0.58816,0.11284 0.0758,0 0.15595,-0.0163 0.24656,-0.0461 0.092,-0.0327 0.15446,-0.0461 0.19308,-0.0461 0.0475,0 0.098,0.0431 0.14407,0.1351 0.0401,0.0862 0.0623,0.14407 0.0623,0.16932"
         id="path80"
         inkscape:connector-curvature="0"
         style="fill:#000000;fill-opacity:1;stroke-width:1.48527217" /><path
         d="m 415.0721,155.97487 c 0.0128,0.0282 0.0193,0.0623 0.0193,0.11584 0,0.0772 -0.0579,0.19011 -0.17378,0.3431 -0.0357,0.0519 -0.12325,0.13667 -0.24804,0.24953 -0.12625,0.11741 -0.30002,0.23021 -0.51836,0.34606 -0.21981,0.11285 -0.48419,0.21833 -0.79759,0.30893 -0.31488,0.0892 -0.68025,0.13368 -1.10355,0.13368 -0.2926,0 -0.58519,-0.0668 -0.86294,-0.202 -0.28221,-0.13367 -0.53173,-0.3327 -0.74858,-0.59559 -0.21685,-0.2629 -0.39806,-0.58816 -0.53618,-0.97731 -0.14109,-0.39211 -0.21239,-0.84958 -0.21239,-1.3709 0,-0.50203 0.0639,-0.9684 0.19159,-1.4021 0.12768,-0.43519 0.29111,-0.81987 0.49014,-1.15257 0.19903,-0.3327 0.41439,-0.5956 0.66095,-0.78571 0.24358,-0.19012 0.47825,-0.28666 0.71145,-0.28666 0.20199,0 0.40993,0.0415 0.62233,0.12183 0.20942,0.0862 0.4025,0.19011 0.57627,0.32082 0.16933,0.12625 0.30895,0.27033 0.41291,0.42925 0.0996,0.16041 0.1515,0.32378 0.1515,0.49162 0,0.19011 -0.0846,0.38914 -0.25844,0.59263 -0.17081,0.20793 -0.38172,0.39507 -0.62085,0.56588 -0.24654,0.17378 -0.49014,0.31488 -0.73075,0.42182 -0.24506,0.107 -0.43667,0.16487 -0.57924,0.16487 -0.0772,0 -0.14252,-0.0357 -0.20201,-0.10699 -0.0565,-0.0698 -0.0846,-0.15596 -0.0846,-0.25993 0,-0.17674 0.0788,-0.32082 0.24061,-0.42182 0.15893,-0.101 0.33717,-0.19308 0.52579,-0.27626 0.18863,-0.0832 0.36984,-0.18566 0.52578,-0.30152 0.16191,-0.11284 0.24063,-0.27328 0.24063,-0.47677 0,-0.0252 -0.0312,-0.0906 -0.0936,-0.19308 -0.0653,-0.101 -0.23764,-0.15447 -0.51986,-0.15447 -0.12768,0 -0.27476,0.0743 -0.4426,0.21983 -0.16487,0.15 -0.32528,0.34755 -0.47826,0.59559 -0.15299,0.24805 -0.28071,0.54361 -0.38617,0.88374 -0.0996,0.34012 -0.1515,0.70699 -0.1515,1.10059 0,0.33715 0.0609,0.6342 0.18121,0.90452 0.11883,0.27032 0.27923,0.49608 0.47082,0.68174 0.19309,0.18417 0.4144,0.33121 0.67135,0.42925 0.25696,0.10243 0.51836,0.15446 0.7872,0.15446 0.18863,0 0.39954,-0.0445 0.62233,-0.12469 0.22129,-0.0862 0.43369,-0.17377 0.63271,-0.26734 0.19903,-0.0996 0.37281,-0.18863 0.51836,-0.27182 0.14706,-0.0832 0.2436,-0.12325 0.27925,-0.12325 0.0401,0 0.0817,0.0163 0.12468,0.0579 0.0505,0.0401 0.0772,0.0817 0.0922,0.11741"
         id="path82"
         inkscape:connector-curvature="0"
         style="fill:#000000;fill-opacity:1;stroke-width:1.48527217" /></g></g><g
     id="Layer_3"
     display="none"
     style="display:none"
     transform="translate(0,214)" /><g
     id="Layer_2"
     transform="translate(0,214)" /></svg>