<?xml version="1.0" encoding="UTF-8" standalone="no"?>
<!-- Generator: Adobe Illustrator 16.0.0, SVG Export Plug-In . SVG Version: 6.00 Build 0)  -->

<svg
   xmlns:dc="http://purl.org/dc/elements/1.1/"
   xmlns:cc="http://creativecommons.org/ns#"
   xmlns:rdf="http://www.w3.org/1999/02/22-rdf-syntax-ns#"
   xmlns:svg="http://www.w3.org/2000/svg"
   xmlns="http://www.w3.org/2000/svg"
   xmlns:sodipodi="http://sodipodi.sourceforge.net/DTD/sodipodi-0.dtd"
   xmlns:inkscape="http://www.inkscape.org/namespaces/inkscape"
   version="1.1"
   id="Calque_1"
   x="0px"
   y="0px"
   width="600"
   height="600"
   viewBox="295.945 345.275 600 600"
   enable-background="new 295.945 345.275 250 500"
   xml:space="preserve"
   sodipodi:docname="ilu-logo.svg"
   inkscape:version="0.92.1 r15371"><metadata
     id="metadata97"><rdf:RDF><cc:Work
         rdf:about=""><dc:format>image/svg+xml</dc:format><dc:type
           rdf:resource="http://purl.org/dc/dcmitype/StillImage" /><dc:title /></cc:Work></rdf:RDF></metadata><defs
     id="defs95" /><sodipodi:namedview
     pagecolor="#ffffff"
     bordercolor="#666666"
     borderopacity="1"
     objecttolerance="10"
     gridtolerance="10"
     guidetolerance="10"
     inkscape:pageopacity="0"
     inkscape:pageshadow="2"
     inkscape:window-width="1920"
     inkscape:window-height="1080"
     id="namedview93"
     showgrid="false"
     inkscape:zoom="1.3350176"
     inkscape:cx="399.35805"
     inkscape:cy="335.16342"
     inkscape:window-x="3840"
     inkscape:window-y="0"
     inkscape:window-maximized="0"
     inkscape:current-layer="Calque_1" /><rect
     style="fill:#000000;fill-opacity:1;stroke:none;stroke-width:1.99256539;stroke-linecap:round;stroke-linejoin:round;stroke-miterlimit:4;stroke-dasharray:none;stroke-opacity:1;paint-order:markers stroke fill"
     id="rect146"
     width="600"
     height="600.00006"
     x="295.94501"
     y="345.27496" /><g
     id="g5350"
     transform="translate(3.352744e-6,40.130224)"><rect
       style="fill:#c26a3a;fill-opacity:1;stroke-width:0.88277465"
       x="517.95319"
       y="520.6991"
       width="17.832048"
       height="42.725407"
       id="rect2" /><rect
       style="fill:#ffffff;fill-opacity:1;stroke-width:0.88277465"
       x="578.33411"
       y="405.14478"
       width="37.16481"
       height="22.245922"
       id="rect4" /><rect
       style="fill:#c26a3a;fill-opacity:1;stroke-width:0.88277465"
       x="538.16785"
       y="405.14478"
       width="37.341366"
       height="22.245922"
       id="rect6" /><polygon
       transform="matrix(0.88277463,0,0,0.88277463,218.51956,58.720173)"
       style="fill:#123da5;fill-opacity:1"
       points="316.796,468.927 316.796,392.427 336.495,392.427 336.495,420.327 359.295,420.327 359.295,469.027 "
       id="polygon8" /><rect
       style="fill:#104942;fill-opacity:1;stroke-width:0.88277465"
       x="578.33411"
       y="475.41364"
       width="37.16481"
       height="42.813686"
       id="rect10" /><rect
       style="fill:#ffffff;fill-opacity:1;stroke-width:0.88277465"
       x="538.16785"
       y="475.41364"
       width="37.341366"
       height="42.813686"
       id="rect12" /><rect
       style="fill:#35292d;fill-opacity:1;stroke-width:0.88277465"
       x="618.49945"
       y="520.6991"
       width="36.899979"
       height="42.813686"
       id="rect14" /><rect
       style="fill:#123da5;fill-opacity:1;stroke-width:0.88277465"
       x="538.16785"
       y="565.8963"
       width="37.341366"
       height="42.990242"
       id="rect16" /><rect
       style="fill:#c26a3a;fill-opacity:1;stroke-width:0.88277465"
       x="578.33411"
       y="565.8089"
       width="37.16481"
       height="60.822292"
       id="rect18" /><rect
       style="fill:#123da5;fill-opacity:1;stroke-width:0.88277465"
       x="618.58862"
       y="626.71942"
       width="36.810822"
       height="25.159077"
       id="rect20" /><rect
       style="fill:#ffffff;fill-opacity:1;stroke-width:0.88277465"
       x="517.95319"
       y="565.8089"
       width="17.832048"
       height="85.980484"
       id="rect22" /><rect
       style="fill:#104942;fill-opacity:1;stroke-width:0.88277465"
       x="538.16785"
       y="654.17285"
       width="37.341366"
       height="42.990242"
       id="rect24" /><rect
       style="fill:#104942;fill-opacity:1;stroke-width:0.88277465"
       x="657.87122"
       y="654.08545"
       width="19.77327"
       height="43.078518"
       id="rect26" /><path
       style="fill:#c26a3a;fill-opacity:1;stroke-width:0.88277465"
       d="m 578.33409,535.6171 v 27.89568 H 603.404 c 0,0 -17.47805,-6.00287 -25.06991,-27.89568 z"
       id="path28"
       inkscape:connector-curvature="0" /><path
       style="fill:#123da5;fill-opacity:1;stroke-width:0.88277465"
       d="m 694.32891,548.59477 v -27.89568 h -25.06992 c 0,0 17.47805,6.00287 25.06992,27.89568 z"
       id="path30"
       inkscape:connector-curvature="0" /><path
       style="fill:#35292d;fill-opacity:1;stroke-width:0.88277465"
       d="m 498.17903,669.26829 v 27.89568 h 25.06992 c 8.8e-4,-8.8e-4 -17.47806,-5.91547 -25.06992,-27.89568 z"
       id="path32"
       inkscape:connector-curvature="0" /><path
       style="fill:#ffffff;fill-opacity:1;stroke-width:0.88277465"
       d="m 575.50921,727.61881 v -27.89567 h -25.06992 c -8.8e-4,8.8e-4 17.47805,5.91459 25.06992,27.89567 z"
       id="path34"
       inkscape:connector-curvature="0" /><path
       style="fill:#c26a3a;fill-opacity:1;stroke-width:0.88277465"
       d="m 618.49945,669.26829 v 27.89568 h 25.06991 c 0,-8.8e-4 -17.47805,-5.91547 -25.06991,-27.89568 z"
       id="path36"
       inkscape:connector-curvature="0" /><polygon
       transform="matrix(0.88277463,0,0,0.88277463,218.51956,58.720173)"
       style="fill:#c26a3a;fill-opacity:1"
       points="407.595,720.324 407.595,674.425 448.195,674.425 "
       id="polygon38" /><path
       style="fill:#c26a3a;fill-opacity:1;stroke-width:0.88277465"
       d="m 655.39943,429.77418 v 42.99113 h -36.89998 c 0,-0.0883 0.70622,-40.07797 36.89998,-42.99113 z"
       id="path40"
       inkscape:connector-curvature="0" /><path
       style="fill:#35292d;fill-opacity:1;stroke-width:0.88277465"
       d="m 498.17903,475.41363 v 42.81369 h 37.51704 c 0,0 -0.70622,-39.90053 -37.51704,-42.81369 z"
       id="path42"
       inkscape:connector-curvature="0" /><path
       style="fill:#ffffff;fill-opacity:1;stroke-width:0.88277465"
       d="m 657.78292,608.88651 v -42.99024 h 36.54599 c 0,-0.0874 -0.70534,40.07797 -36.54599,42.99024 z"
       id="path44"
       inkscape:connector-curvature="0" /><path
       style="fill:#104942;fill-opacity:1;stroke-width:0.88277465"
       d="m 575.50921,472.67703 v -42.99024 h -37.34137 c 0,0.0874 0.70622,40.16448 37.34137,42.99024 z"
       id="path46"
       inkscape:connector-curvature="0" /><rect
       id="rect50"
       height="25.865295"
       width="4.1490407"
       y="748.09918"
       x="497.20798"
       style="fill:#ffffff;fill-opacity:1;stroke-width:0.88277465" /><polygon
       transform="matrix(0.88277463,0,0,0.88277463,218.51956,58.720173)"
       id="polygon52"
       points="352.196,809.722 352.196,810.222 334.495,810.222 334.495,780.923 339.196,780.923 339.196,809.722 "
       style="fill:#ffffff;fill-opacity:1" /><polygon
       transform="matrix(0.88277463,0,0,0.88277463,218.51956,58.720173)"
       id="polygon54"
       points="381.196,809.722 381.196,810.222 363.495,810.222 363.495,780.923 368.196,780.923 368.196,809.722 "
       style="fill:#ffffff;fill-opacity:1" /><path
       inkscape:connector-curvature="0"
       id="path56"
       d="M 562.97381,765.13585 V 748.0983 h 4.14904 v 17.92033 c 0,6.35597 1.1476,7.94497 5.4732,7.94497 5.91459,0 8.65119,-3.08971 8.65119,-9.44569 V 748.0983 h 0.44139 v 16.0665 c 0,5.91371 -2.11866,10.15191 -9.09258,10.15191 -6.53253,8.8e-4 -9.62224,-3.00143 -9.62224,-9.18086"
       style="fill:#ffffff;fill-opacity:1;stroke-width:0.88277465" /><path
       inkscape:connector-curvature="0"
       id="path58"
       d="m 610.55448,768.22556 c 0,-2.7366 -2.64833,-3.08971 -7.85581,-5.12009 l -2.20694,-0.88277 c -3.79593,-1.41244 -7.15136,-3.44194 -7.15136,-7.76842 0,-3.70765 3.26627,-6.88564 9.18086,-6.88564 5.20837,0 9.35741,2.7366 9.35741,8.2972 h -4.23732 v -6.70909 c -0.61794,-0.35311 -2.47177,-1.14761 -4.94354,-1.14761 -5.38581,0 -7.85669,2.29522 -7.85669,4.85526 0,2.55917 2.47177,3.35455 6.53253,5.03182 l 2.64832,1.05845 c 3.61938,1.41332 8.38636,2.91315 8.38636,7.85669 0,3.88332 -3.62026,7.41442 -9.62224,7.41442 -5.82631,0 -10.32758,-2.20693 -10.32758,-8.47463 h 4.23732 v 6.88564 c 0,0 1.85382,1.23588 6.17942,1.23588 5.56148,0.0909 7.67926,-2.73395 7.67926,-5.64711"
       style="fill:#ffffff;fill-opacity:1;stroke-width:0.88277465" /><polygon
       transform="matrix(0.88277463,0,0,0.88277463,218.51956,58.720173)"
       id="polygon60"
       points="463.194,781.423 453.894,781.423 453.894,780.923 477.494,780.923 477.494,781.423 468.294,781.423 468.294,810.222 463.194,810.222 "
       style="fill:#ffffff;fill-opacity:1" /><path
       inkscape:connector-curvature="0"
       id="path62"
       d="m 654.16266,773.9636 h -4.14904 v -25.8653 c 0,0 4.2382,-0.44138 7.32791,-0.44138 5.38493,0 10.06275,1.23588 10.06275,6.88564 0,4.41387 -4.32471,6.17942 -6.79736,6.17942 v 0.0892 c 6.00286,0.97105 7.50358,6.70909 7.50358,13.15246 h -4.50215 c 0,-10.5933 -2.56005,-12.97679 -6.35598,-12.97679 h -3.08971 z m 3.17887,-25.86441 c -1.9421,0 -3.17887,0.0892 -3.17887,0.0892 v 12.35796 h 3.08971 c 3.97249,0 5.8272,-2.55917 5.8272,-6.00287 0,-4.06076 -1.76555,-6.44425 -5.73804,-6.44425"
       style="fill:#ffffff;fill-opacity:1;stroke-width:0.88277465" /><polygon
       transform="matrix(0.88277463,0,0,0.88277463,218.51956,58.720173)"
       id="polygon64"
       points="526.393,781.423 526.393,794.123 538.493,794.123 538.493,794.623 526.393,794.623 526.393,809.722 539.393,809.722 539.393,810.222 521.694,810.222 521.694,780.923 539.393,780.923 539.393,781.423 "
       style="fill:#ffffff;fill-opacity:1" /><g
       id="g966"
       transform="matrix(1.1034683,0,0,1.1034683,110.28737,-223.4223)"
       style="fill:#ffffff;fill-opacity:1"><path
         style="fill:#ffffff;fill-opacity:1;stroke-width:1.29607284"
         d="m 390.28654,929.27194 h -4.53625 l -0.90725,2.59214 H 384.195 l 3.4994,-9.72054 h 0.77894 l 3.4981,9.72054 h -0.64804 z m -0.25921,-0.51973 -2.07372,-5.83233 -2.07372,5.83233 z"
         id="path66"
         inkscape:connector-curvature="0" /><path
         style="fill:#ffffff;fill-opacity:1;stroke-width:1.29607284"
         d="m 394.56358,924.9936 h 0.51843 l 0.12961,1.29607 c 0.39012,-0.77764 1.16646,-1.55399 2.20332,-1.55399 0.90725,0 1.8145,0.51713 2.07502,1.6849 0.38882,-0.90726 1.29477,-1.6849 2.33293,-1.6849 1.29607,0 2.33293,1.03686 2.33293,2.72175 v 4.40665 h -0.51843 v -4.40665 c 0,-1.42568 -0.77765,-2.20332 -1.6849,-2.20332 -1.16646,0 -2.20332,1.03686 -2.20332,2.85136 v 3.75861 h -0.51713 v -4.40665 c 0,-1.42568 -0.90725,-2.20332 -1.81451,-2.20332 -1.16516,0 -2.20332,0.90725 -2.20332,2.98097 v 3.49939 h -0.51713 v -6.73957 h -0.1335 z"
         id="path68"
         inkscape:connector-curvature="0" /><path
         style="fill:#ffffff;fill-opacity:1;stroke-width:1.29607284"
         d="m 407.52431,929.14103 v -4.14743 h 0.51843 v 4.14743 c 0,1.55529 0.90725,2.33293 2.07372,2.33293 1.29607,0 2.33293,-0.90595 2.33293,-2.98096 v -3.4994 h 0.51843 v 6.87048 h -0.51843 l -0.12961,-1.29607 c -0.25921,0.77764 -1.03686,1.55399 -2.33293,1.55399 -1.6849,-0.12961 -2.46254,-1.42568 -2.46254,-2.98097"
         id="path70"
         inkscape:connector-curvature="0" /><path
         style="fill:#ffffff;fill-opacity:1;stroke-width:1.29607284"
         d="m 415.94878,930.17789 0.51843,-0.12961 c 0.25922,0.90725 0.77765,1.55529 1.81321,1.55529 1.03815,0 1.68619,-0.64804 1.68619,-1.42698 0,-0.51713 -0.25921,-1.16516 -1.42698,-1.55399 l -0.77764,-0.25921 c -1.03686,-0.38882 -1.42698,-1.03686 -1.42698,-1.6849 0,-1.03685 0.77894,-1.68489 1.81451,-1.68489 0.90725,0 1.42568,0.51713 1.8145,1.29607 l -0.51843,0.25792 c -0.25922,-0.77764 -0.77765,-1.03686 -1.42568,-1.03686 -0.64804,0 -1.16647,0.51843 -1.16647,1.16647 0,0.51713 0.38882,0.90725 1.29608,1.29607 l 0.77764,0.25922 c 1.03815,0.38882 1.42698,1.03685 1.42698,1.9441 0,1.03686 -0.77894,1.94411 -2.20333,1.94411 -1.16646,-0.12831 -1.8145,-0.77634 -2.20203,-1.94281"
         id="path72"
         inkscape:connector-curvature="0" /><path
         style="fill:#ffffff;fill-opacity:1;stroke-width:1.29607284"
         d="m 426.31737,931.99239 c -2.20333,0 -3.36979,-1.55528 -3.36979,-3.49939 0,-2.20333 1.29607,-3.62901 3.24018,-3.62901 2.07372,0 3.10928,1.55529 3.10928,3.4994 0,0.12961 0,0.12961 0,0.25921 h -5.83233 c 0,2.07372 1.29607,2.98097 2.85136,2.98097 1.29607,0 2.07372,-0.64804 2.33293,-1.55529 l 0.51843,0.12961 c -0.25792,0.90725 -1.16646,1.8145 -2.85006,1.8145 m -2.72176,-3.88822 h 5.18429 c -0.1309,-1.8145 -1.16646,-2.72175 -2.59214,-2.72175 -1.29607,10e-4 -2.46254,0.90725 -2.59215,2.72175"
         id="path74"
         inkscape:connector-curvature="0" /><rect
         style="fill:#ffffff;fill-opacity:1;stroke-width:1.29607284"
         x="432.27802"
         y="928.10413"
         width="4.0191221"
         height="0.51842916"
         id="rect76" /><path
         style="fill:#ffffff;fill-opacity:1;stroke-width:1.29607284"
         d="m 439.40641,927.06732 c 0,-2.98097 1.94411,-5.05469 4.66715,-5.05469 1.94411,0 3.24019,1.03686 3.88822,2.20333 l -0.51843,0.38882 c -0.64803,-1.03686 -1.68489,-1.94411 -3.36979,-1.94411 -2.33422,0 -4.14743,1.8145 -4.14743,4.40665 0,2.59214 1.81321,4.40535 4.14743,4.40535 2.20203,0 3.62901,-1.6849 3.4981,-3.75732 h -3.10927 v -0.51843 h 3.75731 v 4.79547 h -0.51713 l -0.13091,-2.07371 c -0.64803,1.42568 -1.9441,2.20202 -3.4981,2.20202 -2.72304,-0.12831 -4.66715,-2.33163 -4.66715,-5.05338"
         id="path78"
         inkscape:connector-curvature="0" /><path
         style="fill:#ffffff;fill-opacity:1;stroke-width:1.29607284"
         d="m 451.7191,929.14103 v -4.14743 h 0.51843 v 4.14743 c 0,1.55529 0.90725,2.33293 2.07371,2.33293 1.29608,0 2.33293,-0.90595 2.33293,-2.98096 v -3.4994 h 0.51843 v 6.87048 h -0.51843 l -0.1296,-1.29607 c -0.25922,0.77764 -1.03686,1.55399 -2.33293,1.55399 -1.6836,-0.12961 -2.46254,-1.42568 -2.46254,-2.98097"
         id="path80"
         inkscape:connector-curvature="0" /><path
         style="fill:#ffffff;fill-opacity:1;stroke-width:1.29607284"
         d="m 463.77258,931.99239 c -2.20203,0 -3.36979,-1.55528 -3.36979,-3.49939 0,-2.20333 1.29607,-3.62901 3.24018,-3.62901 2.07371,0 3.10928,1.55529 3.10928,3.4994 0,0.12961 0,0.12961 0,0.25921 h -5.83104 c 0,2.07372 1.29608,2.98097 2.85007,2.98097 1.29607,0 2.07501,-0.64804 2.33293,-1.55529 l 0.51843,0.12961 c -0.25792,0.90725 -1.16517,1.8145 -2.85006,1.8145 m -2.72176,-3.88822 h 5.18429 c -0.1309,-1.8145 -1.16646,-2.72175 -2.59214,-2.72175 -1.42568,0 -2.46254,0.90725 -2.59215,2.72175"
         id="path82"
         inkscape:connector-curvature="0" /><path
         style="fill:#ffffff;fill-opacity:1;stroke-width:1.29607284"
         d="m 469.86412,929.14103 v -4.14743 h 0.51843 v 4.14743 c 0,1.55529 0.90595,2.33293 2.07371,2.33293 1.29608,0 2.33293,-0.90595 2.33293,-2.98096 v -3.4994 h 0.51843 v 6.87048 h -0.51843 l -0.1296,-1.29607 c -0.25922,0.77764 -1.03686,1.55399 -2.33293,1.55399 -1.6849,-0.12961 -2.46254,-1.42568 -2.46254,-2.98097"
         id="path84"
         inkscape:connector-curvature="0" /><rect
         style="fill:#ffffff;fill-opacity:1;stroke-width:1.29607284"
         x="479.19583"
         y="922.01263"
         width="0.51713306"
         height="9.851449"
         id="rect86" /><path
         style="fill:#ffffff;fill-opacity:1;stroke-width:1.29607284"
         d="m 486.32424,931.99239 c -2.20332,0 -3.37108,-1.55528 -3.37108,-3.49939 0,-2.20333 1.29607,-3.62901 3.24018,-3.62901 2.07501,0 3.11057,1.55529 3.11057,3.4994 0,0.12961 0,0.12961 0,0.25921 h -5.83232 c 0,2.07372 1.29607,2.98097 2.85136,2.98097 1.29607,0 2.07371,-0.64804 2.33293,-1.55529 l 0.51713,0.12961 c -0.25662,0.90725 -1.16387,1.8145 -2.84877,1.8145 m -2.72175,-3.88822 h 5.18429 c -0.12961,-1.8145 -1.16517,-2.72175 -2.59215,-2.72175 -1.42568,10e-4 -2.46253,0.90725 -2.59214,2.72175"
         id="path88"
         inkscape:connector-curvature="0" /><path
         style="fill:#ffffff;fill-opacity:1;stroke-width:1.29607284"
         d="m 491.63814,930.17789 0.51843,-0.12961 c 0.25792,0.90725 0.77764,1.55529 1.81321,1.55529 1.03556,0 1.68489,-0.64804 1.68489,-1.42698 0,-0.51713 -0.25792,-1.16516 -1.42568,-1.55399 l -0.77764,-0.25921 c -1.03816,-0.38882 -1.42698,-1.03686 -1.42698,-1.6849 0,-1.03685 0.77894,-1.68489 1.8145,-1.68489 0.90725,0 1.42568,0.51713 1.81321,1.29607 l -0.51713,0.25792 c -0.25922,-0.77764 -0.77894,-1.03686 -1.42698,-1.03686 -0.64804,0 -1.16517,0.51843 -1.16517,1.16647 0,0.51713 0.38882,0.90725 1.29607,1.29607 l 0.77765,0.25922 c 1.03685,0.38882 1.42697,1.03685 1.42697,1.9441 0,1.03686 -0.77894,1.94411 -2.20332,1.94411 -1.16517,-0.12831 -1.81321,-0.77634 -2.20203,-1.94281"
         id="path90"
         inkscape:connector-curvature="0" /></g></g></svg>