<?xml version="1.0" encoding="UTF-8" standalone="no"?>
<!-- Generator: Adobe Illustrator 16.0.0, SVG Export Plug-In . SVG Version: 6.00 Build 0)  -->

<svg
   xmlns:dc="http://purl.org/dc/elements/1.1/"
   xmlns:cc="http://creativecommons.org/ns#"
   xmlns:rdf="http://www.w3.org/1999/02/22-rdf-syntax-ns#"
   xmlns:svg="http://www.w3.org/2000/svg"
   xmlns="http://www.w3.org/2000/svg"
   xmlns:sodipodi="http://sodipodi.sourceforge.net/DTD/sodipodi-0.dtd"
   xmlns:inkscape="http://www.inkscape.org/namespaces/inkscape"
   version="1.1"
   id="Calque_1"
   x="0px"
   y="0px"
   width="600"
   height="600"
   viewBox="295.945 345.275 600 600"
   enable-background="new 295.945 345.275 250 500"
   xml:space="preserve"
   sodipodi:docname="ilu-logo.svg"
   inkscape:version="0.92.1 r15371"><metadata
     id="metadata97"><rdf:RDF><cc:Work
         rdf:about=""><dc:format>image/svg+xml</dc:format><dc:type
           rdf:resource="http://purl.org/dc/dcmitype/StillImage" /><dc:title /></cc:Work></rdf:RDF></metadata><defs
     id="defs95" /><sodipodi:namedview
     pagecolor="#ffffff"
     bordercolor="#666666"
     borderopacity="1"
     objecttolerance="10"
     gridtolerance="10"
     guidetolerance="10"
     inkscape:pageopacity="0"
     inkscape:pageshadow="2"
     inkscape:window-width="938"
     inkscape:window-height="1024"
     id="namedview93"
     showgrid="false"
     inkscape:zoom="0.6675088"
     inkscape:cx="-105.95134"
     inkscape:cy="226.43085"
     inkscape:window-x="2886"
     inkscape:window-y="40"
     inkscape:window-maximized="0"
     inkscape:current-layer="Calque_1" /><rect
     style="fill:#35292d;fill-opacity:1;stroke:none;stroke-width:1.99256539;stroke-linecap:round;stroke-linejoin:round;stroke-miterlimit:4;stroke-dasharray:none;stroke-opacity:1;paint-order:markers stroke fill"
     id="rect146"
     width="600"
     height="600.00006"
     x="295.94501"
     y="345.27496" /><g
     id="g144"
     transform="matrix(0.89406659,0,0,0.89406659,213.69174,8.4541666)"
     style="fill:#ffffff;fill-opacity:1"><g
       transform="translate(0,100)"
       id="g48"
       style="fill:#ffffff;fill-opacity:1"><rect
         id="rect2"
         height="48.398998"
         width="20.200001"
         y="523.32599"
         x="339.19601"
         style="fill:#ffffff;fill-opacity:1" /><rect
         id="rect4"
         height="25.200001"
         width="42.099998"
         y="392.427"
         x="407.595"
         style="fill:#ffffff;fill-opacity:1" /><rect
         id="rect6"
         height="25.200001"
         width="42.299999"
         y="392.427"
         x="362.095"
         style="fill:#ffffff;fill-opacity:1" /><polygon
         id="polygon8"
         points="359.295,420.327 359.295,469.027 316.796,468.927 316.796,392.427 336.495,392.427 336.495,420.327 "
         style="fill:#ffffff;fill-opacity:1" /><rect
         id="rect10"
         height="48.499001"
         width="42.099998"
         y="472.02701"
         x="407.595"
         style="fill:#ffffff;fill-opacity:1" /><rect
         id="rect12"
         height="48.499001"
         width="42.299999"
         y="472.02701"
         x="362.095"
         style="fill:#ffffff;fill-opacity:1" /><rect
         id="rect14"
         height="48.499001"
         width="41.799999"
         y="523.32599"
         x="453.09399"
         style="fill:#ffffff;fill-opacity:1" /><rect
         id="rect16"
         height="48.699001"
         width="42.299999"
         y="574.52502"
         x="362.095"
         style="fill:#ffffff;fill-opacity:1" /><rect
         id="rect18"
         height="68.899002"
         width="42.099998"
         y="574.42603"
         x="407.595"
         style="fill:#ffffff;fill-opacity:1" /><rect
         id="rect20"
         height="28.5"
         width="41.699001"
         y="643.42499"
         x="453.19501"
         style="fill:#ffffff;fill-opacity:1" /><rect
         id="rect22"
         height="97.398003"
         width="20.200001"
         y="574.42603"
         x="339.19601"
         style="fill:#ffffff;fill-opacity:1" /><rect
         id="rect24"
         height="48.699001"
         width="42.299999"
         y="674.52399"
         x="362.095"
         style="fill:#ffffff;fill-opacity:1" /><rect
         id="rect26"
         height="48.799"
         width="22.399"
         y="674.42499"
         x="497.694"
         style="fill:#ffffff;fill-opacity:1" /><path
         inkscape:connector-curvature="0"
         id="path28"
         d="m 407.595,540.225 v 31.6 h 28.399 c 0,0 -19.799,-6.8 -28.399,-31.6 z"
         style="fill:#ffffff;fill-opacity:1" /><path
         inkscape:connector-curvature="0"
         id="path30"
         d="m 538.993,554.926 v -31.6 h -28.399 c 0,0 19.799,6.8 28.399,31.6 z"
         style="fill:#ffffff;fill-opacity:1" /><path
         inkscape:connector-curvature="0"
         id="path32"
         d="m 316.796,691.624 v 31.6 h 28.399 c 0.001,-0.001 -19.799,-6.701 -28.399,-31.6 z"
         style="fill:#ffffff;fill-opacity:1" /><path
         inkscape:connector-curvature="0"
         id="path34"
         d="m 404.395,757.723 v -31.6 h -28.399 c -10e-4,10e-4 19.799,6.7 28.399,31.6 z"
         style="fill:#ffffff;fill-opacity:1" /><path
         inkscape:connector-curvature="0"
         id="path36"
         d="m 453.094,691.624 v 31.6 h 28.399 c 0,-0.001 -19.799,-6.701 -28.399,-31.6 z"
         style="fill:#ffffff;fill-opacity:1" /><polygon
         id="polygon38"
         points="407.595,674.425 448.195,674.425 407.595,720.324 "
         style="fill:#ffffff;fill-opacity:1" /><path
         inkscape:connector-curvature="0"
         id="path40"
         d="m 494.894,420.327 v 48.7 h -41.8 c 0,-0.1 0.8,-45.4 41.8,-48.7 z"
         style="fill:#ffffff;fill-opacity:1" /><path
         inkscape:connector-curvature="0"
         id="path42"
         d="m 316.796,472.027 v 48.499 h 42.499 c 0,0 -0.8,-45.199 -42.499,-48.499 z"
         style="fill:#ffffff;fill-opacity:1" /><path
         inkscape:connector-curvature="0"
         id="path44"
         d="m 497.594,623.224 v -48.699 h 41.399 c 0,-0.099 -0.799,45.4 -41.399,48.699 z"
         style="fill:#ffffff;fill-opacity:1" /><path
         inkscape:connector-curvature="0"
         id="path46"
         d="m 404.395,468.927 v -48.699 h -42.3 c 0,0.099 0.8,45.498 42.3,48.699 z"
         style="fill:#ffffff;fill-opacity:1" /></g><rect
       id="rect50"
       height="29.299999"
       width="4.6999998"
       y="880.92297"
       x="315.69601"
       style="fill:#ffffff;fill-opacity:1" /><polygon
       transform="translate(0,100)"
       id="polygon52"
       points="352.196,809.722 352.196,810.222 334.495,810.222 334.495,780.923 339.196,780.923 339.196,809.722 "
       style="fill:#ffffff;fill-opacity:1" /><polygon
       transform="translate(0,100)"
       id="polygon54"
       points="381.196,809.722 381.196,810.222 363.495,810.222 363.495,780.923 368.196,780.923 368.196,809.722 "
       style="fill:#ffffff;fill-opacity:1" /><path
       inkscape:connector-curvature="0"
       id="path56"
       d="m 390.195,900.222 v -19.3 h 4.7 v 20.3 c 0,7.2 1.3,9 6.2,9 6.7,0 9.8,-3.5 9.8,-10.7 v -18.6 h 0.5 v 18.2 c 0,6.699 -2.4,11.5 -10.3,11.5 -7.4,0.001 -10.9,-3.4 -10.9,-10.4"
       style="fill:#ffffff;fill-opacity:1" /><path
       inkscape:connector-curvature="0"
       id="path58"
       d="m 444.094,903.722 c 0,-3.1 -3,-3.5 -8.899,-5.8 l -2.5,-1 c -4.3,-1.6 -8.101,-3.899 -8.101,-8.8 0,-4.2 3.7,-7.8 10.4,-7.8 5.9,0 10.6,3.1 10.6,9.399 h -4.8 v -7.6 c -0.7,-0.4 -2.8,-1.3 -5.6,-1.3 -6.101,0 -8.9,2.6 -8.9,5.5 0,2.899 2.8,3.8 7.4,5.7 l 3,1.199 c 4.1,1.601 9.5,3.3 9.5,8.9 0,4.399 -4.101,8.399 -10.9,8.399 -6.6,0 -11.699,-2.5 -11.699,-9.6 h 4.8 v 7.8 c 0,0 2.1,1.4 7,1.4 6.3,0.103 8.699,-3.097 8.699,-6.397"
       style="fill:#ffffff;fill-opacity:1" /><polygon
       transform="translate(0,100)"
       id="polygon60"
       points="477.494,781.423 468.294,781.423 468.294,810.222 463.194,810.222 463.194,781.423 453.894,781.423 453.894,780.923 477.494,780.923 "
       style="fill:#ffffff;fill-opacity:1" /><path
       inkscape:connector-curvature="0"
       id="path62"
       d="m 493.493,910.222 h -4.7 v -29.3 c 0,0 4.801,-0.5 8.301,-0.5 6.1,0 11.399,1.4 11.399,7.8 0,5 -4.899,7 -7.7,7 v 0.101 c 6.8,1.1 8.5,7.6 8.5,14.899 h -5.1 c 0,-12 -2.9,-14.7 -7.2,-14.7 h -3.5 z m 3.601,-29.299 c -2.2,0 -3.601,0.101 -3.601,0.101 v 13.999 h 3.5 c 4.5,0 6.601,-2.899 6.601,-6.8 0,-4.6 -2,-7.3 -6.5,-7.3"
       style="fill:#ffffff;fill-opacity:1" /><polygon
       transform="translate(0,100)"
       id="polygon64"
       points="526.393,781.423 526.393,794.123 538.493,794.123 538.493,794.623 526.393,794.623 526.393,809.722 539.393,809.722 539.393,810.222 521.694,810.222 521.694,780.923 539.393,780.923 539.393,781.423 "
       style="fill:#ffffff;fill-opacity:1" /><g
       id="g966"
       transform="matrix(1.25,0,0,1.25,-122.60455,-219.60872)"
       style="fill:#ffffff;fill-opacity:1"><path
         style="fill:#ffffff;fill-opacity:1;stroke-width:1.29607284"
         d="m 390.28654,929.27194 h -4.53625 l -0.90725,2.59214 H 384.195 l 3.4994,-9.72054 h 0.77894 l 3.4981,9.72054 h -0.64804 z m -0.25921,-0.51973 -2.07372,-5.83233 -2.07372,5.83233 z"
         id="path66"
         inkscape:connector-curvature="0" /><path
         style="fill:#ffffff;fill-opacity:1;stroke-width:1.29607284"
         d="m 394.56358,924.9936 h 0.51843 l 0.12961,1.29607 c 0.39012,-0.77764 1.16646,-1.55399 2.20332,-1.55399 0.90725,0 1.8145,0.51713 2.07502,1.6849 0.38882,-0.90726 1.29477,-1.6849 2.33293,-1.6849 1.29607,0 2.33293,1.03686 2.33293,2.72175 v 4.40665 h -0.51843 v -4.40665 c 0,-1.42568 -0.77765,-2.20332 -1.6849,-2.20332 -1.16646,0 -2.20332,1.03686 -2.20332,2.85136 v 3.75861 h -0.51713 v -4.40665 c 0,-1.42568 -0.90725,-2.20332 -1.81451,-2.20332 -1.16516,0 -2.20332,0.90725 -2.20332,2.98097 v 3.49939 h -0.51713 v -6.73957 h -0.1335 z"
         id="path68"
         inkscape:connector-curvature="0" /><path
         style="fill:#ffffff;fill-opacity:1;stroke-width:1.29607284"
         d="m 407.52431,929.14103 v -4.14743 h 0.51843 v 4.14743 c 0,1.55529 0.90725,2.33293 2.07372,2.33293 1.29607,0 2.33293,-0.90595 2.33293,-2.98096 v -3.4994 h 0.51843 v 6.87048 h -0.51843 l -0.12961,-1.29607 c -0.25921,0.77764 -1.03686,1.55399 -2.33293,1.55399 -1.6849,-0.12961 -2.46254,-1.42568 -2.46254,-2.98097"
         id="path70"
         inkscape:connector-curvature="0" /><path
         style="fill:#ffffff;fill-opacity:1;stroke-width:1.29607284"
         d="m 415.94878,930.17789 0.51843,-0.12961 c 0.25922,0.90725 0.77765,1.55529 1.81321,1.55529 1.03815,0 1.68619,-0.64804 1.68619,-1.42698 0,-0.51713 -0.25921,-1.16516 -1.42698,-1.55399 l -0.77764,-0.25921 c -1.03686,-0.38882 -1.42698,-1.03686 -1.42698,-1.6849 0,-1.03685 0.77894,-1.68489 1.81451,-1.68489 0.90725,0 1.42568,0.51713 1.8145,1.29607 l -0.51843,0.25792 c -0.25922,-0.77764 -0.77765,-1.03686 -1.42568,-1.03686 -0.64804,0 -1.16647,0.51843 -1.16647,1.16647 0,0.51713 0.38882,0.90725 1.29608,1.29607 l 0.77764,0.25922 c 1.03815,0.38882 1.42698,1.03685 1.42698,1.9441 0,1.03686 -0.77894,1.94411 -2.20333,1.94411 -1.16646,-0.12831 -1.8145,-0.77634 -2.20203,-1.94281"
         id="path72"
         inkscape:connector-curvature="0" /><path
         style="fill:#ffffff;fill-opacity:1;stroke-width:1.29607284"
         d="m 426.31737,931.99239 c -2.20333,0 -3.36979,-1.55528 -3.36979,-3.49939 0,-2.20333 1.29607,-3.62901 3.24018,-3.62901 2.07372,0 3.10928,1.55529 3.10928,3.4994 0,0.12961 0,0.12961 0,0.25921 h -5.83233 c 0,2.07372 1.29607,2.98097 2.85136,2.98097 1.29607,0 2.07372,-0.64804 2.33293,-1.55529 l 0.51843,0.12961 c -0.25792,0.90725 -1.16646,1.8145 -2.85006,1.8145 m -2.72176,-3.88822 h 5.18429 c -0.1309,-1.8145 -1.16646,-2.72175 -2.59214,-2.72175 -1.29607,10e-4 -2.46254,0.90725 -2.59215,2.72175"
         id="path74"
         inkscape:connector-curvature="0" /><rect
         style="fill:#ffffff;fill-opacity:1;stroke-width:1.29607284"
         x="432.27802"
         y="928.10413"
         width="4.0191221"
         height="0.51842916"
         id="rect76" /><path
         style="fill:#ffffff;fill-opacity:1;stroke-width:1.29607284"
         d="m 439.40641,927.06732 c 0,-2.98097 1.94411,-5.05469 4.66715,-5.05469 1.94411,0 3.24019,1.03686 3.88822,2.20333 l -0.51843,0.38882 c -0.64803,-1.03686 -1.68489,-1.94411 -3.36979,-1.94411 -2.33422,0 -4.14743,1.8145 -4.14743,4.40665 0,2.59214 1.81321,4.40535 4.14743,4.40535 2.20203,0 3.62901,-1.6849 3.4981,-3.75732 h -3.10927 v -0.51843 h 3.75731 v 4.79547 h -0.51713 l -0.13091,-2.07371 c -0.64803,1.42568 -1.9441,2.20202 -3.4981,2.20202 -2.72304,-0.12831 -4.66715,-2.33163 -4.66715,-5.05338"
         id="path78"
         inkscape:connector-curvature="0" /><path
         style="fill:#ffffff;fill-opacity:1;stroke-width:1.29607284"
         d="m 451.7191,929.14103 v -4.14743 h 0.51843 v 4.14743 c 0,1.55529 0.90725,2.33293 2.07371,2.33293 1.29608,0 2.33293,-0.90595 2.33293,-2.98096 v -3.4994 h 0.51843 v 6.87048 h -0.51843 l -0.1296,-1.29607 c -0.25922,0.77764 -1.03686,1.55399 -2.33293,1.55399 -1.6836,-0.12961 -2.46254,-1.42568 -2.46254,-2.98097"
         id="path80"
         inkscape:connector-curvature="0" /><path
         style="fill:#ffffff;fill-opacity:1;stroke-width:1.29607284"
         d="m 463.77258,931.99239 c -2.20203,0 -3.36979,-1.55528 -3.36979,-3.49939 0,-2.20333 1.29607,-3.62901 3.24018,-3.62901 2.07371,0 3.10928,1.55529 3.10928,3.4994 0,0.12961 0,0.12961 0,0.25921 h -5.83104 c 0,2.07372 1.29608,2.98097 2.85007,2.98097 1.29607,0 2.07501,-0.64804 2.33293,-1.55529 l 0.51843,0.12961 c -0.25792,0.90725 -1.16517,1.8145 -2.85006,1.8145 m -2.72176,-3.88822 h 5.18429 c -0.1309,-1.8145 -1.16646,-2.72175 -2.59214,-2.72175 -1.42568,0 -2.46254,0.90725 -2.59215,2.72175"
         id="path82"
         inkscape:connector-curvature="0" /><path
         style="fill:#ffffff;fill-opacity:1;stroke-width:1.29607284"
         d="m 469.86412,929.14103 v -4.14743 h 0.51843 v 4.14743 c 0,1.55529 0.90595,2.33293 2.07371,2.33293 1.29608,0 2.33293,-0.90595 2.33293,-2.98096 v -3.4994 h 0.51843 v 6.87048 h -0.51843 l -0.1296,-1.29607 c -0.25922,0.77764 -1.03686,1.55399 -2.33293,1.55399 -1.6849,-0.12961 -2.46254,-1.42568 -2.46254,-2.98097"
         id="path84"
         inkscape:connector-curvature="0" /><rect
         style="fill:#ffffff;fill-opacity:1;stroke-width:1.29607284"
         x="479.19583"
         y="922.01263"
         width="0.51713306"
         height="9.851449"
         id="rect86" /><path
         style="fill:#ffffff;fill-opacity:1;stroke-width:1.29607284"
         d="m 486.32424,931.99239 c -2.20332,0 -3.37108,-1.55528 -3.37108,-3.49939 0,-2.20333 1.29607,-3.62901 3.24018,-3.62901 2.07501,0 3.11057,1.55529 3.11057,3.4994 0,0.12961 0,0.12961 0,0.25921 h -5.83232 c 0,2.07372 1.29607,2.98097 2.85136,2.98097 1.29607,0 2.07371,-0.64804 2.33293,-1.55529 l 0.51713,0.12961 c -0.25662,0.90725 -1.16387,1.8145 -2.84877,1.8145 m -2.72175,-3.88822 h 5.18429 c -0.12961,-1.8145 -1.16517,-2.72175 -2.59215,-2.72175 -1.42568,10e-4 -2.46253,0.90725 -2.59214,2.72175"
         id="path88"
         inkscape:connector-curvature="0" /><path
         style="fill:#ffffff;fill-opacity:1;stroke-width:1.29607284"
         d="m 491.63814,930.17789 0.51843,-0.12961 c 0.25792,0.90725 0.77764,1.55529 1.81321,1.55529 1.03556,0 1.68489,-0.64804 1.68489,-1.42698 0,-0.51713 -0.25792,-1.16516 -1.42568,-1.55399 l -0.77764,-0.25921 c -1.03816,-0.38882 -1.42698,-1.03686 -1.42698,-1.6849 0,-1.03685 0.77894,-1.68489 1.8145,-1.68489 0.90725,0 1.42568,0.51713 1.81321,1.29607 l -0.51713,0.25792 c -0.25922,-0.77764 -0.77894,-1.03686 -1.42698,-1.03686 -0.64804,0 -1.16517,0.51843 -1.16517,1.16647 0,0.51713 0.38882,0.90725 1.29607,1.29607 l 0.77765,0.25922 c 1.03685,0.38882 1.42697,1.03685 1.42697,1.9441 0,1.03686 -0.77894,1.94411 -2.20332,1.94411 -1.16517,-0.12831 -1.81321,-0.77634 -2.20203,-1.94281"
         id="path90"
         inkscape:connector-curvature="0" /></g></g></svg>