<?xml version="1.0" encoding="UTF-8" standalone="no"?>
<!-- Generator: Adobe Illustrator 16.0.0, SVG Export Plug-In . SVG Version: 6.00 Build 0)  -->

<svg
   xmlns:dc="http://purl.org/dc/elements/1.1/"
   xmlns:cc="http://creativecommons.org/ns#"
   xmlns:rdf="http://www.w3.org/1999/02/22-rdf-syntax-ns#"
   xmlns:svg="http://www.w3.org/2000/svg"
   xmlns="http://www.w3.org/2000/svg"
   xmlns:sodipodi="http://sodipodi.sourceforge.net/DTD/sodipodi-0.dtd"
   xmlns:inkscape="http://www.inkscape.org/namespaces/inkscape"
   version="1.1"
   id="Calque_1"
   x="0px"
   y="0px"
   width="196.14989"
   height="322.47403"
   viewBox="295.945 345.275 196.14989 322.47403"
   enable-background="new 295.945 345.275 250 500"
   xml:space="preserve"
   sodipodi:docname="ilu-logo (copie).svg"
   inkscape:version="0.92.1 r15371"><metadata
     id="metadata97"><rdf:RDF><cc:Work
         rdf:about=""><dc:format>image/svg+xml</dc:format><dc:type
           rdf:resource="http://purl.org/dc/dcmitype/StillImage" /><dc:title /></cc:Work></rdf:RDF></metadata><defs
     id="defs95" /><sodipodi:namedview
     pagecolor="#ffffff"
     bordercolor="#666666"
     borderopacity="1"
     objecttolerance="10"
     gridtolerance="10"
     guidetolerance="10"
     inkscape:pageopacity="0"
     inkscape:pageshadow="2"
     inkscape:window-width="1920"
     inkscape:window-height="1080"
     id="namedview93"
     showgrid="false"
     inkscape:zoom="1.3350176"
     inkscape:cx="68.286767"
     inkscape:cy="157.63745"
     inkscape:window-x="3840"
     inkscape:window-y="0"
     inkscape:window-maximized="0"
     inkscape:current-layer="Calque_1" /><rect
     id="rect2"
     height="42.725407"
     width="17.832048"
     y="460.82935"
     x="315.71915"
     style="fill:#c26a3a;fill-opacity:1;stroke-width:0.88277465" /><rect
     id="rect4"
     height="22.245922"
     width="37.16481"
     y="345.27499"
     x="376.10007"
     style="fill:#ffffff;fill-opacity:1;stroke-width:0.88277465" /><rect
     id="rect6"
     height="22.245922"
     width="37.341366"
     y="345.27499"
     x="335.93381"
     style="fill:#c26a3a;fill-opacity:1;stroke-width:0.88277465" /><polygon
     id="polygon8"
     points="359.295,420.327 359.295,469.027 316.796,468.927 316.796,392.427 336.495,392.427 336.495,420.327 "
     style="fill:#123da5;fill-opacity:1"
     transform="matrix(0.88277463,0,0,0.88277463,16.28553,-1.1495969)" /><rect
     id="rect10"
     height="42.813686"
     width="37.16481"
     y="415.54388"
     x="376.10007"
     style="fill:#104942;fill-opacity:1;stroke-width:0.88277465" /><rect
     id="rect12"
     height="42.813686"
     width="37.341366"
     y="415.54388"
     x="335.93381"
     style="fill:#ffffff;fill-opacity:1;stroke-width:0.88277465" /><rect
     id="rect14"
     height="42.813686"
     width="36.899979"
     y="460.82935"
     x="416.26541"
     style="fill:#35292d;fill-opacity:1;stroke-width:0.88277465" /><rect
     id="rect16"
     height="42.990242"
     width="37.341366"
     y="506.02655"
     x="335.93381"
     style="fill:#123da5;fill-opacity:1;stroke-width:0.88277465" /><rect
     id="rect18"
     height="60.822292"
     width="37.16481"
     y="505.93915"
     x="376.10007"
     style="fill:#c26a3a;fill-opacity:1;stroke-width:0.88277465" /><rect
     id="rect20"
     height="25.159077"
     width="36.810822"
     y="566.84967"
     x="416.35458"
     style="fill:#123da5;fill-opacity:1;stroke-width:0.88277465" /><rect
     id="rect22"
     height="85.980484"
     width="17.832048"
     y="505.93915"
     x="315.71915"
     style="fill:#ffffff;fill-opacity:1;stroke-width:0.88277465" /><rect
     id="rect24"
     height="42.990242"
     width="37.341366"
     y="594.3031"
     x="335.93381"
     style="fill:#104942;fill-opacity:1;stroke-width:0.88277465" /><rect
     id="rect26"
     height="43.078518"
     width="19.77327"
     y="594.2157"
     x="455.63718"
     style="fill:#104942;fill-opacity:1;stroke-width:0.88277465" /><path
     inkscape:connector-curvature="0"
     id="path28"
     d="m 376.10006,475.74733 v 27.89568 h 25.06991 c 0,0 -17.47805,-6.00287 -25.06991,-27.89568 z"
     style="fill:#c26a3a;fill-opacity:1;stroke-width:0.88277465" /><path
     inkscape:connector-curvature="0"
     id="path30"
     d="m 492.09488,488.725 v -27.89568 h -25.06992 c 0,0 17.47805,6.00287 25.06992,27.89568 z"
     style="fill:#123da5;fill-opacity:1;stroke-width:0.88277465" /><path
     inkscape:connector-curvature="0"
     id="path32"
     d="m 295.945,609.39852 v 27.89568 h 25.06992 c 8.8e-4,-8.8e-4 -17.47806,-5.91547 -25.06992,-27.89568 z"
     style="fill:#35292d;fill-opacity:1;stroke-width:0.88277465" /><path
     inkscape:connector-curvature="0"
     id="path34"
     d="m 373.27518,667.74904 v -27.89567 h -25.06992 c -8.8e-4,8.8e-4 17.47805,5.91459 25.06992,27.89567 z"
     style="fill:#ffffff;fill-opacity:1;stroke-width:0.88277465" /><path
     inkscape:connector-curvature="0"
     id="path36"
     d="m 416.26542,609.39852 v 27.89568 h 25.06991 c 0,-8.8e-4 -17.47805,-5.91547 -25.06991,-27.89568 z"
     style="fill:#c26a3a;fill-opacity:1;stroke-width:0.88277465" /><polygon
     id="polygon38"
     points="407.595,674.425 448.195,674.425 407.595,720.324 "
     style="fill:#c26a3a;fill-opacity:1"
     transform="matrix(0.88277463,0,0,0.88277463,16.28553,-1.1495969)" /><path
     inkscape:connector-curvature="0"
     id="path40"
     d="m 453.1654,369.90441 v 42.99113 h -36.89998 c 0,-0.0883 0.70622,-40.07797 36.89998,-42.99113 z"
     style="fill:#c26a3a;fill-opacity:1;stroke-width:0.88277465" /><path
     inkscape:connector-curvature="0"
     id="path42"
     d="m 295.945,415.54386 v 42.81369 h 37.51704 c 0,0 -0.70622,-39.90053 -37.51704,-42.81369 z"
     style="fill:#35292d;fill-opacity:1;stroke-width:0.88277465" /><path
     inkscape:connector-curvature="0"
     id="path44"
     d="M 455.54889,549.01674 V 506.0265 h 36.54599 c 0,-0.0874 -0.70534,40.07797 -36.54599,42.99024 z"
     style="fill:#ffffff;fill-opacity:1;stroke-width:0.88277465" /><path
     inkscape:connector-curvature="0"
     id="path46"
     d="m 373.27518,412.80726 v -42.99024 h -37.34137 c 0,0.0874 0.70622,40.16448 37.34137,42.99024 z"
     style="fill:#104942;fill-opacity:1;stroke-width:0.88277465" /></svg>