<?xml version="1.0" encoding="UTF-8" standalone="no"?>
<!-- Generator: Adobe Illustrator 16.0.0, SVG Export Plug-In . SVG Version: 6.00 Build 0)  -->

<svg
   xmlns:dc="http://purl.org/dc/elements/1.1/"
   xmlns:cc="http://creativecommons.org/ns#"
   xmlns:rdf="http://www.w3.org/1999/02/22-rdf-syntax-ns#"
   xmlns:svg="http://www.w3.org/2000/svg"
   xmlns="http://www.w3.org/2000/svg"
   xmlns:sodipodi="http://sodipodi.sourceforge.net/DTD/sodipodi-0.dtd"
   xmlns:inkscape="http://www.inkscape.org/namespaces/inkscape"
   version="1.1"
   id="Layer_1"
   x="0px"
   y="0px"
   width="600"
   height="600"
   viewBox="0 0 600 600"
   enable-background="new 0 0 1199 472"
   xml:space="preserve"
   sodipodi:docname="lai-logo.svg"
   inkscape:version="0.92.1 r15371"><metadata
     id="metadata119"><rdf:RDF><cc:Work
         rdf:about=""><dc:format>image/svg+xml</dc:format><dc:type
           rdf:resource="http://purl.org/dc/dcmitype/StillImage" /><dc:title /></cc:Work></rdf:RDF></metadata><defs
     id="defs117" /><sodipodi:namedview
     pagecolor="#ffffff"
     bordercolor="#666666"
     borderopacity="1"
     objecttolerance="10"
     gridtolerance="10"
     guidetolerance="10"
     inkscape:pageopacity="0"
     inkscape:pageshadow="2"
     inkscape:window-width="938"
     inkscape:window-height="1024"
     id="namedview115"
     showgrid="false"
     inkscape:zoom="0.99077514"
     inkscape:cx="266.73338"
     inkscape:cy="220.40266"
     inkscape:window-x="2886"
     inkscape:window-y="40"
     inkscape:window-maximized="0"
     inkscape:current-layer="Layer_1" /><rect
     style="fill:#fedd00;fill-opacity:1;stroke:#000000;stroke-width:2;stroke-linecap:round;stroke-linejoin:round;stroke-miterlimit:4;stroke-dasharray:none;stroke-opacity:1;paint-order:markers stroke fill"
     id="rect4596"
     width="600"
     height="600"
     x="0"
     y="0" /><g
     id="g112"
     transform="matrix(0.76331549,0,0,0.76331549,71.303046,119.98578)"
     style="fill:#000000;fill-opacity:1"><g
       id="g96"
       style="fill:#000000;fill-opacity:1"><path
         d="m 126.252,164.941 h 5.137 v 27.241 h 15.271 v 4.861 h -20.406 z"
         id="path60"
         inkscape:connector-curvature="0"
         style="fill:#000000;fill-opacity:1" /><path
         d="m 195.783,197.043 -1.929,-5.273 h -14.31 l -1.923,5.273 h -5.366 l 11.876,-32.102 h 5.136 l 11.877,32.102 z m -14.541,-10.136 h 10.918 l -5.457,-15.087 z"
         id="path62"
         inkscape:connector-curvature="0"
         style="fill:#000000;fill-opacity:1" /><path
         d="m 240.823,169.802 h -4.859 v 22.379 h 4.859 v 4.862 h -14.858 v -4.862 h 4.861 v -22.379 h -4.861 v -4.86 h 14.858 z"
         id="path64"
         inkscape:connector-curvature="0"
         style="fill:#000000;fill-opacity:1" /><path
         d="m 267.291,164.941 h 19.719 v 4.861 h -7.29 v 27.241 h -5.138 v -27.242 h -7.293 z"
         id="path66"
         inkscape:connector-curvature="0"
         style="fill:#000000;fill-opacity:1" /><path
         d="m 314.855,164.941 h 20.135 v 4.861 h -15 v 8.622 h 7.296 v 4.862 h -7.296 v 8.896 h 15.271 v 4.861 h -20.404 z"
         id="path68"
         inkscape:connector-curvature="0"
         style="fill:#000000;fill-opacity:1" /><path
         d="m 372.055,164.941 c 5.088,0 9.219,3.302 9.219,9.171 0,5.136 -3.354,8.209 -7.299,8.989 l 7.299,13.941 h -5.872 l -6.88,-13.758 h -0.734 v 13.758 h -5.137 V 164.94 h 9.404 z m -4.268,13.483 h 4.312 c 2.754,0 4.128,-1.834 4.128,-4.312 0,-2.477 -1.374,-4.311 -4.128,-4.311 h -4.312 z"
         id="path70"
         inkscape:connector-curvature="0"
         style="fill:#000000;fill-opacity:1" /><path
         d="m 422.184,169.802 h -4.861 v 22.379 h 4.861 v 4.862 h -14.859 v -4.862 h 4.86 v -22.379 h -4.86 v -4.86 h 14.859 z"
         id="path72"
         inkscape:connector-curvature="0"
         style="fill:#000000;fill-opacity:1" /><path
         d="m 449.476,164.941 h 20.136 v 4.861 h -15 v 8.622 h 7.298 v 4.862 h -7.298 v 8.896 h 15.271 v 4.861 h -20.405 z"
         id="path74"
         inkscape:connector-curvature="0"
         style="fill:#000000;fill-opacity:1" /><path
         d="m 76.165,232.207 c 5.683,0 9.799,3.804 9.799,9.938 0,6.134 -4.117,9.94 -9.799,9.94 h -5.818 v -19.878 z m -2.641,3.011 v 13.856 h 2.726 c 3.611,0 6.477,-2.471 6.477,-6.929 0,-4.458 -2.864,-6.928 -6.477,-6.928 h -2.726 z"
         id="path76"
         inkscape:connector-curvature="0"
         style="fill:#000000;fill-opacity:1" /><path
         d="m 102.742,232.207 h 12.466 v 3.011 h -9.284 v 5.338 h 4.517 v 3.007 h -4.517 v 5.51 h 9.453 v 3.009 h -12.634 z"
         id="path78"
         inkscape:connector-curvature="0"
         style="fill:#000000;fill-opacity:1" /><path
         d="m 140.081,240.157 c 2.471,0.938 4.062,2.584 4.062,5.622 0,3.691 -2.811,6.477 -6.391,6.477 -3.635,0 -6.384,-2.868 -6.384,-6.39 h 3.177 c 0,1.845 1.192,3.379 3.207,3.379 2.016,0 3.208,-1.393 3.208,-3.379 0,-2.98 -2.611,-2.98 -5.393,-4.061 -1.818,-0.708 -3.123,-2.3 -3.123,-4.487 0,-3.095 2.269,-5.279 5.222,-5.279 2.159,0 3.749,0.908 4.715,2.556 l -2.131,2.129 c -0.481,-1.08 -1.474,-1.675 -2.498,-1.675 -1.306,0 -2.184,0.88 -2.184,2.101 10e-4,1.843 1.904,2.015 4.513,3.007 z"
         id="path80"
         inkscape:connector-curvature="0"
         style="fill:#000000;fill-opacity:1" /><path
         d="m 195.053,219.982 h 5.688 l 10.184,24.764 10.18,-24.764 h 5.686 v 32.101 h -5.138 v -20.36 l -8.437,20.36 h -4.585 l -8.438,-20.36 v 20.36 h -5.136 v -32.101 z"
         id="path82"
         inkscape:connector-curvature="0"
         style="fill:#000000;fill-opacity:1" /><path
         d="m 276.604,252.083 -1.926,-5.273 h -14.309 l -1.928,5.273 h -5.362 l 11.878,-32.102 h 5.135 l 11.877,32.102 z M 262.068,241.95 h 10.91 l -5.454,-15.09 z"
         id="path84"
         inkscape:connector-curvature="0"
         style="fill:#000000;fill-opacity:1" /><path
         d="m 317.792,219.982 c 5.089,0 9.222,3.302 9.222,9.172 0,5.137 -3.349,8.208 -7.294,8.989 l 7.294,13.939 h -5.875 l -6.879,-13.756 h -0.734 v 13.756 h -5.135 v -32.101 h 9.401 z m -4.267,13.484 h 4.318 c 2.748,0 4.123,-1.835 4.123,-4.312 0,-2.479 -1.375,-4.312 -4.123,-4.312 h -4.318 z"
         id="path86"
         inkscape:connector-curvature="0"
         style="fill:#000000;fill-opacity:1" /><path
         d="m 361.412,243.557 c 4.537,4.54 11.219,4.994 15.631,0.583 2.757,-2.755 3.465,-5.998 2.854,-9.339 h 5.057 c 0.459,4.54 -0.809,9.113 -4.477,12.776 -6.418,6.424 -16.368,6.064 -22.76,-0.322 -6.384,-6.387 -6.744,-16.344 -0.322,-22.763 6.42,-6.421 16.377,-6.064 22.762,0.323 l -3.692,3.696 c -4.671,-4.667 -11.218,-4.994 -15.63,-0.583 -4.419,4.411 -3.96,11.089 0.577,15.629 z"
         id="path88"
         inkscape:connector-curvature="0"
         style="fill:#000000;fill-opacity:1" /><path
         d="m 417.097,219.982 v 13.483 h 10.872 v -13.483 h 5.136 v 32.101 h -5.136 v -13.756 h -10.872 v 13.756 h -5.139 v -32.101 z"
         id="path90"
         inkscape:connector-curvature="0"
         style="fill:#000000;fill-opacity:1" /><path
         d="m 462.006,219.982 h 20.131 v 4.862 h -14.995 v 8.621 h 7.288 v 4.862 h -7.288 v 8.896 h 15.272 v 4.861 h -20.407 z"
         id="path92"
         inkscape:connector-curvature="0"
         style="fill:#000000;fill-opacity:1" /><path
         d="m 522.318,232.824 c 3.987,1.512 6.555,4.174 6.555,9.08 0,5.961 -4.535,10.455 -10.314,10.455 -5.867,0 -10.318,-4.631 -10.318,-10.317 h 5.136 c 0,2.979 1.923,5.455 5.183,5.455 3.255,0 5.18,-2.247 5.18,-5.455 0,-4.815 -4.219,-4.815 -8.711,-6.56 -2.937,-1.146 -5.048,-3.715 -5.048,-7.245 0,-5 3.67,-8.53 8.438,-8.53 3.484,0 6.052,1.469 7.613,4.128 l -3.441,3.441 c -0.779,-1.744 -2.382,-2.706 -4.033,-2.706 -2.111,0 -3.531,1.421 -3.531,3.394 0,2.979 3.071,3.255 7.291,4.86 z"
         id="path94"
         inkscape:connector-curvature="0"
         style="fill:#000000;fill-opacity:1" /></g><g
       id="g106"
       style="fill:#000000;fill-opacity:1"><path
         d="m 273.782,305.394 h 3.275 v 0.985 h -7.808 v -0.985 h 3.375 v -15.809 l -3.545,1.105 v -1.083 l 4.703,-1.5 z"
         id="path98"
         inkscape:connector-curvature="0"
         style="fill:#000000;fill-opacity:1" /><path
         d="m 284.916,292.957 c 0,-2.857 2.045,-4.655 4.852,-4.655 2.858,0 4.778,1.773 4.778,4.655 0,1.699 -0.862,3.473 -2.463,4.162 2.093,0.738 3.103,2.389 3.103,4.58 0,3.054 -1.896,4.949 -5.418,4.949 -3.644,0 -5.417,-1.97 -5.417,-4.949 0,-2.191 0.985,-3.817 3.104,-4.58 -1.601,-0.689 -2.539,-2.463 -2.539,-4.162 z m 4.852,12.706 c 2.488,0 4.261,-1.402 4.261,-3.964 0,-2.536 -1.772,-4.062 -4.261,-4.062 -2.489,0 -4.262,1.526 -4.262,4.062 0.002,2.562 1.773,3.964 4.262,3.964 z m -0.025,-16.376 c -2.34,0 -3.669,1.454 -3.669,3.841 0,2.169 1.551,3.523 3.669,3.523 2.241,0 3.644,-1.432 3.644,-3.694 0,-2.267 -1.403,-3.67 -3.644,-3.67 z"
         id="path100"
         inkscape:connector-curvature="0"
         style="fill:#000000;fill-opacity:1" /><path
         d="m 301.542,292.957 c 0,-2.857 2.044,-4.655 4.853,-4.655 2.856,0 4.775,1.773 4.775,4.655 0,1.699 -0.86,3.473 -2.463,4.162 2.094,0.738 3.104,2.389 3.104,4.58 0,3.054 -1.896,4.949 -5.419,4.949 -3.644,0 -5.417,-1.97 -5.417,-4.949 0,-2.191 0.985,-3.817 3.104,-4.58 -1.602,-0.689 -2.537,-2.463 -2.537,-4.162 z m 4.853,12.706 c 2.484,0 4.259,-1.402 4.259,-3.964 0,-2.536 -1.774,-4.062 -4.259,-4.062 -2.488,0 -4.262,1.526 -4.262,4.062 0,2.562 1.773,3.964 4.262,3.964 z m -0.024,-16.376 c -2.342,0 -3.672,1.454 -3.672,3.841 0,2.169 1.551,3.523 3.672,3.523 2.239,0 3.643,-1.432 3.643,-3.694 0,-2.267 -1.404,-3.67 -3.643,-3.67 z"
         id="path102"
         inkscape:connector-curvature="0"
         style="fill:#000000;fill-opacity:1" /><path
         d="m 327.305,303.2 c -0.643,1.996 -2.069,3.524 -4.285,3.524 -2.117,0 -3.546,-1.43 -4.211,-3.327 -0.615,-1.745 -0.665,-4.013 -0.665,-5.884 0,-1.749 0.05,-4.039 0.591,-5.688 0.641,-1.996 2.045,-3.523 4.285,-3.523 2.143,0 3.545,1.429 4.211,3.326 0.615,1.773 0.665,4.014 0.665,5.886 0,1.724 -0.05,4.063 -0.591,5.686 z m -1.036,-10.76 c -0.417,-1.577 -1.427,-3.177 -3.249,-3.177 -1.945,0 -2.93,1.773 -3.349,3.447 -0.319,1.402 -0.367,3.35 -0.367,4.803 0,1.575 0.024,3.57 0.466,5.096 0.418,1.553 1.428,3.154 3.25,3.154 1.946,0 2.932,-1.775 3.348,-3.447 0.321,-1.38 0.369,-3.348 0.369,-4.803 10e-4,-1.575 -0.024,-3.572 -0.468,-5.073 z"
         id="path104"
         inkscape:connector-curvature="0"
         style="fill:#000000;fill-opacity:1" /></g><circle
       cx="239.64799"
       cy="297.48401"
       r="1.892"
       id="circle108"
       style="fill:#000000;fill-opacity:1" /><circle
       cx="357.12399"
       cy="297.327"
       r="1.893"
       id="circle110"
       style="fill:#000000;fill-opacity:1" /></g></svg>