<?xml version="1.0" encoding="UTF-8" standalone="no"?>
<!-- Generator: Adobe Illustrator 16.0.0, SVG Export Plug-In . SVG Version: 6.00 Build 0)  -->

<svg
   xmlns:dc="http://purl.org/dc/elements/1.1/"
   xmlns:cc="http://creativecommons.org/ns#"
   xmlns:rdf="http://www.w3.org/1999/02/22-rdf-syntax-ns#"
   xmlns:svg="http://www.w3.org/2000/svg"
   xmlns="http://www.w3.org/2000/svg"
   xmlns:sodipodi="http://sodipodi.sourceforge.net/DTD/sodipodi-0.dtd"
   xmlns:inkscape="http://www.inkscape.org/namespaces/inkscape"
   version="1.1"
   id="Layer_1"
   x="0px"
   y="0px"
   width="600"
   height="600"
   viewBox="0 0 600 600"
   enable-background="new 0 0 542 386"
   xml:space="preserve"
   sodipodi:docname="mar-logo.svg"
   inkscape:version="0.92.1 r15371"><metadata
     id="metadata62"><rdf:RDF><cc:Work
         rdf:about=""><dc:format>image/svg+xml</dc:format><dc:type
           rdf:resource="http://purl.org/dc/dcmitype/StillImage" /><dc:title /></cc:Work></rdf:RDF></metadata><defs
     id="defs60" /><sodipodi:namedview
     pagecolor="#ffffff"
     bordercolor="#666666"
     borderopacity="1"
     objecttolerance="10"
     gridtolerance="10"
     guidetolerance="10"
     inkscape:pageopacity="0"
     inkscape:pageshadow="2"
     inkscape:window-width="1920"
     inkscape:window-height="1080"
     id="namedview58"
     showgrid="false"
     inkscape:zoom="0.86464871"
     inkscape:cx="444.94296"
     inkscape:cy="227.5322"
     inkscape:window-x="3840"
     inkscape:window-y="0"
     inkscape:window-maximized="0"
     inkscape:current-layer="Layer_1_1_" /><g
     id="Layer_1_1_"
     transform="matrix(1.1109595,0,0,1.5542998,0,0.04027433)"><rect
       x="0"
       width="542"
       height="386"
       id="rect2"
       y="0"
       style="fill:#7e3232;fill-opacity:1" /></g><g
     id="Layer_3"
     display="none"
     style="display:none"
     transform="translate(0,214)" /><g
     id="Layer_2"
     transform="translate(0,214)" /><polygon
     points="108.118,236.732 108.118,235.944 112.112,233.971 112.112,206.946 108.118,204.973 108.118,204.184 121.779,204.184 121.779,204.973 117.291,206.946 117.291,234.021 128.978,234.021 132.48,225.538 133.269,225.538 133.269,236.732 "
     id="polygon7"
     style="fill:#000000;fill-opacity:1"
     transform="matrix(1.15976,0,0,1.15976,-15.390933,75.42349)" /><path
     d="m 157.41331,350.54988 c -3.73675,0 -6.69066,-1.12497 -8.86521,-3.37491 -2.17223,-2.24877 -3.26008,-5.24327 -3.26008,-8.97886 0,-4.27139 1.26645,-7.76923 3.80401,-10.49583 2.53523,-2.72659 5.47986,-4.08931 8.83621,-4.08931 3.05133,0 5.43348,1.03915 7.14992,3.11744 1.71529,2.07829 2.59206,5.06003 2.63034,8.94986 l -0.28646,0.28646 h -16.87219 c 0.0383,2.6315 0.7724,4.92898 2.20238,6.8913 1.42999,1.96463 3.91767,2.94579 7.46422,2.94579 2.17223,0 4.63208,-0.72369 7.37839,-2.17339 h 0.17048 v 0.68774 c -0.91505,1.75355 -2.26849,3.22993 -4.06032,4.43144 -1.79298,1.20035 -3.88751,1.80227 -6.29169,1.80227 m -0.51494,-24.42455 c -3.54654,0 -5.62483,2.40302 -6.23371,7.20791 h 12.18212 c -0.3804,-2.59207 -1.06698,-4.44188 -2.05857,-5.54829 -0.9916,-1.1041 -2.28821,-1.65962 -3.88984,-1.65962"
     id="path9"
     inkscape:connector-curvature="0"
     style="fill:#000000;stroke-width:1.15976;fill-opacity:1" /><path
     d="m 182.23681,350.54872 c -1.8301,0 -3.4039,-0.16237 -4.71906,-0.48594 -1.31517,-0.32242 -2.64078,-0.82923 -3.9745,-1.51581 v -6.40535 h 0.85706 l 1.8301,3.08844 c 1.25834,2.098 3.20326,3.14643 5.83476,3.14643 3.16382,0 4.74689,-1.29662 4.74689,-3.88984 0,-1.52508 -0.56364,-2.61178 -1.68745,-3.26124 -1.12496,-0.64831 -2.73587,-1.44855 -4.83272,-2.40187 -1.98319,-0.87678 -3.49783,-1.84866 -4.54742,-2.91795 -1.04842,-1.06698 -1.57263,-2.53524 -1.57263,-4.40361 0,-2.21051 0.87678,-4.07888 2.63033,-5.60512 1.75472,-1.52393 3.71935,-2.28821 5.89275,-2.28821 1.37199,0 2.66744,0.16237 3.88751,0.48594 1.22123,0.32357 2.42158,0.79212 3.60453,1.40099 v 6.34969 h -0.80023 l -1.88809,-2.97247 c -1.2595,-1.98435 -2.80198,-2.97478 -4.63324,-2.97478 -2.78342,0 -4.17514,1.18295 -4.17514,3.54654 0,1.22123 0.43839,2.16412 1.31633,2.83098 0.87562,0.66686 2.28705,1.4207 4.23197,2.25921 1.63874,0.76428 3.21137,1.62018 4.71906,2.57351 1.50537,0.95332 2.25805,2.76602 2.25805,5.43347 0,2.59439 -0.99159,4.57526 -2.97362,5.95073 -1.98203,1.36968 -3.98494,2.05626 -6.00524,2.05626"
     id="path11"
     inkscape:connector-curvature="0"
     style="fill:#000000;stroke-width:1.15976;fill-opacity:1" /><polygon
     points="238.017,236.732 225.835,236.732 225.835,235.944 229.534,234.021 229.041,209.904 217.404,236.979 215.034,236.979 203.495,210.201 202.854,234.021 206.948,235.944 206.948,236.732 195.802,236.732 195.802,235.944 199.747,233.971 200.782,206.946 196.541,204.973 196.541,204.184 206.356,204.184 217.404,229.681 228.401,204.184 237.821,204.184 237.821,204.973 233.627,206.798 234.467,233.971 238.017,235.944 "
     id="polygon13"
     style="fill:#000000;fill-opacity:1"
     transform="matrix(1.15976,0,0,1.15976,-15.390933,75.42349)" /><path
     d="m 272.37568,350.54872 c -1.8301,0 -3.34591,-0.54277 -4.54742,-1.62831 -1.20035,-1.08669 -1.79995,-2.58394 -1.79995,-4.49059 0,-1.86605 0.67614,-3.47928 2.02958,-4.83272 1.35344,-1.35344 3.70775,-2.43201 7.0641,-3.23225 l 5.43347,-1.25718 v -4.00465 c 0,-1.372 -0.50565,-2.51552 -1.51696,-3.43173 -1.01015,-0.91505 -2.18267,-1.37316 -3.51639,-1.37316 -2.51784,0 -3.77502,1.3546 -3.77502,4.06148 v 1.8301 l -0.28646,0.28531 h -3.14643 c -0.9916,0 -1.48566,-0.55321 -1.48566,-1.65846 0,-1.90781 1.04727,-3.50712 3.14527,-4.80489 1.14353,-0.72369 2.30677,-1.30589 3.48856,-1.74428 1.1818,-0.43838 2.44014,-0.65758 3.77618,-0.65758 2.2105,0 4.22153,0.46622 6.03307,1.40215 1.81039,0.93477 2.71732,2.62222 2.71732,5.06119 v 15.95714 c 0.57176,0.64831 1.60047,0.97188 3.08844,0.97188 h 2.00175 l 0.22963,0.11482 v 0.34328 c -0.45811,0.80256 -1.15512,1.51697 -2.08873,2.14556 -0.93477,0.62859 -2.06785,0.94289 -3.40273,0.94289 -2.47957,0 -4.09976,-1.18064 -4.86172,-3.54655 h -0.40012 c -0.99159,0.99159 -2.20238,1.83126 -3.63236,2.519 -1.42999,0.68426 -2.94579,1.02755 -4.54742,1.02755 m -1.14353,-7.3784 c 0,2.36475 1.39172,3.54771 4.17514,3.54771 1.60163,0 3.31691,-0.38156 5.14817,-1.14468 v -8.46509 c -4.1183,0.80023 -6.70109,1.68861 -7.75067,2.65933 -1.04843,0.97188 -1.57264,2.10612 -1.57264,3.40273"
     id="path15"
     inkscape:connector-curvature="0"
     style="fill:#000000;stroke-width:1.15976;fill-opacity:1" /><path
     d="m 294.16757,349.97579 v -0.91389 l 3.6602,-1.83126 v -17.04151 l -3.48856,-2.91912 v -0.4581 l 7.89333,-3.2021 h 0.4581 l 0.51378,4.91738 h 0.22847 c 1.33488,-2.17339 2.49812,-3.53727 3.48972,-4.08931 0.99159,-0.55321 1.98203,-0.82807 2.97478,-0.82807 0.64715,0 1.35228,0.15193 2.1154,0.45695 1.14237,0.41983 1.71529,0.95332 1.71529,1.60162 0,0.34329 -0.0754,0.68658 -0.22847,1.02987 l -1.20036,3.03161 h -0.40127 l -2.00059,-0.79907 c -0.72485,-0.26791 -1.58307,-0.40244 -2.57467,-0.40244 -1.6399,0 -2.99334,0.78168 -4.06147,2.34388 v 16.35725 l 4.17513,1.83126 v 0.91389 h -13.26881 z"
     id="path17"
     inkscape:connector-curvature="0"
     style="fill:#000000;stroke-width:1.15976;fill-opacity:1" /><path
     d="m 329.05431,350.54872 c -3.73791,0 -6.69182,-1.12381 -8.86637,-3.37259 -2.17223,-2.24993 -3.25892,-5.24327 -3.25892,-8.97886 0,-4.27255 1.26645,-7.77039 3.80169,-10.49699 2.53756,-2.72659 5.48219,-4.08931 8.83621,-4.08931 3.05133,0 5.4358,1.03915 7.14992,3.11744 1.71645,2.07829 2.59323,5.06119 2.6315,8.95218 l -0.2853,0.28646 h -16.87335 c 0.0371,2.63034 0.7724,4.92898 2.20122,6.89014 1.43115,1.96463 3.91767,2.94579 7.46538,2.94579 2.17223,0 4.63208,-0.72369 7.37723,-2.17339 h 0.17165 v 0.68658 c -0.91505,1.75587 -2.26849,3.23109 -4.06032,4.4326 -1.79067,1.19919 -3.88752,1.79995 -6.29054,1.79995 m -0.51378,-24.42339 c -3.5477,0 -5.62599,2.40418 -6.23371,7.20791 h 12.18212 c -0.38156,-2.59207 -1.06698,-4.44188 -2.05857,-5.54829 -0.9916,-1.10525 -2.28821,-1.65962 -3.88984,-1.65962 m 0.51378,-6.46102 4.91854,-10.12355 h 5.09135 c 0,0.60772 -0.13338,1.20151 -0.40128,1.77096 -0.26559,0.57176 -0.79908,1.20151 -1.60163,1.88808 l -7.20675,6.46335 h -0.80023 z"
     id="path19"
     inkscape:connector-curvature="0"
     style="fill:#000000;stroke-width:1.15976;fill-opacity:1" /><path
     d="m 356.67979,350.54872 c -3.69731,0 -6.63499,-1.12381 -8.80838,-3.37375 -2.17339,-2.24877 -3.26008,-5.24327 -3.26008,-8.9777 0,-4.27255 1.27689,-7.77039 3.83185,-10.49699 2.55495,-2.72659 5.75704,-4.08931 9.60977,-4.08931 1.60047,0 3.12439,0.25747 4.57409,0.7724 1.44854,0.51377 2.55379,1.19223 3.31691,2.02958 0.57177,0.68658 0.85823,1.25834 0.85823,1.71529 0,0.49637 -0.22848,0.95332 -0.68542,1.37547 l -2.3462,1.88577 h -0.40011 l -1.94376,-2.63149 c -0.57292,-0.79908 -1.2595,-1.43927 -2.06089,-1.91477 -0.80024,-0.47666 -1.81039,-0.71673 -3.03046,-0.71673 -2.02146,0 -3.60105,0.84083 -4.7469,2.51784 -1.14468,1.67933 -1.71528,3.98609 -1.71528,6.92029 0,2.66976 0.6947,5.04379 2.08873,7.12208 1.39055,2.07829 3.87823,3.11744 7.46305,3.11744 2.21051,0 4.6518,-0.72369 7.32157,-2.17339 h 0.17048 v 0.68658 c -0.87794,1.75471 -2.21282,3.23109 -4.00465,4.4326 -1.79067,1.19803 -3.86896,1.79879 -6.23255,1.79879"
     id="path21"
     inkscape:connector-curvature="0"
     style="fill:#000000;stroke-width:1.15976;fill-opacity:1" /><path
     d="m 371.49341,349.97579 v -0.91389 l 3.65904,-1.83126 v -33.63072 l -3.48856,-2.91679 v -0.45695 l 8.46509,-3.14759 h 0.40012 v 20.76202 h 0.22847 c 1.44854,-1.41026 2.84141,-2.46796 4.17745,-3.17426 1.33257,-0.70513 2.83794,-1.05654 4.51727,-1.05654 2.21166,0 4.0522,0.56132 5.52046,1.68629 1.46825,1.12497 2.20238,2.81358 2.20238,5.06119 v 16.87219 l 3.60222,1.83126 v 0.91389 h -12.81303 v -0.91389 l 3.77502,-1.65961 v -14.41234 c 0,-1.6399 -0.49638,-2.87041 -1.48566,-3.69036 -0.99159,-0.81995 -2.26849,-1.2305 -3.833,-1.2305 -0.95217,0 -2.00175,0.15309 -3.14643,0.4581 -1.14237,0.30734 -2.05626,0.78168 -2.74515,1.42999 v 17.44395 l 3.77617,1.65961 v 0.91389 h -12.81186 z"
     id="path23"
     inkscape:connector-curvature="0"
     style="fill:#000000;stroke-width:1.15976;fill-opacity:1" /><path
     d="m 411.01455,350.54872 c -1.8301,0 -3.34591,-0.54277 -4.54742,-1.62831 -1.20035,-1.08669 -1.79995,-2.58394 -1.79995,-4.49059 0,-1.86605 0.67614,-3.47928 2.02958,-4.83272 1.35344,-1.35344 3.70659,-2.43201 7.0641,-3.23225 l 5.43347,-1.25718 v -4.00465 c 0,-1.372 -0.50565,-2.51552 -1.51696,-3.43173 -1.01015,-0.91505 -2.18267,-1.37316 -3.51639,-1.37316 -2.51784,0 -3.77502,1.3546 -3.77502,4.06148 v 1.8301 l -0.28646,0.28531 h -3.14643 c -0.99044,0 -1.48566,-0.55321 -1.48566,-1.65846 0,-1.90781 1.04727,-3.50712 3.14527,-4.80489 1.14353,-0.72369 2.30677,-1.30589 3.48972,-1.74428 1.1818,-0.43838 2.44014,-0.65758 3.77618,-0.65758 2.20934,0 4.22153,0.46622 6.03307,1.40215 1.81039,0.93477 2.71732,2.62222 2.71732,5.06119 v 15.95714 c 0.57176,0.64831 1.60047,0.97188 3.08844,0.97188 h 2.00175 l 0.22963,0.11482 v 0.34328 c -0.45927,0.80256 -1.15512,1.51697 -2.08873,2.14556 -0.93593,0.62859 -2.06785,0.94289 -3.40389,0.94289 -2.47957,0 -4.09976,-1.18064 -4.86056,-3.54655 h -0.40128 c -0.99043,0.99159 -2.20122,1.83126 -3.63236,2.519 -1.42883,0.68426 -2.94579,1.02755 -4.54742,1.02755 m -1.14353,-7.3784 c 0,2.36475 1.39172,3.54771 4.1763,3.54771 1.60163,0 3.31575,-0.38156 5.14701,-1.14468 v -8.46509 c -4.1183,0.80023 -6.69993,1.68861 -7.75183,2.65933 -1.04842,0.97188 -1.57148,2.10612 -1.57148,3.40273"
     id="path25"
     inkscape:connector-curvature="0"
     style="fill:#000000;stroke-width:1.15976;fill-opacity:1" /><path
     d="m 442.87315,350.54872 c -2.24993,0 -4.08815,-0.57177 -5.52045,-1.71529 -1.42883,-1.14352 -2.14324,-2.8217 -2.14324,-5.03336 v -16.93133 l -3.66252,-1.77212 v -0.91505 h 9.03685 v 16.98585 c 0,1.60163 0.48594,2.82285 1.45898,3.6602 0.97187,0.83967 2.24065,1.25834 3.80285,1.25834 0.95332,0 2.0029,-0.16121 3.14643,-0.48594 1.14468,-0.32241 2.05857,-0.80835 2.74631,-1.45666 v -17.27578 l -3.88984,-1.77212 v -0.91505 h 9.32216 v 23.22072 l 3.94666,1.65961 v 0.91389 h -9.37898 v -3.60221 h -0.28762 c -2.78342,2.78458 -5.64339,4.1763 -8.57759,4.1763"
     id="path27"
     inkscape:connector-curvature="0"
     style="fill:#000000;stroke-width:1.15976;fill-opacity:1" /><polygon
     points="426.601,215.28 426.601,214.491 434.935,214.491 434.935,215.28 432.32,216.958 426.452,224.453 433.75,234.464 435.772,235.944 435.772,236.732 425.366,236.732 425.366,235.944 428.276,234.514 428.276,234.218 423.296,227.413 418.809,233.922 418.809,234.218 421.816,235.944 421.816,236.732 413.037,236.732 413.037,235.944 415.7,234.267 422.211,225.883 415.553,216.76 413.235,215.28 413.235,214.491 424.184,214.491 424.184,215.28 420.978,216.711 420.978,217.006 425.366,222.974 429.312,217.302 429.312,217.006 "
     id="polygon29"
     style="fill:#000000;fill-opacity:1"
     transform="matrix(1.15976,0,0,1.15976,-15.390933,75.42349)" /><g
     id="g4548"
     transform="matrix(1.1139763,0,0,1.1139763,-34.192889,-35.351263)"
     style="fill:#000000;fill-opacity:1"><path
       style="fill:#000000;stroke-width:1.15976;fill-opacity:1"
       inkscape:connector-curvature="0"
       id="path31"
       d="m 241.71046,379.48705 c -0.38156,0.24007 -0.84198,0.44419 -1.38127,0.61235 -0.53929,0.16933 -1.147,0.25399 -1.82198,0.25399 -0.88258,0 -1.68398,-0.15541 -2.40187,-0.46623 -0.71905,-0.31081 -1.3314,-0.7318 -1.83938,-1.26645 -0.50565,-0.53349 -0.89765,-1.15396 -1.17599,-1.86258 -0.27835,-0.70745 -0.41636,-1.45318 -0.41636,-2.23949 0,-0.84779 0.15541,-1.63643 0.46507,-2.36012 0.31081,-0.72485 0.73528,-1.35692 1.27457,-1.8962 0.53929,-0.53929 1.16556,-0.96144 1.87997,-1.26646 0.7121,-0.30502 1.4787,-0.45695 2.29633,-0.45695 0.58684,0 1.14932,0.0719 1.68281,0.2192 0.53349,0.14729 0.99044,0.34561 1.372,0.59611 -0.065,0.0997 -0.11366,0.17745 -0.14729,0.2366 -0.0325,0.0615 -0.0928,0.16236 -0.17861,0.30385 -0.38156,-0.24007 -0.80951,-0.41983 -1.28269,-0.54045 -0.4755,-0.12061 -0.94637,-0.1786 -1.41375,-0.1786 -0.73065,0 -1.41723,0.13917 -2.05857,0.4152 -0.64367,0.27834 -1.20267,0.65874 -1.67586,1.14352 -0.47434,0.48478 -0.84894,1.04842 -1.12728,1.69209 -0.27834,0.64251 -0.41752,1.33024 -0.41752,2.05857 0,0.68658 0.12294,1.34184 0.36881,1.96812 0.24355,0.62743 0.59264,1.17715 1.04494,1.65265 0.45231,0.47203 0.99624,0.85011 1.6341,1.13425 0.63787,0.28414 1.34301,0.42563 2.11657,0.42563 0.59843,0 1.14932,-0.0789 1.65033,-0.23775 0.50102,-0.15773 0.91505,-0.33981 1.24211,-0.54625 z" /><path
       style="fill:#000000;stroke-width:1.15976;fill-opacity:1"
       inkscape:connector-curvature="0"
       id="path33"
       d="m 253.37765,380.22234 c -0.28298,-0.68542 -0.58568,-1.42651 -0.90809,-2.22211 -0.3201,-0.79559 -0.64367,-1.61786 -0.97072,-2.46796 h -4.675 c -0.32589,0.8501 -0.64714,1.67237 -0.96376,2.46796 -0.31545,0.7956 -0.61467,1.53669 -0.89881,2.22211 h -0.68542 c 0.22847,-0.53349 0.4755,-1.12613 0.74341,-1.78024 0.26674,-0.6541 0.54393,-1.34068 0.83271,-2.05857 0.28878,-0.71789 0.57988,-1.45202 0.87445,-2.19891 0.29342,-0.74688 0.58568,-1.47869 0.87446,-2.1989 0.28878,-0.71673 0.56713,-1.40795 0.83387,-2.06553 0.26559,-0.65991 0.51377,-1.25602 0.74341,-1.78951 0.21803,0.53349 0.45926,1.1296 0.72717,1.78951 0.26674,0.65758 0.54392,1.3488 0.8327,2.06553 0.28878,0.71905 0.58104,1.45202 0.87446,2.1989 0.29458,0.74689 0.58568,1.47986 0.87446,2.19891 0.28878,0.71905 0.56597,1.40447 0.83387,2.05857 0.26558,0.65411 0.51493,1.24675 0.74341,1.78024 z m -4.36302,-10.18154 c -0.30618,0.71905 -0.62047,1.49609 -0.94752,2.3288 -0.32821,0.83503 -0.66571,1.69209 -1.01363,2.57583 h 4.21572 c -0.33749,-0.88374 -0.67266,-1.7408 -1.00435,-2.57583 -0.33285,-0.83271 -0.64598,-1.60975 -0.9394,-2.3288 l -0.14729,-0.47318 c -0.022,0.087 -0.0487,0.17396 -0.0823,0.26095 -0.0325,0.0893 -0.0591,0.15772 -0.0812,0.21223" /><polygon
       transform="matrix(1.15976,0,0,1.15976,-15.390933,75.42349)"
       style="fill:#000000;fill-opacity:1"
       id="polygon35"
       points="235.593,262.812 235.593,252.85 241.115,252.85 241.115,253.399 236.184,253.399 236.184,257.654 240.567,257.654 240.567,258.205 236.184,258.205 236.184,262.812 " /><path
       style="fill:#000000;stroke-width:1.15976;fill-opacity:1"
       inkscape:connector-curvature="0"
       id="path37"
       d="m 268.39654,380.22234 v -11.55353 h 7.0757 v 0.62047 h -6.39028 v 4.80604 h 5.73617 v 0.62163 h -5.73617 v 4.86752 h 6.61875 v 0.63787 z m 3.16846,-12.33753 c 0.25167,-0.36069 0.4987,-0.72137 0.74457,-1.0867 0.24471,-0.36532 0.49174,-0.72717 0.74225,-1.08785 h 0.62047 l -1.61671,2.17339 H 271.565 Z" /><rect
       style="fill:#000000;stroke-width:1.15976;fill-opacity:1"
       id="rect39"
       height="0.57176167"
       width="3.0223346"
       y="376.69321"
       x="285.04721" /><path
       style="fill:#000000;stroke-width:1.15976;fill-opacity:1"
       inkscape:connector-curvature="0"
       id="path41"
       d="m 298.36474,380.22234 v -11.55353 h 2.48536 c 0.5103,0 0.98116,0.0545 1.40563,0.16468 0.42448,0.10902 0.78632,0.2795 1.0867,0.51378 0.29922,0.23427 0.53349,0.53928 0.70281,0.91505 0.16817,0.37576 0.25283,0.83154 0.25283,1.36503 0,0.31546 -0.0325,0.61816 -0.0986,0.90578 -0.0638,0.28994 -0.17048,0.55552 -0.31777,0.80255 -0.14729,0.24471 -0.34097,0.45927 -0.57988,0.64483 -0.24007,0.1844 -0.52885,0.32589 -0.86634,0.42331 0.31545,0.0661 0.62047,0.17164 0.91505,0.31893 0.29574,0.14729 0.55668,0.33517 0.78631,0.56365 0.22732,0.22847 0.4094,0.50449 0.54625,0.82575 0.13685,0.32009 0.20412,0.68889 0.20412,1.10177 0,0.50217 -0.1009,0.94056 -0.30038,1.31633 -0.20296,0.37576 -0.4697,0.68889 -0.80255,0.9394 -0.33169,0.25167 -0.7121,0.44071 -1.14237,0.56364 -0.43027,0.12526 -0.8733,0.18789 -1.33256,0.18789 h -2.94463 z m 0.68774,-10.93306 v 4.83736 h 2.17339 c 0.78631,0 1.38011,-0.23312 1.78951,-0.70166 0.41055,-0.46854 0.61235,-1.06814 0.61235,-1.79763 0,-0.41403 -0.0638,-0.76776 -0.196,-1.06234 -0.12989,-0.29458 -0.30966,-0.53697 -0.53813,-0.72717 -0.22963,-0.1902 -0.50565,-0.32937 -0.82459,-0.41519 -0.32357,-0.0881 -0.67382,-0.13221 -1.05538,-0.13221 h -1.96115 z m 0,5.42535 v 4.88607 h 2.20586 c 0.4036,0 0.78516,-0.0487 1.14468,-0.14729 0.35837,-0.0986 0.67614,-0.24702 0.94637,-0.44998 0.27138,-0.2018 0.4871,-0.45463 0.64714,-0.75965 0.15657,-0.30501 0.23659,-0.65642 0.23659,-1.06234 0,-0.43491 -0.0928,-0.80835 -0.27718,-1.11916 -0.18672,-0.30966 -0.43143,-0.56597 -0.73529,-0.76777 -0.30733,-0.20179 -0.65526,-0.34908 -1.04726,-0.44186 -0.39084,-0.0916 -0.79444,-0.13802 -1.20963,-0.13802 z" /><rect
       style="fill:#000000;stroke-width:1.15976;fill-opacity:1"
       id="rect43"
       height="11.553529"
       width="0.66918153"
       y="368.66882"
       x="309.36392" /><path
       style="fill:#000000;stroke-width:1.15976;fill-opacity:1"
       inkscape:connector-curvature="0"
       id="path45"
       d="m 320.9499,369.24057 -0.24586,0.53929 c -0.33749,-0.14033 -0.74341,-0.26907 -1.21775,-0.38388 -0.47318,-0.11482 -0.93825,-0.17049 -1.39635,-0.17049 -0.41288,0 -0.7898,0.0568 -1.12729,0.17049 -0.33749,0.11365 -0.62511,0.26674 -0.85822,0.4581 -0.23427,0.19136 -0.41288,0.41404 -0.54045,0.67034 -0.12409,0.25631 -0.18788,0.53117 -0.18788,0.82575 0,0.34909 0.0881,0.64251 0.2621,0.88258 0.17397,0.23891 0.40708,0.44651 0.69702,0.62047 0.28762,0.17396 0.61467,0.32937 0.97884,0.46506 0.36648,0.13686 0.74108,0.27487 1.12844,0.41636 0.3862,0.14149 0.76197,0.3027 1.12845,0.48246 0.36416,0.1786 0.69122,0.3978 0.98,0.65294 0.28878,0.25515 0.52073,0.56017 0.69469,0.91621 0.17397,0.35257 0.26327,0.78632 0.26327,1.29777 0,0.50218 -0.0905,0.95333 -0.27022,1.35808 -0.17861,0.40128 -0.43839,0.74457 -0.77588,1.02755 -0.33749,0.28414 -0.74109,0.50218 -1.20963,0.65411 -0.46855,0.15192 -0.99044,0.22847 -1.568,0.22847 -0.45926,0 -0.87446,-0.0441 -1.25022,-0.13105 -0.37692,-0.0847 -0.71209,-0.19252 -1.00551,-0.31778 -0.29458,-0.12525 -0.54741,-0.24935 -0.75965,-0.37576 -0.21339,-0.1241 -0.37924,-0.22036 -0.49869,-0.28646 l 0.32705,-0.60308 c 0.1728,0.11946 0.38388,0.24239 0.62975,0.36533 0.24471,0.12525 0.50566,0.24007 0.78284,0.34329 0.2795,0.10437 0.5706,0.18788 0.87446,0.25514 0.30501,0.065 0.61119,0.0974 0.91505,0.0974 0.34909,0 0.70861,-0.051 1.07973,-0.15656 0.36881,-0.10322 0.70746,-0.26211 1.01247,-0.47203 0.30618,-0.21339 0.55669,-0.48478 0.75153,-0.81763 0.196,-0.33285 0.29458,-0.72717 0.29458,-1.18527 0,-0.43491 -0.087,-0.80488 -0.26095,-1.11105 -0.17512,-0.30502 -0.40823,-0.56249 -0.69701,-0.77588 -0.28762,-0.2134 -0.61468,-0.3978 -0.98,-0.55553 -0.36417,-0.15888 -0.73993,-0.30849 -1.12729,-0.44998 -0.3862,-0.14149 -0.76196,-0.28878 -1.12844,-0.44187 -0.36417,-0.15309 -0.69238,-0.33169 -0.98116,-0.53929 -0.28878,-0.2076 -0.52073,-0.45115 -0.69354,-0.73529 -0.17512,-0.28298 -0.26326,-0.63207 -0.26326,-1.0461 0,-0.38156 0.08,-0.74341 0.23659,-1.0867 0.15773,-0.34213 0.38156,-0.64366 0.67034,-0.89881 0.28878,-0.25515 0.63439,-0.45695 1.03798,-0.60424 0.40476,-0.14613 0.84895,-0.21919 1.33953,-0.21919 0.25051,0 0.51609,0.0186 0.79443,0.0568 0.27603,0.0383 0.55205,0.087 0.82459,0.14729 0.27139,0.0603 0.52537,0.12757 0.75849,0.20411 0.23427,0.0765 0.42795,0.15309 0.58103,0.22848" /><polygon
       transform="matrix(1.15976,0,0,1.15976,-15.390933,75.42349)"
       style="fill:#000000;fill-opacity:1"
       id="polygon47"
       points="295.912,262.812 295.912,253.413 293.18,253.413 293.18,252.85 299.252,252.85 299.252,253.413 296.49,253.413 296.49,262.812 " /><path
       style="fill:#000000;stroke-width:1.15976;fill-opacity:1"
       inkscape:connector-curvature="0"
       id="path49"
       d="m 335.78671,380.22234 v -11.55353 h 2.56655 c 0.4036,0 0.813,0.0603 1.23399,0.17976 0.41867,0.12061 0.79907,0.30849 1.14352,0.56364 0.34329,0.25631 0.62163,0.58916 0.84083,0.99624 0.21803,0.41055 0.32705,0.90113 0.32705,1.47869 0,0.64251 -0.15889,1.25022 -0.47318,1.82198 -0.31662,0.5706 -0.82227,0.99856 -1.52161,1.28154 0.0754,0.12061 0.20296,0.32473 0.37576,0.61351 0.17513,0.28878 0.37113,0.61119 0.58916,0.97188 0.21804,0.35953 0.44767,0.73877 0.68774,1.1354 0.23891,0.40012 0.4639,0.77125 0.6773,1.12033 0.21224,0.35025 0.39548,0.64831 0.54741,0.89766 0.15193,0.25167 0.2563,0.41519 0.31081,0.49058 h -0.81647 c -0.0429,-0.0649 -0.13221,-0.21224 -0.26906,-0.44071 -0.13685,-0.22848 -0.30038,-0.50102 -0.48942,-0.81763 -0.19136,-0.3143 -0.39896,-0.65411 -0.62163,-1.02175 -0.22384,-0.36417 -0.44071,-0.72137 -0.65411,-1.07046 -0.21339,-0.34677 -0.40823,-0.6715 -0.58916,-0.97188 -0.17744,-0.29922 -0.32241,-0.53581 -0.43259,-0.71093 -0.15308,0.022 -0.30733,0.0406 -0.4639,0.058 -0.16005,0.0174 -0.32357,0.0244 -0.49986,0.0244 h -1.78139 v 4.95218 h -0.68774 z m 0.68658,-5.60512 h 1.79879 c 0.57756,0 1.05654,-0.0951 1.43694,-0.28531 0.38156,-0.1902 0.68542,-0.42795 0.90694,-0.70977 0.22383,-0.28414 0.37808,-0.58684 0.46622,-0.90809 0.087,-0.32009 0.13105,-0.61235 0.13105,-0.87446 0,-0.34793 -0.0707,-0.67498 -0.20644,-0.98 -0.13453,-0.30617 -0.33169,-0.5706 -0.58799,-0.80023 -0.25515,-0.22963 -0.56365,-0.41056 -0.92433,-0.54857 -0.35837,-0.13569 -0.76197,-0.20412 -1.20847,-0.20412 h -1.81387 v 5.31055 z" /><path
       style="fill:#000000;stroke-width:1.15976;fill-opacity:1"
       inkscape:connector-curvature="0"
       id="path51"
       d="m 345.90446,374.45369 c 0,-0.81647 0.15541,-1.58191 0.4639,-2.29517 0.31198,-0.71209 0.72949,-1.33836 1.25834,-1.87997 0.52885,-0.53929 1.14933,-0.96376 1.86374,-1.27457 0.71325,-0.30966 1.47753,-0.46507 2.29516,-0.46507 0.81763,0 1.5854,0.15657 2.30445,0.46507 0.72021,0.31081 1.3488,0.73528 1.88693,1.27457 0.53928,0.54161 0.96376,1.16788 1.27573,1.87997 0.31198,0.71326 0.46507,1.4787 0.46507,2.29517 0,0.81647 -0.15425,1.58307 -0.46507,2.29516 -0.31197,0.71326 -0.73645,1.33721 -1.27573,1.8707 -0.53813,0.53465 -1.16672,0.95564 -1.88693,1.26645 -0.71905,0.31198 -1.48682,0.46623 -2.30445,0.46623 -0.81647,0 -1.58075,-0.15541 -2.29516,-0.46623 -0.71441,-0.31081 -1.33489,-0.7318 -1.86374,-1.26645 -0.52885,-0.53349 -0.94636,-1.15744 -1.25834,-1.8707 -0.30965,-0.71209 -0.4639,-1.47869 -0.4639,-2.29516 m 0.66802,0.0162 c 0,0.71905 0.13685,1.39751 0.41056,2.03537 0.27254,0.63671 0.64482,1.19224 1.11917,1.66774 0.47434,0.4755 1.02406,0.84894 1.65033,1.12729 0.62627,0.27834 1.29894,0.41635 2.01799,0.41635 0.72021,0 1.39867,-0.13917 2.04233,-0.41635 0.64483,-0.27719 1.20384,-0.65179 1.68398,-1.12729 0.47898,-0.47434 0.85822,-1.03103 1.1354,-1.66774 0.27718,-0.63786 0.41519,-1.32096 0.41519,-2.05161 0,-0.71905 -0.13801,-1.39983 -0.41519,-2.04234 -0.27718,-0.64367 -0.6541,-1.20151 -1.12845,-1.67585 -0.47434,-0.47318 -1.02986,-0.84895 -1.66657,-1.12613 -0.63787,-0.27834 -1.31517,-0.41751 -2.03422,-0.41751 -0.71905,0 -1.39751,0.13917 -2.03538,0.41751 -0.63903,0.27602 -1.19223,0.65527 -1.66773,1.13541 -0.47551,0.48014 -0.84547,1.03914 -1.11917,1.67353 -0.27139,0.63787 -0.40824,1.32213 -0.40824,2.05162" /><polygon
       transform="matrix(1.15976,0,0,1.15976,-15.390933,75.42349)"
       style="fill:#000000;fill-opacity:1"
       id="polygon53"
       points="326.657,262.812 326.657,253.413 323.925,253.413 323.925,252.85 329.997,252.85 329.997,253.413 327.235,253.413 327.235,262.812 " /></g><path
     d="M 355.50727,256.71717 V 219.6466 h -54.42985 -2.156 -54.42869 v 37.07057 l -0.003,0.003 0.003,0.005 v 27.58257 h 54.42869 2.156 54.42985 v -27.58257 l 0.005,-0.005 z m -62.79636,-34.90181 h 3.07684 v 15.94786 l -3.07684,-3.07801 z m -6.00176,0 h 2.8217 l 0.0731,9.76286 -2.89476,-2.89477 z m -3.13599,0 h 2.57003 v 6.30329 l -2.57003,-2.57119 z m -0.56712,0 v 3.1673 l -3.16615,-3.1673 z m -3.96638,0 19.25897,19.25781 -2.01798,2.01798 -21.2758,-21.27579 z m -8.87565,0 23.69622,23.69621 -2.21746,2.21746 -25.91368,-25.91367 z m -7.3146,0 h 0.0174 l -0.0174,0.0348 z m 0,1.57147 26.56778,26.56778 -2.01682,2.01683 -24.55096,-24.55096 z m 0,4.83736 24.14852,24.14968 -1.97159,1.97159 -22.17693,-22.17693 z m 17.54601,22.30102 2.02146,2.02147 -13.83362,13.83129 -2.01914,-2.0203 z m -14.23142,13.43234 -2.01798,-2.01798 13.8313,-13.83246 2.01914,2.01915 z m 16.65184,-11.01192 1.80574,1.80575 -13.83361,13.83246 -1.80459,-1.80575 z m -19.96643,-19.96642 1.24326,1.24326 -1.24326,1.24326 z m 0,3.31343 0.002,0.002 1.65613,-1.6573 1.96116,1.96116 -3.61961,3.62077 z m 0,4.75502 4.03364,-4.03481 2.00987,2.00986 -6.04351,6.04583 z m 0,8.55207 8.30968,-8.31084 2.17339,2.17339 -10.48307,10.48423 z m 0,5.15513 10.88667,-10.88899 2.01682,2.01567 -12.90349,12.90349 z m -3.36099,-32.9395 v 35.46778 l -2.8043,-2.8043 -0.0974,-32.66348 z m -6.28474,0 h 2.81822 l 0.0951,32.09519 -2.91332,-2.91099 z m -6.54104,0 h 3.40505 v 26.04821 l -3.40505,-3.40738 z m 0,23.44106 23.72637,23.72637 -2.17571,2.17571 -21.55066,-21.55066 z m 0,8.78751 19.33204,19.3332 -2.0261,2.0261 -17.30594,-17.30826 z m 0,28.09402 v -0.64366 l 0.64366,0.64366 z m 1.44506,0 -1.44506,-1.44506 v -3.63585 l 5.07975,5.08091 z m 4.43492,0 -5.87998,-5.87998 v -4.05104 l 9.93102,9.93102 z m 8.48712,0 -14.3671,-14.3671 v -4.43841 l 18.80435,18.80551 z m 5.24212,0 -19.60922,-19.60922 v -3.63353 l 23.24275,23.24275 z m 32.63681,0 h -0.10902 l 0.10902,-0.11017 z m 0,-0.90925 -0.91042,0.90925 h -3.71123 l 4.62165,-4.62164 z m 0,-4.51263 -5.42188,5.42188 h -4.0522 l 9.47408,-9.47408 z m 0,-8.50336 -13.92524,13.92524 h -4.43608 l 18.36132,-18.36016 z m 0,-9.27576 -23.201,23.201 h -4.03597 l 27.23697,-27.2358 z m 0,-4.83504 -28.03604,28.03604 h -0.16701 l -1.9426,-1.9426 30.14565,-30.14564 z m 0,-8.48712 -32.36311,32.3631 -2.17687,-2.17571 34.53998,-34.53881 z m 0,-5.15049 -0.20992,0.20875 -2.34619,-2.34503 v -16.51266 h 2.55611 z m 45.06943,-18.64894 h 2.81706 v 29.1842 l -2.911,2.91099 z m -3.46768,0 h 2.90172 l -0.0963,32.66348 -2.80546,2.8043 z m -3.35867,0 v 0.0348 l -0.0186,-0.0348 z m -19.56631,30.73132 2.01914,-2.02147 13.83362,13.83246 -2.0203,2.0203 z m 13.43234,14.23141 -1.8069,1.80575 -13.8313,-13.83246 1.80458,-1.80575 z m -11.01192,-16.65183 2.01566,-2.01915 13.83362,13.83246 -2.01682,2.01798 z m 4.2424,-4.24472 2.01451,-2.01567 10.88898,10.88899 v 4.03017 z m 2.42042,-2.41926 2.17223,-2.17339 8.31084,8.31084 v 4.34678 z m 4.43724,-4.43957 2.01103,-2.00986 4.0348,4.03481 v 4.02088 z m 2.42622,-2.42389 1.96,-1.96116 1.65729,1.6573 0.002,-0.002 v 3.92695 z m 2.37635,-2.37635 1.2421,-1.24326 v 2.48652 z m -20.93367,20.12299 -1.97159,-1.97159 24.14852,-24.14968 v 3.94434 z m -2.37519,-2.37402 -2.01566,-2.01683 26.56778,-26.56778 v 4.03365 z m 21.67128,-30.15608 -25.91368,25.91367 -2.21746,-2.21746 23.69506,-23.69621 z m -9.2746,0 -21.27696,21.27579 -2.01682,-2.01798 19.25665,-19.25781 z m -8.00351,0 h 3.16731 l -3.16731,3.1673 z m -3.13599,0 h 2.57119 v 3.7321 l -2.57119,2.57119 z m -3.38766,0 h 2.82286 v 6.86809 l -2.8936,2.89477 z m -6.25574,0 h 3.07684 v 12.86985 l -3.07684,3.07801 z m -3.12208,0 h 2.55496 v 16.51266 l -2.34388,2.34503 -0.21108,-0.20875 z m 0,19.44801 34.53882,34.53881 -2.17571,2.17571 -32.36311,-32.3631 z m 0,40.87458 v -0.11017 l 0.11134,0.11017 z m 0.90926,0 -0.90926,-0.90925 v -3.71239 l 4.62281,4.62164 z m 4.51262,0 -5.42188,-5.42188 v -4.0522 l 9.47408,9.47408 z m 8.50336,0 -13.92524,-13.92524 v -4.43492 l 18.36016,18.36016 z m 9.27576,0 -23.201,-23.201 v -4.0348 l 27.23697,27.2358 z m 4.83504,0 -28.03604,-28.03604 v -4.0522 l 30.14565,30.14564 -1.94144,1.9426 z m 24.20999,0 h -0.64482 l 0.64482,-0.64366 z m 0,-1.44506 -1.44274,1.44506 h -3.63701 l 5.07975,-5.08091 z m 0,-4.43492 -5.87882,5.87998 h -4.05104 l 9.92986,-9.93102 z m 0,-8.48712 -14.3671,14.3671 h -4.43841 l 18.80551,-18.80551 z m 0,-5.24212 -19.60806,19.60922 h -3.63469 l 23.24275,-23.24275 z m 0,-4.43376 -17.3071,17.30826 -2.0261,-2.0261 19.3332,-19.3332 z m 0,-8.48713 -21.55066,21.55066 -2.17571,-2.17571 23.72637,-23.72637 z m 0,-5.15165 -3.40621,3.40738 v -26.04821 h 3.40621 z"
     id="path55"
     inkscape:connector-curvature="0"
     style="fill:#000000;stroke-width:1.15976;fill-opacity:1" /></svg>