<?xml version="1.0" encoding="UTF-8" standalone="no"?>
<svg
   xmlns:dc="http://purl.org/dc/elements/1.1/"
   xmlns:cc="http://creativecommons.org/ns#"
   xmlns:rdf="http://www.w3.org/1999/02/22-rdf-syntax-ns#"
   xmlns:svg="http://www.w3.org/2000/svg"
   xmlns="http://www.w3.org/2000/svg"
   viewBox="0 0 599.99999 599.99999"
   height="600"
   width="600"
   xml:space="preserve"
   id="svg2"
   version="1.1"><metadata
     id="metadata8"><rdf:RDF><cc:Work
         rdf:about=""><dc:format>image/svg+xml</dc:format><dc:type
           rdf:resource="http://purl.org/dc/dcmitype/StillImage" /><dc:title></dc:title></cc:Work></rdf:RDF></metadata><defs
     id="defs6"><clipPath
       id="clipPath18"
       clipPathUnits="userSpaceOnUse"><path
         id="path16"
         d="M 0,841.89 H 1190.55 V 0 H 0 Z" /></clipPath></defs><g
     transform="matrix(1.3333333,0,0,-1.3333333,0,599.99998)"
     id="g10"><rect
       transform="scale(1,-1)"
       y="-450"
       x="5.6250001e-06"
       height="450"
       width="450"
       id="rect4539"
       style="fill:#cccccc;fill-opacity:1;stroke:#000000;stroke-width:1.5;stroke-linecap:round;stroke-linejoin:round;stroke-miterlimit:4;stroke-dasharray:none;stroke-opacity:1;paint-order:markers stroke fill" /><g
       transform="matrix(0.31268166,0,0,0.31268166,38.799953,93.54984)"
       id="g12"><g
         clip-path="url(#clipPath18)"
         id="g14"><g
           transform="translate(223.7852,481.8076)"
           id="g20"><path
             id="path22"
             style="fill:#1d1d1b;fill-opacity:1;fill-rule:nonzero;stroke:none"
             d="m 0,0 2.245,-2.742 c 9.217,9.212 12.953,16.685 12.953,25.903 0,10.208 -4.236,17.434 -12.953,17.434 -5.732,0.247 -9.718,-2.24 -9.718,-7.473 0,-4.98 3.737,-8.223 8.969,-10.964 4.486,-3.235 4.983,-4.98 5.232,-8.215 C 6.479,9.713 3.239,2.238 0,0" /></g><g
           transform="translate(360.2041,431.8477)"
           id="g24"><path
             id="path26"
             style="fill:#1d1d1b;fill-opacity:1;fill-rule:nonzero;stroke:none"
             d="m 0,0 c 0,6.725 0.498,14.206 3.487,19.186 4.238,7.225 10.716,11.21 15.948,11.21 13.205,0 10.466,-13.705 19.932,-13.705 4.984,0 7.975,4.741 7.975,8.972 0,5.976 -5.982,11.712 -16.695,11.712 C 14.948,37.375 6.226,30.396 0,22.174 l -1.247,16.444 -1.742,0.749 c 0,0 -7.723,-1.491 -22.427,-5.227 l 0.749,-2.995 c 8.72,0 8.222,-13.45 8.222,-24.173 V -46.347 L 0,-33.886 Z" /></g><g
           transform="translate(838.5918,431.8477)"
           id="g28"><path
             id="path30"
             style="fill:#1d1d1b;fill-opacity:1;fill-rule:nonzero;stroke:none"
             d="m 0,0 c 0,6.725 0.498,14.206 3.487,19.186 4.235,7.225 10.718,11.21 15.947,11.21 13.206,0 10.469,-13.705 19.934,-13.705 4.98,0 7.974,4.741 7.974,8.972 0,5.976 -5.983,11.712 -16.692,11.712 C 14.948,37.375 6.23,30.396 0,22.174 l -1.25,16.444 -1.737,0.749 c 0,0 -7.728,-1.491 -22.428,-5.227 l 0.748,-2.995 c 8.72,0 8.223,-13.45 8.223,-24.173 V -46.347 L 0,-33.886 Z" /></g><g
           transform="translate(445.0449,366.4385)"
           id="g32"><path
             id="path34"
             style="fill:#1d1d1b;fill-opacity:1;fill-rule:nonzero;stroke:none"
             d="m 0,0 c 17.941,0 26.908,16.198 26.908,35.384 v 17.687 c 0,0.749 -43.851,-5.227 -43.851,-36.124 C -16.943,11.96 -15.197,0 0,0 M 43.355,27.161 C 44.104,16.699 44.849,2.988 53.569,3.991 l 1,-2.987 C 40.367,-4.231 33.139,-5.48 33.139,-5.48 l -1.495,0.501 -4.487,15.448 C 20.433,-0.748 12.957,-6.725 -2.489,-6.725 c -26.663,0 -31.398,17.936 -31.398,24.668 0,28.404 26.414,32.141 40.365,35.63 18.19,4.486 19.187,1.991 18.939,16.198 -0.249,15.194 -0.249,32.388 -21.929,32.388 -7.973,0 -13.955,-2.239 -15.947,-15.195 -0.746,-4.987 -3.986,-9.226 -9.22,-9.226 -5.481,0 -9.217,4.239 -9.217,9.721 0,12.461 21.427,18.691 34.881,18.691 21.68,0 39.37,-5.728 39.37,-29.153 z" /></g><g
           transform="translate(581.3398,438.8115)"
           id="g36"><path
             id="path38"
             style="fill:#1d1d1b;fill-opacity:1;fill-rule:nonzero;stroke:none"
             d="m 0,0 c 0,20.706 -11.959,27.045 -24.667,27.045 -9.721,0 -15.95,-6.339 -20.683,-13.399 -3.737,-5.605 -4.234,-12.919 -4.234,-25.095 v -33.377 c 0,-22.661 -1.248,-28.992 7.971,-29.234 v -3.169 h -31.895 v 3.169 c 8.474,0 7.479,7.794 7.479,29.234 V 0.727 c 0,10.484 0.498,23.635 -8.227,23.635 l -0.746,2.93 c 14.705,3.649 22.425,5.111 22.425,5.111 l 1.745,-0.727 1.248,-16.081 c 6.975,9.014 17.439,16.081 32.889,16.081 18.687,0 33.139,-3.417 33.139,-31.676 v -44.826 c 0,-22.661 -1.25,-28.992 7.972,-29.234 v -3.169 h -31.89 v 3.169 c 8.47,0 7.474,7.794 7.474,29.234 z" /></g><g
           transform="translate(691.0947,455.6416)"
           id="g40"><path
             id="path42"
             style="fill:#1d1d1b;fill-opacity:1;fill-rule:nonzero;stroke:none"
             d="m 0,0 c 8.722,-10.469 14.453,-22.922 14.453,-36.379 0.248,-27.902 -22.428,-48.833 -45.845,-48.833 -4.238,-0.247 -7.226,0.495 -8.97,0.742 -5.733,0.748 -25.416,-5.227 -25.416,-15.942 0,-12.956 14.699,-13.203 24.666,-13.203 l 27.656,0.247 c 26.914,0.247 39.621,-16.946 39.621,-36.132 v -2.741 H 10.219 l -0.255,2.493 c -1.242,8.718 -7.717,17.194 -33.881,16.94 l -21.928,-0.248 c -18.436,0 -30.394,9.72 -30.646,23.926 0,8.223 3.24,23.417 26.162,27.902 -14.453,5.482 -26.91,23.424 -27.161,43.853 -0.248,27.656 21.678,52.322 45.35,52.577 C -21.427,15.202 -9.468,10.717 0,0 m -57.557,-35.383 c 0.247,-26.412 8.47,-44.601 26.413,-44.601 17.441,0 27.157,18.443 26.906,44.856 -0.246,26.659 -10.215,44.849 -27.655,44.849 -17.941,0 -25.914,-18.444 -25.664,-45.104 m 169.671,11.967 H 49.077 c -1.993,-21.935 -3.738,-66.281 29.65,-66.281 7.723,0 17.691,2.988 17.691,2.988 v -6.726 c 0,0 -7.975,-3.241 -20.93,-2.994 -33.638,0.749 -47.094,23.177 -47.094,55.819 0,30.141 15.2,55.812 46.345,55.812 17.441,0 37.375,-9.968 37.375,-37.375 z m -38.371,34.38 c -14.947,0 -21.178,-11.465 -23.672,-29.153 H 93.18 c 0,19.934 -8.968,29.153 -19.437,29.153" /></g><g
           transform="translate(917.3271,470.5312)"
           id="g44"><path
             id="path46"
             style="fill:#1d1d1b;fill-opacity:1;fill-rule:nonzero;stroke:none"
             d="m 0,0 v -77.026 c 0,-22.668 -1.247,-29.007 7.976,-29.254 v -3.163 h -31.895 v 3.163 c 8.47,0 7.475,7.801 7.475,29.254 v 46.31 c 0,10.484 0.995,22.675 -7.722,22.675 l -0.749,2.923 C -10.215,-1.462 -2.491,0 -2.491,0 Z m -20.182,31.69 c 0,5.852 4.486,10.476 10.462,10.476 5.983,0 10.716,-4.624 10.716,-10.476 0,-5.852 -4.733,-10.236 -10.716,-10.236 -5.976,0 -10.462,4.384 -10.462,10.236" /></g><g
           transform="translate(1015.25,432.4727)"
           id="g48"><path
             id="path50"
             style="fill:#1d1d1b;fill-opacity:1;fill-rule:nonzero;stroke:none"
             d="m 0,0 h -63.041 c -1.992,-21.927 -3.737,-66.281 29.653,-66.281 7.722,0 17.693,2.988 17.693,2.988 v -6.726 c 0,0 -7.973,-3.233 -20.93,-2.987 -33.641,0.749 -47.096,23.17 -47.096,55.812 0,30.149 15.201,55.812 46.346,55.812 C -19.931,38.618 0,28.65 0,1.243 Z m -38.374,34.388 c -14.948,0 -21.179,-11.466 -23.669,-29.154 h 43.108 c 0,19.927 -8.971,29.154 -19.439,29.154 M 0,0 h -63.041 c -1.992,-21.927 -3.737,-66.281 29.653,-66.281 7.722,0 17.693,2.988 17.693,2.988 v -6.726 c 0,0 -7.973,-3.233 -20.93,-2.987 -33.641,0.749 -47.096,23.17 -47.096,55.812 0,30.149 15.201,55.812 46.346,55.812 C -19.931,38.618 0,28.65 0,1.243 Z m -38.374,34.388 c -14.948,0 -21.179,-11.466 -23.669,-29.154 h 43.108 c 0,19.927 -8.971,29.154 -19.439,29.154" /></g><g
           transform="translate(285.2051,471.4609)"
           id="g52"><path
             id="path54"
             style="fill:#1d1d1b;fill-opacity:1;fill-rule:nonzero;stroke:none"
             d="m 0,0 c -28.654,0 -48.835,-25.662 -48.835,-55.812 0,-30.148 20.181,-55.811 48.835,-55.811 28.654,0 48.836,25.663 48.836,55.811 C 48.836,-25.662 28.654,0 0,0 m 0,-4.731 c 17.941,0 31.395,-22.422 31.395,-51.081 0,-28.651 -13.454,-51.078 -31.395,-51.078 -17.94,0 -31.393,22.427 -31.393,51.078 0,28.659 13.453,51.081 31.393,51.081" /></g><g
           transform="translate(184.21,385.1768)"
           id="g56"><path
             id="path58"
             style="fill:#1d1d1b;fill-opacity:1;fill-rule:nonzero;stroke:none"
             d="m 0,0 16.454,12.423 0.002,0.023 -0.01,138.876 h -2.492 c 0,0 -7.726,-1.497 -22.426,-5.234 L -7.723,143.1 C 0.997,143.1 0,130.639 0,119.923 V 0 0.254" /></g><g
           transform="translate(745.3477,537.3916)"
           id="g60"><path
             id="path62"
             style="fill:#1d1d1b;fill-opacity:1;fill-rule:nonzero;stroke:none"
             d="m 0,0 c 59.982,0 57.577,-91.819 57.694,-100.135 -0.485,-0.21 -6.257,3.295 -6.257,3.295 0.488,1.033 -10.115,1.419 -4.326,10.963 4.625,7.625 2.875,45.875 -16.78,68.75 C 21.939,-7.36 12.36,-4.914 0,-4.914 -1.454,-4.914 -12.843,0 0,0 c 12.845,0 1.455,-4.914 0,-4.914 -12.358,0 -21.195,-3.4 -29.923,-12.873 C -51.491,-41.278 -54.909,-94.824 -46.18,-94 l -0.334,-0.003 c 3.637,-8.447 -4.819,-11.4 -4.819,-11.4 C -63.348,-120.836 -66.167,0 0,0" /></g></g></g></g></svg>