<svg version="1.1" x="0px" y="0px" viewBox="0 0 100 125"><g transform="translate(0,-952.36218)"><path d="M 78.24746,1000.3632 62.24832,982.36321 c -1.03011,-1.22844 -3.06617,-1.33786 -4.26068,-0.26859 -1.19449,1.06926 -1.315,3.10913 -0.20782,4.26859 l 11.56187,13 -45.3418,0 c -1.6568,0 -2.9999,1.34319 -2.9999,2.99999 0,1.6569 1.3431,3 2.9999,3 l 45.3418,0 -11.56187,13 c -1.10718,1.1595 -0.95743,3.1957 0.23706,4.265 1.19451,1.0692 3.20133,0.9634 4.23144,-0.265 l 15.99914,-18 c 1.04459,-1.4553 0.96135,-2.7618 0,-4 z" style="text-indent:0;text-transform:none;direction:ltr;block-progression:tb;baseline-shift:baseline; enable-background:accumulate;" fill-opacity="1" stroke="none" marker="none" visibility="visible" display="inline" overflow="visible"/></g></svg>
