<svg height="17" width="17" xml:space="preserve" viewBox="0 0 17 17" y="0px" x="0px">
   <g transform="matrix(0.17,0,0,0.17,0.05460335,0)"><path
       id="path2"
       d="M 50,0 C 22.386,0 0,22.386 0,50 0,77.615 22.386,100 50,100 77.614,100 100,77.615 100,50 100,22.386 77.614,0 50,0 Z M 77.228,77.229 C 69.955,84.5 60.285,88.506 50,88.506 39.715,88.506 30.045,84.5 22.772,77.229 15.5,69.955 11.494,60.285 11.494,50 11.494,28.768 28.767,11.495 50,11.495 c 21.233,0 38.506,17.273 38.506,38.505 0,10.285 -4.005,19.955 -11.278,27.229 z" /><path
       id="path4"
       d="m 50.038,65.949 c -8.803,0 -15.965,-7.162 -15.965,-15.965 0,-8.803 7.162,-15.964 15.965,-15.964 6.414,0 11.953,3.805 14.489,9.273 H 76.672 C 73.684,31.362 62.895,22.525 50.038,22.525 c -15.165,0 -27.459,12.294 -27.459,27.459 0,15.166 12.294,27.459 27.459,27.459 12.877,0 23.679,-8.865 26.647,-20.824 H 64.554 c -2.525,5.5 -8.079,9.33 -14.516,9.33 z" /></g>
</svg>
