<svg fill="white" x="0px" y="0px" viewBox="0 0 100 125" enable-background="new 0 0 100 100" xml:space="preserve"><g><rect x="33.339" y="83.75" width="5.626" height="11.25"/><rect x="83.536" y="49.998" width="5.625" height="16.876"/><rect x="72.284" y="78.125" width="5.625" height="16.875"/><polygon points="38.531,16.25 32.906,16.25 32.906,27.501 38.531,27.501 38.531,38.751 44.156,38.751 44.156,10.625 38.531,10.625     "/><polygon points="77.909,16.25 72.284,16.25 72.284,44.376 77.909,44.376 77.909,33.126 83.536,33.126 83.536,27.501 77.909,27.501     "/><rect x="89.161" y="27.501" width="5.625" height="22.497"/><rect x="27.714" y="78.125" width="5.625" height="5.625"/><rect x="22.089" y="72.499" width="5.625" height="5.626"/><rect x="83.536" y="21.875" width="5.625" height="5.625"/><rect x="10.839" y="55.623" width="5.625" height="5.626"/><rect x="16.464" y="61.249" width="5.625" height="11.25"/><rect x="16.03" y="16.25" width="5.625" height="11.25"/><rect x="5.214" y="44.376" width="5.625" height="11.247"/><rect x="77.909" y="66.874" width="5.627" height="11.251"/><polygon points="10.839,38.751 10.839,44.376 21.655,44.376 21.655,49.998 27.28,49.998 27.28,55.623 32.906,55.623 32.906,38.751    27.28,38.751 27.28,44.376 22.089,44.376 22.089,38.751 27.28,38.751 27.28,27.501 21.655,27.501 21.655,38.751  "/><rect x="21.655" y="10.625" width="11.251" height="5.625"/><polygon points="61.034,10.625 55.409,10.625 55.409,38.751 61.034,38.751 61.034,16.25 72.284,16.25 72.284,10.625  "/><rect x="44.156" y="5" width="11.253" height="5.625"/></g></svg>
