<svg xmlns="http://www.w3.org/2000/svg">
    <symbol id="arrow-right" viewBox="0 0 100 125">
      <g transform="translate(0,-952.36218)"><path d="M 78.24746,1000.3632 62.24832,982.36321 c -1.03011,-1.22844 -3.06617,-1.33786 -4.26068,-0.26859 -1.19449,1.06926 -1.315,3.10913 -0.20782,4.26859 l 11.56187,13 -45.3418,0 c -1.6568,0 -2.9999,1.34319 -2.9999,2.99999 0,1.6569 1.3431,3 2.9999,3 l 45.3418,0 -11.56187,13 c -1.10718,1.1595 -0.95743,3.1957 0.23706,4.265 1.19451,1.0692 3.20133,0.9634 4.23144,-0.265 l 15.99914,-18 c 1.04459,-1.4553 0.96135,-2.7618 0,-4 z" style="text-indent:0;text-transform:none;direction:ltr;block-progression:tb;baseline-shift:baseline; enable-background:accumulate;" fill-opacity="1" stroke="none" marker="none" visibility="visible" display="inline" overflow="visible"/></g>
    </symbol>
    <symbol id="chevron-left" viewBox="0 0 10 18">
       <metadata id="metadata16"> <rdf:RDF> <cc:Work rdf:about=""> <dc:format>image/svg+xml</dc:format> <dc:type rdf:resource="http://purl.org/dc/dcmitype/StillImage"/> <dc:title>Forward</dc:title> </cc:Work> </rdf:RDF> </metadata>  <title id="title2">Forward</title> <path id="path4524" d="M 9.0041273,16.994042 1.0059465,8.9540363 8.9859304,1.0060035" style="fill:none;stroke:#000000;stroke-width:2;stroke-linecap:round;stroke-linejoin:round;stroke-miterlimit:4;stroke-dasharray:none;stroke-opacity:1"/> 
    </symbol>
    <symbol id="chevron-right" viewBox="0 0 10 18">
       <metadata id="metadata16"> <rdf:RDF> <cc:Work rdf:about=""> <dc:format>image/svg+xml</dc:format> <dc:type rdf:resource="http://purl.org/dc/dcmitype/StillImage"/> <dc:title>Forward</dc:title> </cc:Work> </rdf:RDF> </metadata>  <title id="title2">Forward</title> <path id="path4524" d="M 1.0059465,1.0060036 9.0041276,9.0460092 1.0241434,16.994042" style="fill:none;stroke:#000000;stroke-width:2;stroke-linecap:round;stroke-linejoin:round;stroke-miterlimit:4;stroke-dasharray:none;stroke-opacity:1"/> 
    </symbol>
    <symbol id="copyright" viewBox="0 0 20 20">
      <g id="g6" transform="matrix(0.2,0,0,0.2,0.05460335,0)"><path d="M 50,0 C 22.386,0 0,22.386 0,50 0,77.615 22.386,100 50,100 77.614,100 100,77.615 100,50 100,22.386 77.614,0 50,0 Z M 77.228,77.229 C 69.955,84.5 60.285,88.506 50,88.506 39.715,88.506 30.045,84.5 22.772,77.229 15.5,69.955 11.494,60.285 11.494,50 11.494,28.768 28.767,11.495 50,11.495 c 21.233,0 38.506,17.273 38.506,38.505 0,10.285 -4.005,19.955 -11.278,27.229 z" id="path2"/><path d="m 50.038,65.949 c -8.803,0 -15.965,-7.162 -15.965,-15.965 0,-8.803 7.162,-15.964 15.965,-15.964 6.414,0 11.953,3.805 14.489,9.273 H 76.672 C 73.684,31.362 62.895,22.525 50.038,22.525 c -15.165,0 -27.459,12.294 -27.459,27.459 0,15.166 12.294,27.459 27.459,27.459 12.877,0 23.679,-8.865 26.647,-20.824 H 64.554 c -2.525,5.5 -8.079,9.33 -14.516,9.33 z" id="path4"/></g>
    </symbol>
    <symbol id="hand" viewBox="0 0 100 125">
      <g><rect x="33.339" y="83.75" width="5.626" height="11.25"/><rect x="83.536" y="49.998" width="5.625" height="16.876"/><rect x="72.284" y="78.125" width="5.625" height="16.875"/><polygon points="38.531,16.25 32.906,16.25 32.906,27.501 38.531,27.501 38.531,38.751 44.156,38.751 44.156,10.625 38.531,10.625     "/><polygon points="77.909,16.25 72.284,16.25 72.284,44.376 77.909,44.376 77.909,33.126 83.536,33.126 83.536,27.501 77.909,27.501     "/><rect x="89.161" y="27.501" width="5.625" height="22.497"/><rect x="27.714" y="78.125" width="5.625" height="5.625"/><rect x="22.089" y="72.499" width="5.625" height="5.626"/><rect x="83.536" y="21.875" width="5.625" height="5.625"/><rect x="10.839" y="55.623" width="5.625" height="5.626"/><rect x="16.464" y="61.249" width="5.625" height="11.25"/><rect x="16.03" y="16.25" width="5.625" height="11.25"/><rect x="5.214" y="44.376" width="5.625" height="11.247"/><rect x="77.909" y="66.874" width="5.627" height="11.251"/><polygon points="10.839,38.751 10.839,44.376 21.655,44.376 21.655,49.998 27.28,49.998 27.28,55.623 32.906,55.623 32.906,38.751    27.28,38.751 27.28,44.376 22.089,44.376 22.089,38.751 27.28,38.751 27.28,27.501 21.655,27.501 21.655,38.751  "/><rect x="21.655" y="10.625" width="11.251" height="5.625"/><polygon points="61.034,10.625 55.409,10.625 55.409,38.751 61.034,38.751 61.034,16.25 72.284,16.25 72.284,10.625  "/><rect x="44.156" y="5" width="11.253" height="5.625"/></g>
    </symbol></svg>