<?xml version="1.0" encoding="utf-8"?>
<!-- Generator: Adobe Illustrator 16.0.0, SVG Export Plug-In . SVG Version: 6.00 Build 0)  -->
<!DOCTYPE svg PUBLIC "-//W3C//DTD SVG 1.1//EN" "http://www.w3.org/Graphics/SVG/1.1/DTD/svg11.dtd">
<svg version="1.1" id="Calque_1" xmlns="http://www.w3.org/2000/svg" xmlns:xlink="http://www.w3.org/1999/xlink" x="0px" y="0px"
	 width="250px" height="500px" viewBox="295.945 345.275 250 500" enable-background="new 295.945 345.275 250 500"
	 xml:space="preserve">
<g>
	<path d="M407.395,574.626c0,22.999,0,45.899,0,68.799c1.5,0.3,42.1,0.2,42.999-0.1c0-22.9,0-45.8,0-68.699
		C436.094,574.626,421.794,574.626,407.395,574.626z M495.493,574.626c-14.199,0-28.199,0-42.199,0c-0.3,1.3-0.2,67.898,0,68.898
		c14,0,28.1,0,42.199,0C495.493,620.525,495.493,597.625,495.493,574.626z M478.494,369.227
		c-1.601-0.199-138.299-0.199-139.299,0.101c0,6.8,0,13.6,0,20.399c1.5,0.2,138.299,0.2,139.299-0.1
		C478.494,382.828,478.494,376.028,478.494,369.227z M523.393,472.226c-8.499,0-16.899,0-25.199,0c0,16.101,0,32.2,0,48.399
		c13.8,0,27.6,0,41.399,0c0-33.399,0-66.799,0-100.198c-5.399,0-10.7,0-16.2,0C523.393,437.727,523.393,454.927,523.393,472.226z
		 M498.394,626.325c-0.3,1.7-0.2,44.6,0.1,45.6c8.2,0,16.5,0,24.899,0c0,2.5,0,5,0,7.399c0,2.5,0,5,0,7.4c0,2.399,0,4.899,0,7.3
		c0,2.399,0,4.899,0,7.3c0,2.399,0,4.899,0,7.3c0,2.5,0,5,0,7.399c0,2.4-0.1,4.801,0,7.2c5.5,0,10.801,0,16.101,0
		c0-32.399,0-64.699,0-96.999C525.793,626.325,512.194,626.325,498.394,626.325z M300.996,820.222c19.499,0,38.899,0,58.299,0
		c0-5.5,0-10.9,0-16.5c-15.1,0-30.199,0-45.399,0c0-43.1,0-86.099,0-129.099c-4.399,0-8.6,0-12.899,0
		C300.996,723.223,300.996,771.623,300.996,820.222z M359.295,469.027c0-16.2,0-32.4,0-48.6c-3.8,0-7.6,0-11.3,0
		c-3.8,0-7.6,0.1-11.5-0.101c0-3.199,0-6.3,0-9.399s0-6.1,0-9.2c0-3.1,0-6.2,0-9.3c-6.699,0-13.199,0-19.8,0
		c0,25.5,0,50.899,0,76.499C330.896,469.027,345.096,469.027,359.295,469.027z M313.996,520.626c0-43.6,0-87.198,0-130.898
		c7.6,0,14.999,0,22.499,0c0-6.899,0-13.699,0-20.5c-1.3-0.3-34.499-0.199-35.399,0c0,50.4,0,100.899,0,151.398
		C305.296,520.626,309.596,520.626,313.996,520.626z M362.095,820.222c44.6,0,88.999,0,133.398,0c0-5.5,0-10.9,0-16.4
		c-44.499,0-88.898,0-133.398,0C362.095,809.322,362.095,814.722,362.095,820.222z M450.394,420.427c-14.399,0-28.699,0-42.999,0
		c0,16.3,0,32.499,0,48.799c14.399,0,28.699,0,42.999,0C450.394,453.027,450.394,436.727,450.394,420.427z M450.394,726.124
		c-14.399,0-28.6,0-42.999,0c0,16.3,0,32.499,0,48.599c1.9,0.301,41.999,0.2,42.999-0.1
		C450.394,758.523,450.394,742.323,450.394,726.124z M407.395,520.626c14.399,0,28.699,0,42.999,0c0-16.199,0-32.3,0-48.599
		c-14.399,0-28.6,0-42.999,0C407.395,488.226,407.395,504.427,407.395,520.626z M404.595,674.724c-1.7-0.3-41.6-0.2-42.5,0.1
		c0,16.2,0,32.3,0,48.6c14.2,0,28.3,0,42.5,0C404.595,707.024,404.595,690.924,404.595,674.724z M362.095,574.626
		c0,16.3,0,32.499,0,48.599c1.5,0.301,41.6,0.2,42.5-0.1c0-16.2,0-32.3,0-48.6C390.395,574.626,376.295,574.626,362.095,574.626z
		 M362.196,471.927c0,16.3,0,32.5,0,48.6c1.5,0.3,41.6,0.2,42.399,0c0-16.2,0-32.3,0-48.6
		C390.395,471.927,376.295,471.927,362.196,471.927z M495.594,801.022c0-7.8,0-15.6,0-23.399c-2.101-0.3-87.299-0.2-88.1,0.1
		c0,7.7,0,15.5,0,23.3C436.895,801.022,466.194,801.022,495.594,801.022z M404.595,571.825c0-16.199,0-32.199,0-48.299
		c-1.601-0.3-41.6-0.2-42.5,0.1c0,16,0,32.1,0,48.199C376.295,571.825,390.395,571.825,404.595,571.825z M453.094,726.124
		c0,0.5,0,0.899,0,1.399c0,15.7,0.101,31.5,0.101,47.199c0,0,0,0.101,0.1,0.101l0.1,0.1c14.101,0,28.1,0,42.2,0
		c0.3-2.399,0.1-47.799-0.101-48.699C481.394,726.124,467.394,726.124,453.094,726.124z M495.493,523.426
		c-14.199,0-28.199,0-42.299,0c0,16.101,0,32.2,0,48.399c14.1,0,28.199,0,42.299,0C495.493,555.725,495.493,539.626,495.493,523.426
		z M316.696,726.124c0,24.999,0,49.999,0,74.898c14.3,0,28.4,0,42.6,0c0.3-1.699,0.2-22.6-0.1-23.499c-7.5,0-15,0-22.7,0
		c0-17.2,0-34.3,0-51.399C329.796,726.124,323.296,726.124,316.696,726.124z M359.396,574.626c-2-0.301-19.3-0.2-20.101,0.1
		c-0.199,1.6-0.199,96.199,0.101,97.099c6.6,0,13.3,0,20,0C359.396,639.325,359.396,607.025,359.396,574.626z M316.596,574.626
		c0,32.399,0,64.799,0,97.198c6.7,0,13.2,0,19.699,0c0.301-1.2,0.2-96.198,0-97.198
		C329.796,574.626,323.296,574.626,316.596,574.626z M362.196,626.125c0,15.3,0,30.5,0,45.6c1.899,0.3,41.6,0.2,42.499-0.101
		c0.3-3.3,0.101-44.599-0.2-45.499C390.395,626.125,376.295,626.125,362.196,626.125z M301.096,523.426
		c-0.3,1.2-0.199,147.398,0,148.299c4.2,0,8.5,0,12.7,0c0-49.5,0-98.899,0-148.299C309.596,523.426,305.296,523.426,301.096,523.426
		z M453.294,392.527c-0.3,1.5-0.2,24.2,0.1,25.101c2.4,0.199,66.399,0.1,67.3-0.101c0-8.3,0-16.6,0-25
		C498.194,392.527,475.694,392.527,453.294,392.527z M523.393,417.527c2,0.3,15.4,0.2,16.2-0.1c0-16.1,0-32.2,0-48.2
		c-0.1-0.1-0.2-0.1-0.3-0.1c-19,0-38.1,0-57.1,0c-0.3,0-0.6,0-0.899,0.1c0,0-0.101,0-0.101,0.101l-0.1,0.1c0,6.8,0,13.6,0,20.5
		c14.1,0,28,0,42.1,0C523.393,399.128,523.393,408.328,523.393,417.527z M316.596,520.626c14.3,0,28.399,0,42.699,0
		c0-0.5,0-1,0-1.399c-0.3-4.8-1-9.5-2.399-14.1c-3-9.7-8.2-18-16.101-24.4c-6.399-5.199-13.699-8.3-21.999-8.899
		c-0.7-0.101-1.4,0-2.101,0C316.596,488.127,316.596,504.326,316.596,520.626z M407.494,523.426c0,0.801,0,1.5,0,2.2
		c0.5,7.101,2.2,14,5.301,20.5c4.1,8.399,9.899,15.3,17.899,20.2c5.6,3.399,11.7,5.399,18.399,5.6c0.4,0,0.9,0,1.3,0
		c0.301-2.1,0.2-47.5-0.1-48.399C435.994,523.426,421.794,523.426,407.494,523.426z M316.696,674.624c0,0.5,0,0.9,0,1.301
		c0.101,2.899,0.5,5.8,1,8.699c1.9,9.101,5.7,17.4,11.9,24.4c7.3,8.199,16.199,13.199,27.3,14.199c0.8,0.101,1.6,0,2.399,0
		c0.3-2.6,0.101-47.799-0.1-48.699C345.096,674.624,330.995,674.624,316.696,674.624z M362.095,774.823c14.2,0,28.3,0,42.5,0
		c0-0.5,0-1,0-1.4c-0.2-2-0.3-4-0.601-6c-1.399-9.1-4.699-17.399-10.399-24.699c-6.8-8.7-15.5-14.5-26.6-16.2
		c-1.601-0.3-3.2-0.5-4.8-0.3C362.095,742.424,362.095,758.523,362.095,774.823z M404.595,420.427c-14.2,0-28.3,0-42.5,0
		c0,0.5,0,0.899,0,1.3c0.3,2.5,0.5,5.1,0.9,7.6c1.6,8.8,5,16.8,10.7,23.8c7.5,9.3,16.999,15,29.1,16c0.6,0,1.199,0,1.8,0
		C404.595,452.827,404.595,436.727,404.595,420.427z M453.195,674.624c0,0.4,0,0.601,0,0.801c0.1,2.999,0.399,5.999,1,8.999
		c1.899,9.4,5.8,17.9,12.199,25c6.7,7.4,14.8,12.2,24.7,13.6c1.399,0.2,2.8,0.5,4.3,0.301c0-16.3,0-32.5,0-48.7
		C481.394,674.624,467.394,674.624,453.195,674.624z M453.394,469.427c14.2,0,28,0,41.899,0c0-0.2,0.101-0.3,0.101-0.399
		c0-15.9,0-31.9,0-47.8c0-0.2,0-0.4-0.101-0.6c0,0,0-0.101-0.1-0.101l-0.1-0.1c-0.301,0-0.601,0-0.9,0c-4,0.3-7.8,1.1-11.5,2.6
		c-8.5,3.4-15.1,9.2-20.199,16.7c-4.7,6.899-7.4,14.5-8.601,22.699C453.695,464.726,453.594,466.927,453.394,469.427z
		 M495.394,472.226c-14,0-27.899,0-42,0c0,0.4,0,0.801,0,1.101c0.2,2.399,0.4,4.8,0.8,7.1c1.5,9,5,17.2,10.801,24.399
		c6.8,8.4,15.399,13.9,26.299,15.601c1.301,0.199,2.7,0.399,4,0.3C495.394,504.427,495.394,488.427,495.394,472.226z
		 M498.293,623.325c2.4,0,4.5-0.4,6.601-0.9c8.699-2.1,15.899-6.7,21.8-13.399c8.3-9.5,12.3-20.8,13-33.399c0-0.4,0-0.7-0.101-1.101
		c-13.8,0-27.5,0-41.399,0C498.293,590.825,498.293,607.025,498.293,623.325z M498.194,571.725c1.8,0.3,40.6,0.2,41.399-0.1
		c0-0.5,0-1,0-1.5c-0.3-2.5-0.5-4.9-0.899-7.4c-1.9-9.899-6-18.699-12.9-25.999c-6.5-7-14.399-11.5-23.899-13
		c-1.2-0.2-2.4-0.301-3.7-0.4C498.194,539.626,498.194,555.626,498.194,571.725z M539.593,774.823c0-0.8,0.1-1.4,0-2.1
		c-0.2-1.9-0.3-3.801-0.6-5.7c-1.5-9.4-5.101-18-11.2-25.4c-6.7-8.199-15.2-13.6-25.8-15.299c-1.2-0.2-2.399-0.4-3.6-0.301
		c0,16.3,0,32.5,0,48.7C512.093,774.823,525.793,774.823,539.593,774.823z M498.194,420.427c0,16.399,0,32.699,0,49.1
		c7.1,0,14.1,0.1,21.1,0.1c0.4,0,0.8,0,1.2-0.1c0,0,0.1,0,0.1-0.101l0.101-0.1c0-16.3,0-32.6,0-48.899
		C513.194,420.427,505.694,420.427,498.194,420.427z M498.394,820.222c1.6,0.2,40.3,0.2,41.199-0.1c0-14.101,0-28.3,0-42.5
		c-5.399,0-10.7,0-16.2,0c0,8.7,0,17.399,0,26.1c-8.399,0-16.699,0-24.999,0C498.394,809.322,498.394,814.722,498.394,820.222z
		 M498.394,674.624c-0.3,2.601-0.101,47.8,0.1,48.7c2.8,0.199,21.3,0.1,22.2-0.101c0-16.199,0-32.3,0-48.6
		C513.293,674.624,505.894,674.624,498.394,674.624z M407.395,671.824c14.399,0,28.699,0,42.999,0c0-8.5,0-16.899,0-25.499
		c-14.399,0-28.6,0-42.999,0C407.395,654.824,407.395,663.224,407.395,671.824z M450.294,417.628c0.3-1.7,0.2-24.301-0.1-25.101
		c-14.3,0-28.5,0-42.8,0c0,8.4,0,16.7,0,25.101C421.794,417.628,435.994,417.628,450.294,417.628z M453.195,671.724
		c1.399,0.3,41.399,0.2,42.299,0c0-8.4,0-16.9,0-25.3c-14.1,0-28.199,0-42.299,0C453.195,654.824,453.195,663.224,453.195,671.724z
		 M404.595,417.628c0-8.4,0-16.7,0-25c-1.4-0.3-41.6-0.2-42.399,0c0,8.3,0,16.6,0,25
		C376.295,417.628,390.395,417.628,404.595,417.628z M404.595,777.722c-1.8-0.3-41.6-0.199-42.5,0.101c0,7.7,0,15.5,0,23.199
		c1.7,0.301,41.6,0.2,42.5-0.1C404.595,793.222,404.595,785.523,404.595,777.722z M339.295,726.124
		c-0.3,1.899-0.199,47.799,0.101,48.699c6.7,0,13.3,0,20,0c0.199-2.1,0.1-47.8-0.101-48.699
		C352.595,726.124,345.896,726.124,339.295,726.124z M359.396,523.526c-2.2-0.3-19.2-0.2-20.101,0.1
		c-0.3,1.9-0.199,47.399,0.101,48.3c6.6,0,13.3,0,20,0C359.396,555.626,359.396,539.626,359.396,523.526z M450.394,676.925
		c-0.1,0-0.1-0.101-0.199-0.101c-13.8,15.5-27.601,30.899-41.5,46.399c1.5,0.3,40.8,0.2,41.699,0
		C450.394,707.723,450.394,692.324,450.394,676.925z M316.796,523.426c-0.3,1.301-0.2,47.5,0,48.399c2,0.301,18.8,0.2,19.6-0.1
		c0.3-2.5,0.1-47.3-0.101-48.199C329.796,523.426,323.296,523.426,316.796,523.426z M407.395,720.523c0.3-0.199,0.4-0.3,0.5-0.399
		c13.5-15.1,26.899-30.2,40.399-45.3v-0.1v-0.101c-13.6,0-27.199,0-40.8,0C407.395,689.924,407.395,705.124,407.395,720.523z
		 M498.394,801.022c7.5,0,14.899,0,22.3,0c0-7.8,0-15.6,0-23.399c-7.5,0-14.9,0-22.3,0
		C498.394,785.523,498.394,793.222,498.394,801.022z M359.396,392.527c-6.801,0-13.4,0-20.101,0c-0.3,1.601-0.199,24.2,0.101,25.101
		c2.399,0.199,19.1,0.1,20-0.101C359.396,409.227,359.396,400.927,359.396,392.527z M453.195,452.827
		c5.1-14.7,13.899-25.899,28.6-32.399c-9.7,0-19.2,0-28.6,0C453.195,431.327,453.195,442.027,453.195,452.827z M511.194,623.425
		c2.7,0.3,27.5,0.2,28.5,0c0-10.5,0-20.899,0-31.399c0,0,0-0.1-0.101-0.1c0,0-0.1,0-0.2,0c-2.3,6.899-5.8,13.3-10.6,18.8
		C523.893,616.325,518.093,620.525,511.194,623.425z M453.195,520.526c1.699,0.3,27.399,0.2,28.199-0.101
		c-0.3-0.199-0.6-0.3-0.899-0.399c-4.7-2-8.9-4.8-12.7-8.3c-6.601-6.1-11.2-13.6-14.1-22.1c-0.101-0.4-0.301-0.7-0.4-1.101
		c-0.1,0-0.1,0-0.2,0.101C453.195,499.226,453.195,509.927,453.195,520.526z M316.796,691.824c-0.3,2.1-0.2,30.6,0,31.5
		c9.3,0,18.6,0,27.899,0c-6.7-3-12.5-7.2-17.3-12.8C322.596,705.024,319.196,698.723,316.796,691.824z M390.295,469.127
		c0-0.1,0-0.1,0-0.2c-0.3-0.1-0.601-0.3-0.9-0.399c-4.7-2-8.899-4.801-12.6-8.2c-6.6-6.1-11.2-13.5-14.2-22
		c-0.1-0.3-0.3-0.6-0.5-1.1c0,10.8,0,21.3,0,31.899C371.595,469.127,380.895,469.127,390.295,469.127z M407.494,540.426
		c-0.3,2.3-0.199,30.5,0.101,31.399c0.3,0,0.5,0,0.8,0c9,0,17.899,0,26.899,0c0,0,0.101,0,0.101-0.1c0,0,0-0.1,0.1-0.1
		C421.294,565.525,412.595,554.626,407.494,540.426z M331.096,471.827c0.5,0.2,0.8,0.399,1.1,0.6c4.3,1.8,8.1,4.3,11.6,7.4
		c7,6.199,11.9,13.8,15,22.6c0.101,0.3,0.3,0.6,0.4,1.1c0.3-1.899,0.2-30.8-0.101-31.8
		C349.896,471.827,340.596,471.827,331.096,471.827z M404.595,757.723c0-10.5,0-21,0-31.5c-9.4,0-18.7,0-28.3,0
		C390.695,732.424,399.494,743.424,404.595,757.723z M539.694,523.326c-9.2,0-18.3,0-27.3,0c-0.2,0-0.5,0-0.7,0.1
		c0,0-0.101,0-0.101,0.101v0.1c0.2,0.101,0.4,0.2,0.7,0.3c5.3,2.301,10,5.5,14.2,9.601c5.899,5.899,10.1,12.8,12.8,20.6
		c0.1,0.3,0.2,0.6,0.4,0.899c0,0,0.1,0,0.1-0.1C539.694,544.526,539.694,534.026,539.694,523.326z M511.593,726.124
		c0,0.1,0,0.2,0,0.2c0.301,0.1,0.601,0.3,0.9,0.399c4.1,1.8,7.8,4.1,11.2,7c7.3,6.2,12.3,14,15.5,23c0.1,0.3,0.199,0.7,0.399,1
		h0.101c0-10.5,0-21,0-31.5C530.194,726.124,520.894,726.124,511.593,726.124z M453.195,723.223c1.5,0.3,27.199,0.2,27.999-0.1
		c-14.1-6.2-22.8-17.1-27.999-31.2C453.195,702.324,453.195,712.824,453.195,723.223z"/>
	<path d="M407.395,574.626c14.399,0,28.6,0,42.999,0c0,22.999,0,45.899,0,68.699c-0.899,0.199-41.499,0.3-42.999,0.1
		C407.395,620.525,407.395,597.625,407.395,574.626z"/>
	<path d="M495.493,574.626c0,22.999,0,45.899,0,68.898c-14.1,0-28.1,0-42.199,0c-0.3-1-0.3-67.599,0-68.898
		C467.294,574.626,481.294,574.626,495.493,574.626z"/>
	<path d="M478.494,369.227c0,6.801,0,13.601,0,20.3c-0.9,0.2-137.699,0.301-139.299,0.101c0-6.8,0-13.6,0-20.4
		C340.096,369.028,476.894,368.927,478.494,369.227z"/>
	<path d="M523.393,472.226c0-17.399,0-34.499,0-51.799c5.5,0,10.801,0,16.2,0c0,33.399,0,66.799,0,100.198c-13.8,0-27.6,0-41.399,0
		c0-16.1,0-32.199,0-48.399C506.594,472.226,514.894,472.226,523.393,472.226z"/>
	<path d="M498.394,626.325c13.8,0,27.499,0,41.199,0c0,32.3,0,64.599,0,96.999c-5.3,0-10.6,0-16.1,0c-0.101-2.4,0-4.801,0-7.2
		c0-2.5,0-5,0-7.4c0-2.399,0-4.899,0-7.3c0-2.399,0-4.899,0-7.3c0-2.399,0-4.899,0-7.3c0-2.5,0-5,0-7.399c0-2.4,0-4.9,0-7.4
		c-8.4,0-16.7,0-24.899,0C498.194,670.925,498.094,628.025,498.394,626.325z"/>
	<path d="M300.996,820.222c0-48.6,0-97.099,0-145.599c4.3,0,8.5,0,12.899,0c0,43,0,85.999,0,129.099c15.2,0,30.2,0,45.399,0
		c0,5.6,0,11,0,16.5C339.896,820.222,320.495,820.222,300.996,820.222z"/>
	<path d="M359.295,469.027c-14.199,0-28.399,0-42.699,0c0-25.6,0-51,0-76.5c6.6,0,13.1,0,19.8,0c0.1,3.101,0,6.2,0,9.301
		c0,3.1,0,6.1,0,9.199c0,3.101,0,6.2,0,9.4c3.899,0.2,7.7,0.1,11.5,0.1c3.699,0,7.5,0,11.3,0
		C359.295,436.627,359.295,452.827,359.295,469.027z"/>
	<path d="M313.996,520.626c-4.4,0-8.601,0-12.9,0c0-50.499,0-100.898,0-151.398c0.9-0.3,34.1-0.3,35.399,0c0,6.801,0,13.601,0,20.5
		c-7.5,0-14.899,0-22.499,0C313.996,433.427,313.996,477.026,313.996,520.626z"/>
	<path d="M362.095,820.222c0-5.5,0-10.9,0-16.4c44.5,0,88.899,0,133.398,0c0,5.4,0,10.801,0,16.4
		C451.094,820.222,406.695,820.222,362.095,820.222z"/>
	<path d="M450.394,420.427c0,16.3,0,32.499,0,48.799c-14.3,0-28.6,0-42.999,0c0-16.3,0-32.499,0-48.799
		C421.794,420.427,436.094,420.427,450.394,420.427z"/>
	<path d="M450.394,726.124c0,16.199,0,32.399,0,48.499c-1,0.3-41.099,0.4-42.999,0.1c0-16.199,0-32.399,0-48.599
		C421.794,726.124,436.094,726.124,450.394,726.124z"/>
	<path d="M407.395,520.626c0-16.199,0-32.399,0-48.599c14.399,0,28.6,0,42.999,0c0,16.299,0,32.399,0,48.599
		C436.094,520.626,421.794,520.626,407.395,520.626z"/>
	<path d="M404.595,674.724c0,16.199,0,32.3,0,48.699c-14.2,0.1-28.3,0-42.5,0c0-16.3,0-32.5,0-48.6
		C362.995,674.524,402.994,674.425,404.595,674.724z"/>
	<path d="M362.095,574.626c14.2,0,28.3,0,42.5,0c0,16.199,0,32.399,0,48.599c-0.9,0.301-41,0.301-42.5,0.101
		C362.095,607.125,362.095,590.926,362.095,574.626z"/>
	<path d="M362.196,471.927c14.199,0,28.3,0,42.399,0c0,16.3,0,32.399,0,48.6c-0.9,0.2-40.899,0.3-42.399,0
		C362.196,504.326,362.196,488.127,362.196,471.927z"/>
	<path d="M495.594,801.022c-29.4,0-58.699,0-88.1,0c0-7.8,0-15.499,0-23.3c0.801-0.3,85.999-0.399,88.1-0.1
		C495.594,785.423,495.594,793.222,495.594,801.022z"/>
	<path d="M404.595,571.825c-14.2,0-28.3,0-42.5,0c0-16.1,0-32.199,0-48.199c0.9-0.3,40.899-0.399,42.5-0.1
		C404.595,539.626,404.595,555.626,404.595,571.825z"/>
	<path d="M453.094,726.124c14.2,0,28.2,0,42.3,0c0.3,0.899,0.399,46.299,0.1,48.699c-14,0-28.1,0-42.199,0c0,0-0.1,0-0.1-0.101
		l-0.101-0.1c0-15.7-0.1-31.5-0.1-47.199C453.094,727.023,453.094,726.624,453.094,726.124z"/>
	<path d="M495.493,523.426c0,16.2,0,32.2,0,48.399c-14.1,0-28.199,0-42.299,0c0-16.1,0-32.199,0-48.399
		C467.294,523.426,481.294,523.426,495.493,523.426z"/>
	<path d="M316.696,726.124c6.601,0,13.101,0,19.8,0c0,17.1,0,34.199,0,51.399c7.7,0,15.2,0,22.7,0c0.3,1,0.399,21.8,0.1,23.499
		c-14.199,0-28.3,0-42.6,0C316.696,776.123,316.696,751.123,316.696,726.124z"/>
	<path d="M359.396,574.626c0,32.399,0,64.699,0,97.198c-6.7,0-13.4,0-20,0c-0.3-1-0.3-95.499-0.101-97.099
		C340.096,574.525,357.295,574.426,359.396,574.626z"/>
	<path d="M316.596,574.626c6.7,0,13.2,0,19.699,0c0.301,1,0.301,95.998,0,97.198c-6.499,0-12.999,0-19.699,0
		C316.596,639.425,316.596,607.025,316.596,574.626z"/>
	<path d="M362.196,626.125c14.199,0,28.199,0,42.299,0c0.301,1,0.4,42.3,0.2,45.499c-0.8,0.301-40.6,0.4-42.499,0.101
		C362.196,656.524,362.196,641.425,362.196,626.125z"/>
	<path d="M301.096,523.426c4.2,0,8.4,0,12.8,0c0,49.5,0,98.799,0,148.299c-4.3,0-8.5,0-12.699,0
		C300.897,670.824,300.897,524.626,301.096,523.426z"/>
	<path d="M453.294,392.527c22.399,0,44.899,0,67.399,0c0,8.4,0,16.7,0,25c-1,0.2-64.899,0.3-67.3,0.101
		C453.094,416.727,452.994,393.927,453.294,392.527z"/>
	<path d="M481.294,369.227C481.394,369.128,481.394,369.128,481.294,369.227c0.399-0.1,0.699-0.1,1-0.1
		C501.293,369.028,481.294,369.227,481.294,369.227z"/>
	<path d="M316.596,520.626c0-16.3,0-32.499,0-48.899c0.7,0,1.399,0,2.1,0c8.3,0.7,15.6,3.7,22,8.9c7.9,6.5,13.1,14.8,16.1,24.399
		c1.4,4.6,2.2,9.3,2.4,14.1c0,0.4,0,0.9,0,1.4C345.096,520.626,330.896,520.626,316.596,520.626z"/>
	<path d="M407.494,523.426c14.4,0,28.6,0,42.8,0c0.3,0.9,0.4,46.3,0.1,48.399c-0.399,0-0.8,0-1.3,0
		c-6.6-0.199-12.699-2.199-18.399-5.6c-8-4.899-13.8-11.8-17.899-20.199c-3.101-6.5-4.801-13.3-5.301-20.5
		C407.395,524.926,407.494,524.226,407.494,523.426z"/>
	<path d="M316.696,674.624c14.3,0,28.4,0,42.5,0c0.3,0.9,0.399,46.1,0.1,48.7c-0.8,0-1.6,0.1-2.399,0c-11-1-20-6-27.3-14.2
		c-6.2-7-10-15.3-11.9-24.399c-0.6-2.9-1-5.8-1-8.7C316.696,675.524,316.696,675.124,316.696,674.624z"/>
	<path d="M362.095,774.823c0-16.3,0-32.5,0-48.699c1.7-0.2,3.3,0.1,4.8,0.3c11.101,1.8,19.8,7.5,26.601,16.199
		c5.699,7.301,8.999,15.601,10.399,24.7c0.3,2,0.4,4,0.6,6c0,0.4,0,0.899,0,1.399C390.395,774.823,376.295,774.823,362.095,774.823z
		"/>
	<path d="M404.595,420.427c0,16.3,0,32.399,0,48.699c-0.601,0-1.2,0-1.8,0c-12.101-1-21.6-6.7-29.1-16c-5.7-7-9.101-15-10.7-23.8
		c-0.4-2.5-0.601-5.1-0.9-7.6c0-0.4,0-0.8,0-1.3C376.295,420.427,390.395,420.427,404.595,420.427z"/>
	<path d="M453.195,674.624c14.199,0,28.199,0,42.299,0c0,16.2,0,32.4,0,48.7c-1.5,0.199-2.899-0.101-4.3-0.301
		c-9.899-1.5-18.1-6.3-24.699-13.6c-6.4-7.2-10.4-15.6-12.2-25c-0.6-3-1-5.899-1-8.999
		C453.195,675.124,453.195,674.925,453.195,674.624z"/>
	<path d="M453.394,469.427c0.2-2.399,0.301-4.7,0.7-6.899c1.2-8.2,3.9-15.8,8.6-22.7c5.101-7.5,11.7-13.3,20.2-16.699
		c3.7-1.5,7.6-2.301,11.5-2.601c0.3,0,0.6,0,0.899,0l0.101,0.101l0.1,0.1c0,0.2,0.101,0.4,0.101,0.6c0,15.9,0,31.9,0,47.8
		c0,0.1-0.101,0.2-0.101,0.4C481.394,469.427,467.494,469.427,453.394,469.427z"/>
	<path d="M495.394,472.226c0,16.2,0,32.3,0,48.399c-1.4,0.2-2.7-0.1-4-0.3c-10.9-1.6-19.5-7.1-26.3-15.6
		c-5.8-7.1-9.3-15.3-10.8-24.399c-0.4-2.4-0.5-4.7-0.8-7.101c0-0.399,0-0.699,0-1.1
		C467.494,472.226,481.394,472.226,495.394,472.226z"/>
	<path d="M498.293,623.325c0-16.3,0-32.5,0-48.699c13.8,0,27.5,0,41.4,0c0,0.399,0.1,0.699,0.1,1.1c-0.7,12.5-4.7,23.8-13,33.399
		c-5.9,6.7-13.1,11.3-21.8,13.4C502.793,622.925,500.594,623.325,498.293,623.325z"/>
	<path d="M498.194,571.725c0-16.1,0-32.1,0-48.3c1.3,0.101,2.5,0.2,3.7,0.4c9.5,1.5,17.399,6,23.899,13c6.9,7.399,11,16.199,12.9,26
		c0.5,2.399,0.6,4.899,0.899,7.399c0.101,0.5,0,1,0,1.5C538.793,571.926,499.993,572.025,498.194,571.725z"/>
	<path d="M539.593,774.823c-13.8,0-27.5,0-41.199,0c0-16.2,0-32.399,0-48.699c1.2-0.101,2.399,0.1,3.6,0.3
		c10.6,1.7,19.1,7.1,25.8,15.3c6.1,7.399,9.7,16,11.2,25.399c0.3,1.9,0.5,3.8,0.6,5.7
		C539.694,773.423,539.593,774.123,539.593,774.823z"/>
	<path d="M498.194,420.427c7.5,0,15,0,22.5,0c0,16.3,0,32.6,0,48.899c0,0,0,0-0.101,0.1l-0.1,0.101c-0.4,0-0.8,0.1-1.2,0.1
		c-7,0-14-0.1-21.1-0.1C498.194,453.127,498.194,436.827,498.194,420.427z"/>
	<path d="M498.394,674.624c7.5,0,14.899,0,22.399,0c0,16.2,0,32.4,0,48.6c-0.9,0.3-19.399,0.4-22.199,0.101
		C498.194,722.424,498.094,677.224,498.394,674.624z"/>
	<path d="M407.395,671.824c0-8.5,0-17,0-25.499c14.399,0,28.6,0,42.999,0c0,8.499,0,16.999,0,25.499
		C436.094,671.824,421.794,671.824,407.395,671.824z"/>
	<path d="M450.294,417.628c-14.3,0-28.6,0-42.899,0c0-8.4,0-16.7,0-25.101c14.3,0,28.6,0,42.8,0
		C450.494,393.327,450.594,415.827,450.294,417.628z"/>
	<path d="M453.195,671.724c0-8.4,0-16.9,0-25.399c14.1,0,28.199,0,42.299,0c0,8.499,0,16.899,0,25.299
		C494.594,671.925,454.594,671.925,453.195,671.724z"/>
	<path d="M404.595,417.628c-14.2,0-28.3,0-42.399,0c0-8.4,0-16.7,0-25c0.899-0.2,40.999-0.3,42.399,0
		C404.595,400.927,404.595,409.227,404.595,417.628z"/>
	<path d="M404.595,777.722c0,7.801,0,15.5,0,23.2c-0.9,0.3-40.8,0.3-42.5,0.1c0-7.699,0-15.499,0-23.199
		C362.995,777.523,402.795,777.423,404.595,777.722z"/>
	<path d="M339.295,726.124c6.7,0,13.3,0,19.9,0c0.3,0.899,0.399,46.6,0.1,48.699c-6.7,0-13.3,0-20,0
		C339.096,773.923,338.995,728.023,339.295,726.124z"/>
	<path d="M359.396,523.526c0,16.1,0,32.199,0,48.399c-6.7,0-13.4,0-20,0c-0.3-1-0.4-46.5-0.101-48.3
		C340.096,523.326,357.095,523.226,359.396,523.526z"/>
	<path d="M450.394,676.925c0,15.399,0,30.899,0,46.299c-0.899,0.3-40.199,0.3-41.699,0c13.899-15.5,27.7-30.999,41.5-46.399
		C450.294,676.824,450.394,676.824,450.394,676.925z"/>
	<path d="M316.796,523.426c6.5,0,13,0,19.499,0c0.301,0.9,0.4,45.8,0.101,48.2c-0.8,0.3-17.6,0.399-19.6,0.1
		C316.496,570.926,316.496,524.726,316.796,523.426z"/>
	<path d="M407.395,720.523c0-15.399,0-30.6,0-45.899c13.6,0,27.199,0,40.8,0c0,0,0,0,0,0.101v0.1c-13.5,15.1-26.9,30.2-40.399,45.3
		C407.795,720.223,407.695,720.324,407.395,720.523z"/>
	<path d="M498.394,801.022c0-7.8,0-15.6,0-23.399c7.399,0,14.8,0,22.3,0c0,7.8,0,15.6,0,23.399
		C513.293,801.022,505.894,801.022,498.394,801.022z"/>
	<path d="M359.396,392.527c0,8.4,0,16.7,0,25c-0.9,0.3-17.601,0.4-20,0.101c-0.3-0.801-0.4-23.5-0.101-25.101
		C345.896,392.527,352.595,392.527,359.396,392.527z"/>
	<path d="M453.195,452.827c0-10.8,0-21.5,0-32.399c9.399,0,18.899,0,28.6,0C467.094,426.927,458.294,438.127,453.195,452.827z"/>
	<path d="M511.194,623.425c6.899-2.899,12.699-7.1,17.6-12.699c4.8-5.5,8.3-11.9,10.6-18.8c0.101,0,0.101,0,0.2,0c0,0,0.1,0,0.1,0.1
		c0,10.5,0,20.899,0,31.399C538.694,623.625,513.894,623.724,511.194,623.425z"/>
	<path d="M453.195,520.526c0-10.7,0-21.3,0-32c0.1,0,0.1,0,0.199-0.1c0.101,0.399,0.301,0.7,0.4,1.1c2.899,8.5,7.5,15.9,14.1,22.1
		c3.7,3.5,7.9,6.301,12.7,8.3c0.3,0.101,0.6,0.301,0.899,0.4C480.594,520.726,454.894,520.826,453.195,520.526z"/>
	<path d="M316.796,691.824c2.399,6.899,5.8,13.2,10.6,18.7c4.8,5.499,10.5,9.8,17.3,12.8c-9.3,0-18.6,0-27.899,0
		C316.496,722.424,316.396,693.924,316.796,691.824z"/>
	<path d="M390.295,469.127c-9.3,0-18.7,0-28.1,0c0-10.6,0-21.2,0-31.899c0.199,0.5,0.3,0.8,0.5,1.1c3,8.5,7.6,15.9,14.199,22
		c3.7,3.399,7.9,6.2,12.601,8.2c0.3,0.1,0.6,0.3,0.899,0.399C390.295,469.027,390.295,469.027,390.295,469.127z"/>
	<path d="M407.494,540.426c5.101,14.2,13.8,25.1,27.9,31.3c0,0.1,0,0.1-0.101,0.1l-0.1,0.101c-9,0-17.9,0-26.899,0
		c-0.301,0-0.601,0-0.801,0C407.295,570.926,407.195,542.725,407.494,540.426z"/>
	<path d="M331.096,471.827c9.5,0,18.8,0,28.1,0c0.3,1,0.3,29.899,0.1,31.8c-0.2-0.5-0.3-0.801-0.399-1.101
		c-3.101-8.8-7.9-16.5-15-22.6c-3.5-3.1-7.4-5.6-11.6-7.399C331.896,472.226,331.596,472.027,331.096,471.827z"/>
	<path d="M404.595,757.723c-5.101-14.3-13.9-25.2-28.3-31.5c9.6,0,18.899,0,28.3,0C404.595,736.723,404.595,747.223,404.595,757.723
		z"/>
	<path d="M539.694,523.326c0,10.7,0,21.1,0,31.6c0,0-0.101,0-0.101,0.1c-0.1-0.3-0.3-0.6-0.399-0.899c-2.7-7.8-6.9-14.8-12.801-20.6
		c-4.1-4.101-8.8-7.3-14.199-9.601c-0.2-0.1-0.5-0.199-0.7-0.3c0-0.1,0-0.1,0-0.1s0-0.101,0.1-0.101c0.2,0,0.5-0.1,0.7-0.1
		C521.394,523.326,530.493,523.326,539.694,523.326z"/>
	<path d="M511.593,726.124c9.301,0,18.7,0,28.101,0c0,10.5,0,20.999,0,31.499h-0.101c-0.1-0.3-0.2-0.6-0.399-1
		c-3.2-9-8.2-16.8-15.5-22.999c-3.4-2.9-7.101-5.2-11.2-7c-0.3-0.101-0.6-0.3-0.9-0.4
		C511.593,726.324,511.593,726.223,511.593,726.124z"/>
	<path d="M453.195,723.223c0-10.399,0-20.899,0-31.3c5.199,14.2,13.899,25.1,27.999,31.2
		C480.394,723.424,454.695,723.523,453.195,723.223z"/>
</g>
</svg>
