<?xml version="1.0" encoding="utf-8"?>
<!-- Generator: Adobe Illustrator 16.0.0, SVG Export Plug-In . SVG Version: 6.00 Build 0)  -->
<!DOCTYPE svg PUBLIC "-//W3C//DTD SVG 1.1//EN" "http://www.w3.org/Graphics/SVG/1.1/DTD/svg11.dtd">
<svg version="1.1" id="Calque_1" xmlns="http://www.w3.org/2000/svg" xmlns:xlink="http://www.w3.org/1999/xlink" x="0px" y="0px"
	 width="250px" height="500px" viewBox="295.945 345.275 250 500" enable-background="new 295.945 345.275 250 500"
	 xml:space="preserve">
<g>
	<rect x="298.697" y="366.328" width="244.396" height="457.795"/>
	<g>
		<path fill="#FFFFFF" stroke="#000000" stroke-miterlimit="10" d="M407.994,575.225c0,23,0,45.899,0,68.799
			c1.5,0.301,42.1,0.2,43-0.1c0-22.899,0-45.8,0-68.699C436.695,575.225,422.395,575.225,407.994,575.225z M496.094,575.225
			c-14.2,0-28.2,0-42.2,0c-0.3,1.3-0.199,67.899,0,68.899c14,0,28.1,0,42.2,0C496.094,621.125,496.094,598.225,496.094,575.225z
			 M479.094,369.828c-1.6-0.2-138.299-0.2-139.299,0.1c0,6.8,0,13.6,0,20.4c1.5,0.199,138.299,0.199,139.299-0.101
			C479.094,383.427,479.094,376.727,479.094,369.828z M523.993,472.927c-8.5,0-16.899,0-25.2,0c0,16.1,0,32.2,0,48.399
			c13.8,0,27.6,0,41.4,0c0-33.399,0-66.799,0-100.198c-5.4,0-10.7,0-16.2,0C523.993,438.327,523.993,455.527,523.993,472.927z
			 M498.993,626.925c-0.3,1.7-0.2,44.6,0.101,45.6c8.199,0,16.499,0,24.899,0c0,2.5,0,5,0,7.399c0,2.5,0,5,0,7.4s0,4.9,0,7.3
			c0,2.4,0,4.9,0,7.3c0,2.4,0,4.9,0,7.3c0,2.5,0,5,0,7.4c0,2.399-0.101,4.8,0,7.2c5.5,0,10.8,0,16.1,0c0-32.4,0-64.699,0-96.999
			C526.493,626.925,512.793,626.925,498.993,626.925z M301.596,820.923c19.5,0,38.899,0,58.3,0c0-5.5,0-10.9,0-16.5
			c-15.101,0-30.2,0-45.399,0c0-43.1,0-86.099,0-129.099c-4.4,0-8.601,0-12.9,0C301.596,723.824,301.596,772.323,301.596,820.923z
			 M359.896,469.627c0-16.2,0-32.399,0-48.6c-3.801,0-7.601,0-11.3,0c-3.801,0-7.601,0.101-11.5-0.1c0-3.2,0-6.3,0-9.4
			c0-3.1,0-6.1,0-9.199c0-3.101,0-6.2,0-9.301c-6.7,0-13.2,0-19.8,0c0,25.5,0,50.9,0,76.5
			C331.495,469.627,345.696,469.627,359.896,469.627z M314.596,521.326c0-43.6,0-87.199,0-130.898c7.6,0,15,0,22.5,0
			c0-6.9,0-13.7,0-20.5c-1.301-0.3-34.5-0.2-35.399,0c0,50.399,0,100.899,0,151.398
			C305.896,521.326,310.196,521.326,314.596,521.326z M362.696,820.923c44.6,0,88.999,0,133.398,0c0-5.5,0-10.9,0-16.4
			c-44.5,0-88.899,0-133.398,0C362.696,810.022,362.696,815.423,362.696,820.923z M450.994,421.128c-14.4,0-28.7,0-43,0
			c0,16.3,0,32.499,0,48.799c14.4,0,28.7,0,43,0C450.994,453.627,450.994,437.427,450.994,421.128z M450.994,726.824
			c-14.4,0-28.6,0-43,0c0,16.299,0,32.499,0,48.599c1.9,0.3,42,0.2,43-0.1C450.994,759.223,450.994,743.023,450.994,726.824z
			 M407.994,521.326c14.4,0,28.7,0,43,0c0-16.199,0-32.3,0-48.6c-14.4,0-28.6,0-43,0
			C407.994,488.927,407.994,505.026,407.994,521.326z M405.195,675.324c-1.7-0.3-41.6-0.2-42.499,0.101c0,16.199,0,32.299,0,48.599
			c14.199,0,28.3,0,42.499,0C405.195,707.723,405.195,691.524,405.195,675.324z M362.795,575.225c0,16.3,0,32.5,0,48.6
			c1.5,0.3,41.6,0.2,42.5-0.101c0-16.199,0-32.299,0-48.599C390.995,575.225,376.895,575.225,362.795,575.225z M362.795,472.527
			c0,16.299,0,32.499,0,48.599c1.5,0.3,41.6,0.2,42.399,0c0-16.199,0-32.3,0-48.599
			C390.995,472.527,376.895,472.527,362.795,472.527z M496.194,801.722c0-7.8,0-15.6,0-23.399c-2.1-0.3-87.299-0.2-88.099,0.1
			c0,7.7,0,15.5,0,23.3C437.494,801.722,466.794,801.722,496.194,801.722z M405.195,572.426c0-16.2,0-32.2,0-48.3
			c-1.6-0.3-41.6-0.2-42.499,0.101c0,15.999,0,32.1,0,48.199C376.895,572.426,390.995,572.426,405.195,572.426z M453.695,726.723
			c0,0.5,0,0.9,0,1.4c0,15.699,0.1,31.499,0.1,47.199c0,0,0,0.1,0.1,0.1l0.101,0.101c14.1,0,28.1,0,42.199,0
			c0.3-2.4,0.1-47.8-0.1-48.699C481.993,726.723,467.994,726.723,453.695,726.723z M496.094,524.126c-14.2,0-28.2,0-42.3,0
			c0,16.1,0,32.2,0,48.399c14.1,0,28.199,0,42.3,0C496.094,556.326,496.094,540.326,496.094,524.126z M317.296,726.824
			c0,24.999,0,49.999,0,74.898c14.3,0,28.399,0,42.6,0c0.3-1.7,0.199-22.6-0.101-23.5c-7.5,0-15,0-22.699,0
			c0-17.199,0-34.299,0-51.398C330.396,726.824,323.896,726.824,317.296,726.824z M359.995,575.325c-2-0.3-19.3-0.199-20.1,0.101
			c-0.2,1.6-0.2,96.198,0.1,97.099c6.601,0,13.3,0,20,0C359.995,640.024,359.995,607.725,359.995,575.325z M317.196,575.225
			c0,32.399,0,64.799,0,97.199c6.7,0,13.2,0,19.7,0c0.3-1.2,0.2-96.199,0-97.199C330.396,575.225,323.896,575.225,317.196,575.225z
			 M362.795,626.724c0,15.3,0,30.5,0,45.6c1.9,0.3,41.6,0.2,42.5-0.1c0.3-3.3,0.1-44.6-0.2-45.5
			C390.995,626.724,376.895,626.724,362.795,626.724z M301.697,524.126c-0.3,1.2-0.2,147.398,0,148.299c4.199,0,8.499,0,12.699,0
			c0-49.5,0-98.899,0-148.299C310.196,524.126,305.896,524.126,301.697,524.126z M453.894,393.128c-0.3,1.5-0.199,24.199,0.101,25.1
			c2.399,0.2,66.399,0.1,67.299-0.1c0-8.3,0-16.601,0-25C498.793,393.128,476.294,393.128,453.894,393.128z M523.993,418.227
			c2,0.3,15.399,0.2,16.2-0.1c0-16.101,0-32.2,0-48.2c-0.101-0.1-0.2-0.1-0.301-0.1c-18.999,0-38.1,0-57.099,0
			c-0.301,0-0.601,0-0.9,0.1c0,0-0.1,0-0.1,0.101l-0.101,0.1c0,6.8,0,13.6,0,20.5c14.1,0,28,0,42.1,0
			C523.993,399.727,523.993,408.927,523.993,418.227z M317.196,521.326c14.3,0,28.4,0,42.7,0c0-0.5,0-1,0-1.4
			c-0.301-4.8-1-9.499-2.4-14.1c-3-9.699-8.2-18-16.1-24.399c-6.4-5.2-13.7-8.3-22-8.899c-0.7-0.101-1.399,0-2.1,0
			C317.196,488.726,317.196,504.927,317.196,521.326z M408.095,524.026c0,0.8,0,1.5,0,2.2c0.5,7.1,2.2,13.999,5.3,20.499
			c4.1,8.4,9.899,15.3,17.899,20.2c5.601,3.399,11.7,5.399,18.4,5.6c0.399,0,0.899,0,1.3,0c0.3-2.1,0.2-47.499-0.101-48.399
			C436.695,524.026,422.395,524.026,408.095,524.026z M317.296,675.224c0,0.5,0,0.899,0,1.3c0.1,2.899,0.5,5.8,1,8.7
			c1.899,9.1,5.699,17.399,11.899,24.399c7.3,8.2,16.2,13.2,27.3,14.2c0.8,0.1,1.6,0,2.399,0c0.301-2.601,0.101-47.8-0.1-48.7
			C345.696,675.224,331.596,675.224,317.296,675.224z M362.795,775.523c14.2,0,28.3,0,42.5,0c0-0.5,0-1,0-1.4
			c-0.2-2-0.301-4-0.601-6c-1.399-9.1-4.7-17.399-10.399-24.699c-6.8-8.7-15.5-14.5-26.6-16.2c-1.601-0.3-3.2-0.5-4.801-0.3
			C362.795,743.023,362.795,759.223,362.795,775.523z M405.195,421.128c-14.199,0-28.3,0-42.499,0c0,0.5,0,0.899,0,1.3
			c0.3,2.5,0.5,5.1,0.899,7.6c1.601,8.8,5,16.8,10.7,23.8c7.5,9.3,17,15,29.1,16c0.6,0,1.2,0,1.8,0
			C405.195,453.527,405.195,437.327,405.195,421.128z M453.794,675.224c0,0.399,0,0.6,0,0.8c0.1,3,0.399,6,1,9
			c1.899,9.399,5.8,17.899,12.2,24.999c6.699,7.4,14.8,12.2,24.699,13.601c1.4,0.2,2.8,0.5,4.3,0.3c0-16.3,0-32.5,0-48.699
			C481.993,675.224,467.994,675.224,453.794,675.224z M453.994,470.027c14.199,0,27.999,0,41.899,0c0-0.2,0.1-0.301,0.1-0.4
			c0-15.899,0-31.899,0-47.8c0-0.199,0-0.399-0.1-0.6c0,0,0-0.1-0.101-0.1l-0.1-0.101c-0.3,0-0.6,0-0.9,0
			c-4,0.3-7.8,1.101-11.499,2.6c-8.5,3.4-15.101,9.2-20.2,16.7c-4.7,6.9-7.4,14.5-8.6,22.7
			C454.294,465.327,454.195,467.627,453.994,470.027z M495.993,472.827c-14,0-27.899,0-41.999,0c0,0.399,0,0.8,0,1.1
			c0.2,2.4,0.399,4.8,0.8,7.1c1.5,9,5,17.2,10.8,24.4c6.8,8.399,15.399,13.899,26.3,15.6c1.3,0.2,2.7,0.399,4,0.3
			C495.993,505.127,495.993,489.026,495.993,472.827z M498.894,623.925c2.399,0,4.5-0.399,6.6-0.899c8.7-2.101,15.9-6.7,21.8-13.4
			c8.3-9.5,12.3-20.8,13-33.399c0-0.4,0-0.7-0.1-1.1c-13.801,0-27.5,0-41.4,0C498.894,591.525,498.894,607.625,498.894,623.925z
			 M498.793,572.426c1.801,0.3,40.6,0.2,41.4-0.101c0-0.5,0-1,0-1.5c-0.301-2.499-0.5-4.899-0.9-7.399c-1.9-9.9-6-18.7-12.9-26
			c-6.5-7-14.399-11.5-23.899-13c-1.2-0.199-2.399-0.3-3.7-0.399C498.793,540.326,498.793,556.326,498.793,572.426z
			 M540.194,775.523c0-0.801,0.1-1.4,0-2.101c-0.2-1.899-0.301-3.8-0.601-5.699c-1.5-9.4-5.1-18-11.2-25.4
			c-6.699-8.199-15.199-13.6-25.799-15.3c-1.2-0.2-2.4-0.399-3.601-0.3c0,16.3,0,32.5,0,48.699
			C512.793,775.523,526.393,775.523,540.194,775.523z M498.793,421.027c0,16.4,0,32.7,0,49.1c7.101,0,14.101,0.1,21.1,0.1
			c0.4,0,0.801,0,1.2-0.1c0,0,0.101,0,0.101-0.1l0.1-0.101c0-16.3,0-32.6,0-48.899C513.793,421.027,506.293,421.027,498.793,421.027
			z M498.993,820.822c1.601,0.2,40.3,0.2,41.2-0.1c0-14.1,0-28.3,0-42.5c-5.4,0-10.7,0-16.2,0c0,8.7,0,17.4,0,26.101
			c-8.4,0-16.7,0-25,0C498.993,810.022,498.993,815.322,498.993,820.822z M498.993,675.224c-0.3,2.6-0.1,47.799,0.101,48.699
			c2.8,0.2,21.3,0.1,22.199-0.1c0-16.2,0-32.3,0-48.6C513.894,675.224,506.493,675.224,498.993,675.224z M407.994,672.425
			c14.4,0,28.7,0,43,0c0-8.5,0-16.9,0-25.5c-14.4,0-28.6,0-43,0C407.994,655.425,407.994,663.925,407.994,672.425z M450.894,418.227
			c0.301-1.7,0.2-24.3-0.1-25.1c-14.3,0-28.5,0-42.8,0c0,8.399,0,16.7,0,25.1C422.395,418.227,436.594,418.227,450.894,418.227z
			 M453.794,672.324c1.399,0.3,41.399,0.2,42.3,0c0-8.399,0-16.899,0-25.3c-14.101,0-28.2,0-42.3,0
			C453.794,655.524,453.794,663.925,453.794,672.324z M405.195,418.227c0-8.399,0-16.7,0-25c-1.399-0.3-41.6-0.2-42.399,0
			c0,8.3,0,16.601,0,25C376.895,418.227,390.995,418.227,405.195,418.227z M405.195,778.323c-1.8-0.3-41.6-0.2-42.499,0.1
			c0,7.7,0,15.5,0,23.2c1.7,0.3,41.6,0.2,42.499-0.101C405.195,793.823,405.195,786.123,405.195,778.323z M339.896,726.723
			c-0.3,1.9-0.2,47.8,0.1,48.699c6.7,0,13.3,0,20,0c0.2-2.1,0.1-47.799-0.1-48.699C353.196,726.723,346.495,726.723,339.896,726.723
			z M359.995,524.126c-2.2-0.3-19.2-0.2-20.1,0.101c-0.3,1.899-0.2,47.399,0.1,48.299c6.601,0,13.3,0,20,0
			C359.995,556.326,359.995,540.225,359.995,524.126z M450.994,677.524c-0.101,0-0.101-0.101-0.2-0.101
			c-13.8,15.5-27.6,30.9-41.499,46.4c1.5,0.3,40.799,0.199,41.699,0C450.994,708.424,450.994,692.924,450.994,677.524z
			 M317.396,524.126c-0.3,1.3-0.2,47.5,0,48.399c2,0.3,18.8,0.2,19.6-0.1c0.3-2.5,0.101-47.3-0.1-48.199
			C330.396,524.126,323.896,524.126,317.396,524.126z M407.994,721.124c0.301-0.2,0.4-0.3,0.5-0.4
			c13.5-15.1,26.9-30.199,40.399-45.299v-0.101v-0.1c-13.6,0-27.199,0-40.799,0C407.994,690.524,407.994,705.723,407.994,721.124z
			 M498.993,801.722c7.5,0,14.9,0,22.3,0c0-7.8,0-15.6,0-23.399c-7.5,0-14.899,0-22.3,0
			C498.993,786.123,498.993,793.923,498.993,801.722z M359.995,393.128c-6.8,0-13.399,0-20.1,0c-0.3,1.6-0.2,24.199,0.1,25.1
			c2.4,0.2,19.1,0.1,20-0.1C359.995,409.828,359.995,401.527,359.995,393.128z M453.794,453.427
			c5.1-14.699,13.899-25.899,28.6-32.399c-9.7,0-19.2,0-28.6,0C453.794,431.927,453.794,442.727,453.794,453.427z M511.793,624.025
			c2.7,0.3,27.5,0.199,28.5,0c0-10.5,0-20.9,0-31.4c0,0,0-0.1-0.1-0.1c0,0-0.101,0-0.2,0c-2.3,6.9-5.8,13.3-10.601,18.8
			C524.493,616.925,518.694,621.224,511.793,624.025z M453.794,521.226c1.7,0.3,27.399,0.199,28.199-0.101
			c-0.3-0.2-0.6-0.3-0.899-0.399c-4.7-2-8.9-4.8-12.7-8.3c-6.6-6.101-11.2-13.601-14.1-22.101c-0.101-0.399-0.3-0.699-0.4-1.1
			c-0.1,0-0.1,0-0.199,0.1C453.794,499.927,453.794,510.526,453.794,521.226z M317.396,692.524c-0.3,2.1-0.2,30.6,0,31.499
			c9.3,0,18.6,0,27.899,0c-6.699-3-12.5-7.199-17.3-12.8C323.196,705.723,319.796,699.424,317.396,692.524z M390.895,469.827
			c0-0.101,0-0.101,0-0.2c-0.3-0.1-0.6-0.3-0.899-0.4c-4.7-2-8.9-4.8-12.601-8.199c-6.6-6.101-11.199-13.5-14.199-22
			c-0.101-0.3-0.301-0.6-0.5-1.1c0,10.8,0,21.299,0,31.899C372.196,469.827,381.495,469.827,390.895,469.827z M408.095,541.026
			c-0.3,2.3-0.2,30.499,0.1,31.399c0.3,0,0.5,0,0.8,0c9,0,17.9,0,26.9,0c0,0,0.1,0,0.1-0.101c0,0,0-0.1,0.1-0.1
			C421.895,566.126,413.195,555.225,408.095,541.026z M331.696,472.427c0.5,0.2,0.8,0.4,1.1,0.601c4.301,1.8,8.101,4.3,11.601,7.399
			c7,6.2,11.899,13.8,15,22.6c0.1,0.3,0.3,0.601,0.399,1.101c0.3-1.9,0.2-30.8-0.1-31.8
			C350.495,472.427,341.196,472.427,331.696,472.427z M405.195,758.323c0-10.5,0-21,0-31.499c-9.399,0-18.699,0-28.3,0
			C391.295,733.124,400.095,744.023,405.195,758.323z M540.293,524.026c-9.2,0-18.3,0-27.3,0c-0.2,0-0.5,0-0.7,0.1
			c0,0-0.1,0-0.1,0.101v0.1c0.2,0.1,0.399,0.2,0.7,0.3c5.3,2.3,9.999,5.5,14.199,9.601c5.9,5.899,10.101,12.8,12.8,20.6
			c0.101,0.3,0.2,0.6,0.4,0.899c0,0,0.1,0,0.1-0.1C540.293,545.126,540.293,534.726,540.293,524.026z M512.194,726.824
			c0,0.1,0,0.199,0,0.199c0.3,0.101,0.6,0.301,0.899,0.4c4.101,1.8,7.801,4.1,11.2,7c7.3,6.2,12.3,14,15.5,23
			c0.1,0.3,0.2,0.699,0.4,1h0.1c0-10.5,0-21,0-31.5C530.893,726.824,521.493,726.824,512.194,726.824z M453.794,723.824
			c1.5,0.3,27.199,0.199,28-0.101c-14.101-6.2-22.8-17.1-28-31.199C453.794,703.024,453.794,713.424,453.794,723.824z"/>
		<path fill="#FFFFFF" stroke="#000000" stroke-miterlimit="10" d="M407.994,575.225c14.4,0,28.6,0,43,0c0,23,0,45.899,0,68.699
			c-0.9,0.2-41.5,0.3-43,0.1C407.994,621.224,407.994,598.325,407.994,575.225z"/>
		<path fill="#FFFFFF" stroke="#000000" stroke-miterlimit="10" d="M496.094,575.225c0,23,0,45.899,0,68.899
			c-14.101,0-28.1,0-42.2,0c-0.3-1-0.3-67.6,0-68.899C467.894,575.225,481.894,575.225,496.094,575.225z"/>
		<path fill="#FFFFFF" stroke="#000000" stroke-miterlimit="10" d="M479.094,369.828c0,6.8,0,13.6,0,20.3
			c-0.9,0.2-137.698,0.3-139.299,0.1c0-6.8,0-13.6,0-20.399C340.696,369.628,477.494,369.628,479.094,369.828z"/>
		<path fill="#FFFFFF" stroke="#000000" stroke-miterlimit="10" d="M523.993,472.927c0-17.399,0-34.499,0-51.799
			c5.5,0,10.8,0,16.2,0c0,33.399,0,66.799,0,100.198c-13.801,0-27.601,0-41.4,0c0-16.1,0-32.199,0-48.399
			C507.194,472.927,515.493,472.927,523.993,472.927z"/>
		<path fill="#FFFFFF" stroke="#000000" stroke-miterlimit="10" d="M498.993,626.925c13.8,0,27.5,0,41.2,0c0,32.3,0,64.6,0,96.999
			c-5.301,0-10.601,0-16.101,0c-0.1-2.4,0-4.8,0-7.2c0-2.5,0-5,0-7.399c0-2.4,0-4.9,0-7.3c0-2.4,0-4.9,0-7.3c0-2.4,0-4.9,0-7.301
			c0-2.5,0-5,0-7.399c0-2.4,0-4.9,0-7.4c-8.399,0-16.699,0-24.899,0C498.793,671.524,498.694,628.724,498.993,626.925z"/>
		<path fill="#FFFFFF" stroke="#000000" stroke-miterlimit="10" d="M301.596,820.923c0-48.6,0-97.099,0-145.599c4.3,0,8.5,0,12.9,0
			c0,43,0,85.999,0,129.099c15.199,0,30.199,0,45.399,0c0,5.6,0,11,0,16.5C340.495,820.923,321.096,820.923,301.596,820.923z"/>
		<path fill="#FFFFFF" stroke="#000000" stroke-miterlimit="10" d="M359.896,469.627c-14.2,0-28.4,0-42.7,0
			c0-25.6,0-50.999,0-76.499c6.601,0,13.1,0,19.8,0c0.101,3.1,0,6.2,0,9.3s0,6.1,0,9.2c0,3.1,0,6.199,0,9.399
			c3.9,0.2,7.7,0.101,11.5,0.101c3.7,0,7.5,0,11.3,0C359.896,437.327,359.896,453.527,359.896,469.627z"/>
		<path fill="#FFFFFF" stroke="#000000" stroke-miterlimit="10" d="M314.596,521.326c-4.4,0-8.6,0-12.899,0
			c0-50.499,0-100.898,0-151.398c0.899-0.3,34.099-0.3,35.399,0c0,6.8,0,13.6,0,20.5c-7.5,0-14.9,0-22.5,0
			C314.596,434.127,314.596,477.627,314.596,521.326z"/>
		<path fill="#FFFFFF" stroke="#000000" stroke-miterlimit="10" d="M362.696,820.923c0-5.5,0-10.9,0-16.4
			c44.499,0,88.898,0,133.398,0c0,5.4,0,10.8,0,16.4C451.695,820.923,407.295,820.923,362.696,820.923z"/>
		<path fill="#FFFFFF" stroke="#000000" stroke-miterlimit="10" d="M450.994,421.128c0,16.3,0,32.499,0,48.799c-14.3,0-28.6,0-43,0
			c0-16.3,0-32.499,0-48.799C422.395,421.128,436.695,421.128,450.994,421.128z"/>
		<path fill="#FFFFFF" stroke="#000000" stroke-miterlimit="10" d="M450.994,726.824c0,16.199,0,32.399,0,48.499
			c-1,0.3-41.1,0.399-43,0.1c0-16.199,0-32.399,0-48.599C422.395,726.824,436.695,726.824,450.994,726.824z"/>
		<path fill="#FFFFFF" stroke="#000000" stroke-miterlimit="10" d="M407.994,521.326c0-16.199,0-32.399,0-48.6c14.4,0,28.6,0,43,0
			c0,16.3,0,32.4,0,48.6C436.695,521.326,422.395,521.326,407.994,521.326z"/>
		<path fill="#FFFFFF" stroke="#000000" stroke-miterlimit="10" d="M405.195,675.324c0,16.2,0,32.3,0,48.699
			c-14.199,0.101-28.3,0-42.499,0c0-16.3,0-32.499,0-48.599C363.595,675.124,403.595,675.024,405.195,675.324z"/>
		<path fill="#FFFFFF" stroke="#000000" stroke-miterlimit="10" d="M362.795,575.225c14.2,0,28.3,0,42.5,0c0,16.2,0,32.399,0,48.6
			c-0.9,0.3-41,0.3-42.5,0.1C362.795,607.725,362.795,591.525,362.795,575.225z"/>
		<path fill="#FFFFFF" stroke="#000000" stroke-miterlimit="10" d="M362.795,472.527c14.2,0,28.3,0,42.399,0
			c0,16.299,0,32.399,0,48.599c-0.899,0.2-40.899,0.3-42.399,0C362.795,505.026,362.795,488.826,362.795,472.527z"/>
		<path fill="#FFFFFF" stroke="#000000" stroke-miterlimit="10" d="M496.194,801.722c-29.399,0-58.699,0-88.099,0
			c0-7.8,0-15.5,0-23.3c0.8-0.3,85.999-0.399,88.099-0.1C496.194,786.123,496.194,793.923,496.194,801.722z"/>
		<path fill="#FFFFFF" stroke="#000000" stroke-miterlimit="10" d="M405.195,572.426c-14.199,0-28.3,0-42.499,0
			c0-16.1,0-32.2,0-48.199c0.899-0.301,40.899-0.4,42.499-0.101C405.195,540.225,405.195,556.326,405.195,572.426z"/>
		<path fill="#FFFFFF" stroke="#000000" stroke-miterlimit="10" d="M453.695,726.723c14.199,0,28.199,0,42.299,0
			c0.3,0.9,0.4,46.3,0.101,48.699c-14,0-28.1,0-42.2,0c0,0-0.1,0-0.1-0.1l-0.1-0.101c0-15.699-0.101-31.499-0.101-47.199
			C453.695,727.723,453.695,727.324,453.695,726.723z"/>
		<path fill="#FFFFFF" stroke="#000000" stroke-miterlimit="10" d="M496.094,524.126c0,16.2,0,32.2,0,48.399
			c-14.101,0-28.2,0-42.3,0c0-16.1,0-32.199,0-48.399C467.894,524.126,481.894,524.126,496.094,524.126z"/>
		<path fill="#FFFFFF" stroke="#000000" stroke-miterlimit="10" d="M317.296,726.824c6.6,0,13.1,0,19.8,0c0,17.1,0,34.199,0,51.398
			c7.699,0,15.199,0,22.699,0c0.3,1,0.4,21.8,0.101,23.5c-14.2,0-28.3,0-42.6,0C317.296,776.722,317.296,751.823,317.296,726.824z"
			/>
		<path fill="#FFFFFF" stroke="#000000" stroke-miterlimit="10" d="M359.995,575.325c0,32.4,0,64.699,0,97.199c-6.7,0-13.399,0-20,0
			c-0.3-1-0.3-95.499-0.1-97.099C340.696,575.126,357.896,575.025,359.995,575.325z"/>
		<path fill="#FFFFFF" stroke="#000000" stroke-miterlimit="10" d="M317.196,575.225c6.7,0,13.2,0,19.7,0c0.3,1,0.3,95.999,0,97.199
			c-6.5,0-13,0-19.7,0C317.196,640.024,317.196,607.725,317.196,575.225z"/>
		<path fill="#FFFFFF" stroke="#000000" stroke-miterlimit="10" d="M362.795,626.724c14.2,0,28.2,0,42.3,0
			c0.3,1,0.399,42.3,0.2,45.5c-0.801,0.3-40.6,0.399-42.5,0.1C362.795,657.224,362.795,642.024,362.795,626.724z"/>
		<path fill="#FFFFFF" stroke="#000000" stroke-miterlimit="10" d="M301.697,524.126c4.199,0,8.399,0,12.8,0
			c0,49.5,0,98.799,0,148.299c-4.301,0-8.5,0-12.7,0C301.496,671.524,301.496,525.326,301.697,524.126z"/>
		<path fill="#FFFFFF" stroke="#000000" stroke-miterlimit="10" d="M453.894,393.128c22.4,0,44.899,0,67.399,0c0,8.399,0,16.7,0,25
			c-1,0.199-64.899,0.3-67.299,0.1C453.695,417.427,453.594,394.628,453.894,393.128z"/>
		<path fill="#FFFFFF" stroke="#000000" stroke-miterlimit="10" d="M481.894,369.828
			C481.993,369.828,481.993,369.727,481.894,369.828c0.4-0.101,0.7-0.101,1-0.101C501.894,369.727,481.894,369.828,481.894,369.828z
			"/>
		<path fill="#FFFFFF" stroke="#000000" stroke-miterlimit="10" d="M317.196,521.326c0-16.3,0-32.5,0-48.899c0.7,0,1.4,0,2.101,0
			c8.3,0.7,15.6,3.7,21.999,8.9c7.9,6.499,13.101,14.8,16.101,24.399c1.399,4.6,2.199,9.3,2.399,14.1c0,0.4,0,0.9,0,1.4
			C345.696,521.326,331.495,521.326,317.196,521.326z"/>
		<path fill="#FFFFFF" stroke="#000000" stroke-miterlimit="10" d="M408.095,524.026c14.399,0,28.6,0,42.799,0
			c0.301,0.899,0.4,46.299,0.101,48.399c-0.4,0-0.8,0-1.3,0c-6.601-0.2-12.7-2.2-18.4-5.6c-8-4.9-13.8-11.801-17.899-20.2
			c-3.1-6.5-4.8-13.3-5.3-20.5C407.994,525.626,408.095,524.926,408.095,524.026z"/>
		<path fill="#FFFFFF" stroke="#000000" stroke-miterlimit="10" d="M317.296,675.224c14.3,0,28.399,0,42.499,0
			c0.3,0.899,0.4,46.1,0.101,48.699c-0.801,0-1.601,0.1-2.4,0c-11-1-20-6-27.3-14.2c-6.2-7-10-15.3-11.899-24.399
			c-0.601-2.9-1-5.8-1-8.7C317.296,676.124,317.296,675.724,317.296,675.224z"/>
		<path fill="#FFFFFF" stroke="#000000" stroke-miterlimit="10" d="M362.795,775.523c0-16.3,0-32.5,0-48.7
			c1.7-0.199,3.3,0.101,4.8,0.301c11.101,1.8,19.8,7.5,26.6,16.199c5.7,7.3,9,15.6,10.4,24.7c0.3,2,0.399,4,0.6,6
			c0,0.399,0,0.899,0,1.399C390.995,775.523,376.895,775.523,362.795,775.523z"/>
		<path fill="#FFFFFF" stroke="#000000" stroke-miterlimit="10" d="M405.195,421.128c0,16.3,0,32.399,0,48.699c-0.6,0-1.2,0-1.8,0
			c-12.1-1-21.6-6.7-29.1-16c-5.7-7-9.1-15-10.7-23.8c-0.399-2.5-0.6-5.1-0.899-7.6c0-0.4,0-0.8,0-1.3
			C376.995,421.128,390.995,421.128,405.195,421.128z"/>
		<path fill="#FFFFFF" stroke="#000000" stroke-miterlimit="10" d="M453.794,675.224c14.2,0,28.199,0,42.3,0
			c0,16.199,0,32.399,0,48.699c-1.5,0.2-2.9-0.1-4.301-0.3c-9.899-1.5-18.1-6.3-24.699-13.6c-6.4-7.2-10.4-15.601-12.2-25
			c-0.6-3-1-5.9-1-9C453.794,675.824,453.794,675.624,453.794,675.224z"/>
		<path fill="#FFFFFF" stroke="#000000" stroke-miterlimit="10" d="M453.994,470.027c0.2-2.4,0.3-4.7,0.7-6.9
			c1.199-8.2,3.899-15.8,8.6-22.699c5.1-7.5,11.7-13.301,20.199-16.7c3.7-1.5,7.601-2.3,11.5-2.6c0.3,0,0.601,0,0.9,0l0.1,0.1
			l0.101,0.1c0,0.2,0.1,0.4,0.1,0.601c0,15.899,0,31.899,0,47.799c0,0.101-0.1,0.2-0.1,0.4
			C481.993,470.027,468.194,470.027,453.994,470.027z"/>
		<path fill="#FFFFFF" stroke="#000000" stroke-miterlimit="10" d="M495.993,472.827c0,16.199,0,32.3,0,48.399
			c-1.399,0.199-2.7-0.101-4-0.301c-10.899-1.6-19.499-7.1-26.3-15.6c-5.8-7.1-9.3-15.3-10.8-24.399c-0.399-2.4-0.5-4.7-0.8-7.1
			c0-0.4,0-0.7,0-1.101C468.094,472.827,481.993,472.827,495.993,472.827z"/>
		<path fill="#FFFFFF" stroke="#000000" stroke-miterlimit="10" d="M498.894,623.925c0-16.3,0-32.499,0-48.699
			c13.8,0,27.499,0,41.399,0c0,0.4,0.1,0.7,0.1,1.1c-0.7,12.5-4.699,23.8-13,33.4c-5.899,6.699-13.1,11.3-21.799,13.399
			C503.394,623.625,501.194,623.925,498.894,623.925z"/>
		<path fill="#FFFFFF" stroke="#000000" stroke-miterlimit="10" d="M498.793,572.426c0-16.1,0-32.1,0-48.3
			c1.301,0.101,2.5,0.2,3.7,0.4c9.5,1.5,17.4,6,23.899,13c6.9,7.399,11,16.199,12.9,25.999c0.5,2.4,0.6,4.9,0.9,7.4
			c0.1,0.5,0,1,0,1.5C539.393,572.626,500.594,572.725,498.793,572.426z"/>
		<path fill="#FFFFFF" stroke="#000000" stroke-miterlimit="10" d="M540.194,775.523c-13.801,0-27.5,0-41.2,0c0-16.2,0-32.4,0-48.7
			c1.2-0.1,2.4,0.101,3.601,0.301c10.6,1.699,19.1,7.1,25.799,15.3c6.101,7.399,9.7,15.999,11.2,25.399c0.3,1.899,0.5,3.8,0.601,5.7
			C540.293,774.123,540.194,774.722,540.194,775.523z"/>
		<path fill="#FFFFFF" stroke="#000000" stroke-miterlimit="10" d="M498.793,421.027c7.5,0,15,0,22.5,0c0,16.3,0,32.6,0,48.899
			c0,0,0,0-0.1,0.101l-0.101,0.1c-0.399,0-0.8,0.1-1.199,0.1c-7,0-14-0.1-21.101-0.1
			C498.793,453.727,498.793,437.527,498.793,421.027z"/>
		<path fill="#FFFFFF" stroke="#000000" stroke-miterlimit="10" d="M498.993,675.224c7.5,0,14.9,0,22.4,0c0,16.199,0,32.399,0,48.6
			c-0.9,0.3-19.4,0.399-22.2,0.1C498.894,723.124,498.694,677.924,498.993,675.224z"/>
		<path fill="#FFFFFF" stroke="#000000" stroke-miterlimit="10" d="M407.994,672.425c0-8.5,0-17,0-25.5c14.4,0,28.6,0,43,0
			c0,8.5,0,17,0,25.5C436.695,672.425,422.395,672.425,407.994,672.425z"/>
		<path fill="#FFFFFF" stroke="#000000" stroke-miterlimit="10" d="M450.894,418.227c-14.3,0-28.6,0-42.899,0c0-8.399,0-16.7,0-25.1
			c14.3,0,28.6,0,42.8,0C451.094,393.927,451.195,416.527,450.894,418.227z"/>
		<path fill="#FFFFFF" stroke="#000000" stroke-miterlimit="10" d="M453.794,672.324c0-8.399,0-16.899,0-25.399
			c14.1,0,28.199,0,42.3,0c0,8.5,0,16.899,0,25.3C495.194,672.524,455.195,672.624,453.794,672.324z"/>
		<path fill="#FFFFFF" stroke="#000000" stroke-miterlimit="10" d="M405.195,418.227c-14.199,0-28.3,0-42.399,0c0-8.399,0-16.7,0-25
			c0.9-0.2,41-0.3,42.399,0C405.195,401.527,405.195,409.828,405.195,418.227z"/>
		<path fill="#FFFFFF" stroke="#000000" stroke-miterlimit="10" d="M405.195,778.323c0,7.8,0,15.5,0,23.199
			c-0.899,0.301-40.799,0.301-42.499,0.101c0-7.7,0-15.5,0-23.2C363.595,778.222,403.395,778.123,405.195,778.323z"/>
		<path fill="#FFFFFF" stroke="#000000" stroke-miterlimit="10" d="M339.896,726.723c6.7,0,13.3,0,19.899,0
			c0.3,0.9,0.4,46.6,0.101,48.699c-6.7,0-13.3,0-20,0C339.696,774.623,339.596,728.723,339.896,726.723z"/>
		<path fill="#FFFFFF" stroke="#000000" stroke-miterlimit="10" d="M359.995,524.126c0,16.1,0,32.2,0,48.399c-6.7,0-13.399,0-20,0
			c-0.3-1-0.399-46.499-0.1-48.299C340.696,524.026,357.795,523.926,359.995,524.126z"/>
		<path fill="#FFFFFF" stroke="#000000" stroke-miterlimit="10" d="M450.994,677.524c0,15.399,0,30.899,0,46.3
			c-0.9,0.3-40.199,0.3-41.699,0c13.899-15.5,27.699-31,41.499-46.4C450.894,677.424,450.994,677.524,450.994,677.524z"/>
		<path fill="#FFFFFF" stroke="#000000" stroke-miterlimit="10" d="M317.396,524.126c6.5,0,13,0,19.5,0
			c0.3,0.9,0.399,45.8,0.1,48.199c-0.8,0.301-17.6,0.4-19.6,0.101C317.096,571.626,317.096,525.426,317.396,524.126z"/>
		<path fill="#FFFFFF" stroke="#000000" stroke-miterlimit="10" d="M407.994,721.124c0-15.4,0-30.6,0-45.899c13.601,0,27.2,0,40.8,0
			c0,0,0,0,0,0.1v0.101c-13.5,15.1-26.899,30.199-40.399,45.299C408.395,720.824,408.295,720.924,407.994,721.124z"/>
		<path fill="#FFFFFF" stroke="#000000" stroke-miterlimit="10" d="M498.993,801.722c0-7.8,0-15.6,0-23.399c7.4,0,14.8,0,22.3,0
			c0,7.8,0,15.6,0,23.399C513.894,801.722,506.493,801.722,498.993,801.722z"/>
		<path fill="#FFFFFF" stroke="#000000" stroke-miterlimit="10" d="M359.995,393.128c0,8.399,0,16.7,0,25
			c-0.9,0.3-17.6,0.399-20,0.1c-0.3-0.8-0.399-23.5-0.1-25.1C346.495,393.128,353.196,393.128,359.995,393.128z"/>
		<path fill="#FFFFFF" stroke="#000000" stroke-miterlimit="10" d="M453.794,453.427c0-10.8,0-21.499,0-32.399
			c9.399,0,18.899,0,28.6,0C467.694,427.527,458.894,438.827,453.794,453.427z"/>
		<path fill="#FFFFFF" stroke="#000000" stroke-miterlimit="10" d="M511.793,624.025c6.9-2.9,12.7-7.101,17.6-12.7
			c4.801-5.5,8.3-11.899,10.601-18.8c0.1,0,0.1,0,0.199,0c0,0,0.101,0,0.101,0.1c0,10.5,0,20.9,0,31.4
			C539.293,624.325,514.493,624.425,511.793,624.025z"/>
		<path fill="#FFFFFF" stroke="#000000" stroke-miterlimit="10" d="M453.794,521.226c0-10.7,0-21.3,0-32c0.1,0,0.1,0,0.2-0.1
			c0.1,0.399,0.3,0.699,0.399,1.1c2.9,8.5,7.5,15.9,14.101,22.1c3.699,3.5,7.899,6.3,12.699,8.3c0.3,0.101,0.601,0.3,0.9,0.4
			C481.194,521.426,455.494,521.526,453.794,521.226z"/>
		<path fill="#FFFFFF" stroke="#000000" stroke-miterlimit="10" d="M317.396,692.524c2.4,6.899,5.8,13.199,10.6,18.699
			s10.5,9.8,17.3,12.8c-9.3,0-18.6,0-27.899,0C317.196,723.124,316.996,694.524,317.396,692.524z"/>
		<path fill="#FFFFFF" stroke="#000000" stroke-miterlimit="10" d="M390.895,469.827c-9.3,0-18.699,0-28.1,0
			c0-10.601,0-21.2,0-31.899c0.2,0.5,0.3,0.8,0.5,1.1c3,8.5,7.6,15.899,14.2,22c3.7,3.399,7.899,6.199,12.6,8.199
			c0.3,0.101,0.6,0.301,0.9,0.4C390.895,469.627,390.895,469.726,390.895,469.827z"/>
		<path fill="#FFFFFF" stroke="#000000" stroke-miterlimit="10" d="M408.095,541.026c5.1,14.199,13.8,25.1,27.899,31.299
			c0,0.101,0,0.101-0.1,0.101l-0.101,0.1c-9,0-17.899,0-26.899,0c-0.3,0-0.6,0-0.8,0
			C407.895,571.525,407.795,543.326,408.095,541.026z"/>
		<path fill="#FFFFFF" stroke="#000000" stroke-miterlimit="10" d="M331.696,472.427c9.5,0,18.8,0,28.1,0
			c0.3,1,0.3,29.899,0.101,31.8c-0.2-0.5-0.301-0.8-0.4-1.1c-3.1-8.801-7.899-16.5-15-22.601c-3.5-3.1-7.399-5.6-11.6-7.399
			C332.495,472.927,332.196,472.726,331.696,472.427z"/>
		<path fill="#FFFFFF" stroke="#000000" stroke-miterlimit="10" d="M405.195,758.323c-5.1-14.3-13.899-25.199-28.3-31.499
			c9.601,0,18.9,0,28.3,0C405.195,737.323,405.195,747.823,405.195,758.323z"/>
		<path fill="#FFFFFF" stroke="#000000" stroke-miterlimit="10" d="M540.293,524.026c0,10.7,0,21.1,0,31.6c0,0-0.1,0-0.1,0.1
			c-0.101-0.3-0.301-0.6-0.4-0.899c-2.7-7.8-6.9-14.8-12.8-20.6c-4.101-4.101-8.8-7.301-14.2-9.601c-0.2-0.1-0.5-0.2-0.7-0.3
			c0-0.1,0-0.1,0-0.1s0-0.101,0.101-0.101c0.2,0,0.5-0.1,0.7-0.1C521.993,524.026,531.093,524.026,540.293,524.026z"/>
		<path fill="#FFFFFF" stroke="#000000" stroke-miterlimit="10" d="M512.194,726.824c9.3,0,18.699,0,28.1,0
			c0,10.499,0,20.999,0,31.499h-0.1c-0.101-0.3-0.2-0.6-0.4-1c-3.2-9-8.2-16.8-15.5-23c-3.4-2.899-7.1-5.199-11.2-6.999
			c-0.3-0.101-0.6-0.301-0.899-0.4C512.194,726.924,512.194,726.924,512.194,726.824z"/>
		<path fill="#FFFFFF" stroke="#000000" stroke-miterlimit="10" d="M453.794,723.824c0-10.4,0-20.9,0-31.3
			c5.2,14.199,13.899,25.1,28,31.199C480.993,724.124,455.294,724.124,453.794,723.824z"/>
	</g>
</g>
</svg>
