<?xml version="1.0" encoding="utf-8"?>
<!-- Generator: Adobe Illustrator 23.0.1, SVG Export Plug-In . SVG Version: 6.00 Build 0)  -->
<svg version="1.1" id="Calque_1" xmlns="http://www.w3.org/2000/svg" xmlns:xlink="http://www.w3.org/1999/xlink" x="0px" y="0px"
	 viewBox="0 0 223.7 439.7" style="enable-background:new 0 0 223.7 439.7;" xml:space="preserve">
<g>
	<rect x="23.5" y="130.9" width="20.2" height="48.4"/>
	<rect x="91.9" width="42.1" height="25.2"/>
	<rect x="46.4" width="42.3" height="25.2"/>
	<polygon points="1.1,0 20.8,0 20.8,27.9 43.6,27.9 43.6,76.6 1.1,76.5 	"/>
	<rect x="91.9" y="79.6" width="42.1" height="48.5"/>
	<rect x="46.4" y="79.6" width="42.3" height="48.5"/>
	<rect x="137.4" y="130.9" width="41.8" height="48.5"/>
	<rect x="46.4" y="182.1" width="42.3" height="48.7"/>
	<rect x="91.9" y="182" width="42.1" height="68.9"/>
	<rect x="137.5" y="251" width="41.7" height="28.5"/>
	<rect x="23.5" y="182" width="20.2" height="97.4"/>
	<rect x="46.4" y="282.1" width="42.3" height="48.7"/>
	<rect x="182" y="282" width="22.4" height="48.8"/>
	<path d="M91.9,147.8v31.6h28.4C120.3,179.4,100.5,172.6,91.9,147.8z"/>
	<path d="M223.3,162.5v-31.6h-28.4C194.9,130.9,214.7,137.7,223.3,162.5z"/>
	<path d="M1.1,299.2v31.6h28.4C29.5,330.8,9.7,324.1,1.1,299.2z"/>
	<path d="M88.7,365.3v-31.6H60.3C60.3,333.7,80.1,340.4,88.7,365.3z"/>
	<path d="M137.4,299.2v31.6h28.4C165.8,330.8,146,324.1,137.4,299.2z"/>
	<polygon points="91.9,282 132.5,282 91.9,327.9 	"/>
	<path d="M179.2,27.9v48.7h-41.8C137.4,76.5,138.2,31.2,179.2,27.9z"/>
	<path d="M1.1,79.6v48.5h42.5C43.6,128.1,42.8,82.9,1.1,79.6z"/>
	<path d="M181.9,230.8v-48.7h41.4C223.3,182,222.5,227.5,181.9,230.8z"/>
	<path d="M88.7,76.5V27.8H46.4C46.4,27.9,47.2,73.3,88.7,76.5z"/>
</g>
<rect y="388.5" width="4.7" height="29.3"/>
<polygon points="18.8,388.5 23.5,388.5 23.5,417.3 36.5,417.3 36.5,417.8 18.8,417.8 "/>
<polygon points="47.8,388.5 52.5,388.5 52.5,417.3 65.5,417.3 65.5,417.8 47.8,417.8 "/>
<path d="M74.5,407.8v-19.3h4.7v20.3c0,7.2,1.3,9,6.2,9c6.7,0,9.8-3.5,9.8-10.7v-18.6h0.5v18.2c0,6.7-2.4,11.5-10.3,11.5
	C78,418.2,74.5,414.8,74.5,407.8"/>
<path d="M128.4,411.3c0-3.1-3-3.5-8.9-5.8l-2.5-1c-4.3-1.6-8.1-3.9-8.1-8.8c0-4.2,3.7-7.8,10.4-7.8c5.9,0,10.6,3.1,10.6,9.4h-4.8
	v-7.6c-0.7-0.4-2.8-1.3-5.6-1.3c-6.1,0-8.9,2.6-8.9,5.5c0,2.9,2.8,3.8,7.4,5.7l3,1.2c4.1,1.6,9.5,3.3,9.5,8.9
	c0,4.4-4.1,8.4-10.9,8.4c-6.6,0-11.7-2.5-11.7-9.6h4.8v7.8c0,0,2.1,1.4,7,1.4C126,417.8,128.4,414.6,128.4,411.3"/>
<polygon points="152.6,389 152.6,417.8 147.5,417.8 147.5,389 138.2,389 138.2,388.5 161.8,388.5 161.8,389 "/>
<path d="M177.8,417.8h-4.7v-29.3c0,0,4.8-0.5,8.3-0.5c6.1,0,11.4,1.4,11.4,7.8c0,5-4.9,7-7.7,7v0.1c6.8,1.1,8.5,7.6,8.5,14.9h-5.1
	c0-12-2.9-14.7-7.2-14.7h-3.5L177.8,417.8L177.8,417.8z M181.4,388.5c-2.2,0-3.6,0.1-3.6,0.1v14h3.5c4.5,0,6.6-2.9,6.6-6.8
	C187.9,391.2,185.9,388.5,181.4,388.5"/>
<polygon points="206,388.5 223.7,388.5 223.7,389 210.7,389 210.7,401.7 222.8,401.7 222.8,402.2 210.7,402.2 210.7,417.3 
	223.7,417.3 223.7,417.8 206,417.8 "/>
<path d="M73.2,437.5h-3.5l-0.7,2h-0.5l2.7-7.5h0.6l2.7,7.5H74L73.2,437.5z M73,437.1l-1.6-4.5l-1.6,4.5H73z"/>
<path d="M76.5,434.2h0.4l0.1,1c0.3-0.6,0.9-1.2,1.7-1.2c0.7,0,1.4,0.4,1.6,1.3c0.3-0.7,1-1.3,1.8-1.3c1,0,1.8,0.8,1.8,2.1v3.4h-0.4
	v-3.4c0-1.1-0.6-1.7-1.3-1.7c-0.9,0-1.7,0.8-1.7,2.2v2.9h-0.4v-3.4c0-1.1-0.7-1.7-1.4-1.7c-0.9,0-1.7,0.7-1.7,2.3v2.7h-0.4v-5.2
	L76.5,434.2L76.5,434.2z"/>
<path d="M86.5,437.4v-3.2h0.4v3.2c0,1.2,0.7,1.8,1.6,1.8c1,0,1.8-0.7,1.8-2.3v-2.7h0.4v5.3h-0.4l-0.1-1c-0.2,0.6-0.8,1.2-1.8,1.2
	C87.1,439.6,86.5,438.6,86.5,437.4"/>
<path d="M93,438.2l0.4-0.1c0.2,0.7,0.6,1.2,1.4,1.2c0.8,0,1.3-0.5,1.3-1.1c0-0.4-0.2-0.9-1.1-1.2l-0.6-0.2c-0.8-0.3-1.1-0.8-1.1-1.3
	c0-0.8,0.6-1.3,1.4-1.3c0.7,0,1.1,0.4,1.4,1l-0.4,0.2c-0.2-0.6-0.6-0.8-1.1-0.8s-0.9,0.4-0.9,0.9c0,0.4,0.3,0.7,1,1l0.6,0.2
	c0.8,0.3,1.1,0.8,1.1,1.5c0,0.8-0.6,1.5-1.7,1.5C93.8,439.6,93.3,439.1,93,438.2"/>
<path d="M101,439.6c-1.7,0-2.6-1.2-2.6-2.7c0-1.7,1-2.8,2.5-2.8c1.6,0,2.4,1.2,2.4,2.7c0,0.1,0,0.1,0,0.2h-4.5c0,1.6,1,2.3,2.2,2.3
	c1,0,1.6-0.5,1.8-1.2l0.4,0.1C103,438.9,102.3,439.6,101,439.6 M98.9,436.6h4c-0.1-1.4-0.9-2.1-2-2.1
	C99.9,434.5,99,435.2,98.9,436.6"/>
<rect x="105.6" y="436.6" width="3.1" height="0.4"/>
<path d="M111.1,435.8c0-2.3,1.5-3.9,3.6-3.9c1.5,0,2.5,0.8,3,1.7l-0.4,0.3c-0.5-0.8-1.3-1.5-2.6-1.5c-1.8,0-3.2,1.4-3.2,3.4
	s1.4,3.4,3.2,3.4c1.7,0,2.8-1.3,2.7-2.9H115v-0.4h2.9v3.7h-0.4l-0.1-1.6c-0.5,1.1-1.5,1.7-2.7,1.7
	C112.6,439.6,111.1,437.9,111.1,435.8"/>
<path d="M120.6,437.4v-3.2h0.4v3.2c0,1.2,0.7,1.8,1.6,1.8c1,0,1.8-0.7,1.8-2.3v-2.7h0.4v5.3h-0.4l-0.1-1c-0.2,0.6-0.8,1.2-1.8,1.2
	C121.2,439.6,120.6,438.6,120.6,437.4"/>
<path d="M129.9,439.6c-1.7,0-2.6-1.2-2.6-2.7c0-1.7,1-2.8,2.5-2.8c1.6,0,2.4,1.2,2.4,2.7c0,0.1,0,0.1,0,0.2h-4.5
	c0,1.6,1,2.3,2.2,2.3c1,0,1.6-0.5,1.8-1.2l0.4,0.1C131.9,438.9,131.2,439.6,129.9,439.6 M127.8,436.6h4c-0.1-1.4-0.9-2.1-2-2.1
	S127.9,435.2,127.8,436.6"/>
<path d="M134.6,437.4v-3.2h0.4v3.2c0,1.2,0.7,1.8,1.6,1.8c1,0,1.8-0.7,1.8-2.3v-2.7h0.4v5.3h-0.4l-0.1-1c-0.2,0.6-0.8,1.2-1.8,1.2
	C135.2,439.6,134.6,438.6,134.6,437.4"/>
<rect x="141.8" y="431.9" width="0.4" height="7.6"/>
<path d="M147.3,439.6c-1.7,0-2.6-1.2-2.6-2.7c0-1.7,1-2.8,2.5-2.8c1.6,0,2.4,1.2,2.4,2.7c0,0.1,0,0.1,0,0.2h-4.5
	c0,1.6,1,2.3,2.2,2.3c1,0,1.6-0.5,1.8-1.2l0.4,0.1C149.3,438.9,148.6,439.6,147.3,439.6 M145.2,436.6h4c-0.1-1.4-0.9-2.1-2-2.1
	C146.1,434.5,145.3,435.2,145.2,436.6"/>
<path d="M151.4,438.2l0.4-0.1c0.2,0.7,0.6,1.2,1.4,1.2s1.3-0.5,1.3-1.1c0-0.4-0.2-0.9-1.1-1.2l-0.6-0.2c-0.8-0.3-1.1-0.8-1.1-1.3
	c0-0.8,0.6-1.3,1.4-1.3c0.7,0,1.1,0.4,1.4,1l-0.4,0.2c-0.2-0.6-0.6-0.8-1.1-0.8s-0.9,0.4-0.9,0.9c0,0.4,0.3,0.7,1,1l0.6,0.2
	c0.8,0.3,1.1,0.8,1.1,1.5c0,0.8-0.6,1.5-1.7,1.5C152.2,439.6,151.7,439.1,151.4,438.2"/>
</svg>
