<?xml version="1.0" encoding="utf-8"?>
<!-- Generator: Adobe Illustrator 16.0.0, SVG Export Plug-In . SVG Version: 6.00 Build 0)  -->
<!DOCTYPE svg PUBLIC "-//W3C//DTD SVG 1.1//EN" "http://www.w3.org/Graphics/SVG/1.1/DTD/svg11.dtd">
<svg version="1.1" id="Calque_1" xmlns="http://www.w3.org/2000/svg" xmlns:xlink="http://www.w3.org/1999/xlink" x="0px" y="0px"
	 width="841.889px" height="662.305px" viewBox="0 264.123 841.889 662.305" enable-background="new 0 264.123 841.889 662.305"
	 xml:space="preserve">
<rect x="0" y="264.123" fill="#35282E" width="841.889" height="662.305"/>
<g>
	<path fill="#FFFFFF" d="M236.459,611.016V505.532h25.592v110.83c0,39.451,7.029,49.054,33.907,49.054
		c36.432,0,53.707-18.958,53.707-58.607V505.532h2.574v99.544c0,36.432-13.217,62.864-56.281,62.864
		C255.814,667.94,236.459,648.982,236.459,611.016z"/>
	<path fill="#FFFFFF" d="M487.967,630.221c0-16.829-16.632-19.205-48.608-31.531l-13.86-5.346
		c-23.463-8.959-44.104-21.087-44.104-47.965c0-23.018,20.245-42.421,56.479-42.421c32.175,0,57.964,17.077,57.964,51.183H469.85
		v-41.333c-3.613-2.326-15.146-7.227-30.491-7.227c-33.462,0-48.807,14.306-48.807,30.046c0,15.543,15.146,20.89,40.49,31.136
		l16.435,6.633c22.176,8.96,51.826,17.919,51.826,48.807c0,23.859-22.374,45.837-59.697,45.837
		c-36.035,0-63.953-13.662-63.953-52.668h25.987v42.421c0,0,11.731,7.673,38.362,7.673
		C475.394,665.416,487.967,648.14,487.967,630.221z"/>
	<path fill="#FFFFFF" d="M522.716,505.532h96.573v2.574h-70.982v69.498h66.28v2.573h-66.28v82.714h70.982v2.574h-96.573V505.532z"/>
</g>
</svg>
